<svg width="120" height="120" viewBox="0 0 120 120" fill="none" xmlns="http://www.w3.org/2000/svg">
<g opacity="0.34">
<path d="M44.295 105.516L33.0968 103.055L15.7604 92.3273L8.04611 81.378L3.51155 68.825L3.12445 54.06L5.66823 42.8895C5.66823 42.8895 5.66823 42.8895 5.66823 42.8618L10.0369 35.0923L17.3641 26.3826L27.871 19.1107L34.1475 16.6499C34.1752 16.6499 34.2028 16.6499 34.2028 16.6775C34.2305 16.7052 34.2028 16.7328 34.2028 16.7605L31.6037 19.1383L36.4424 19.166L38.1567 15.378C38.1567 15.3503 38.1844 15.3503 38.212 15.3503L46.2028 14.272L58.3411 17.1475L59.1982 15.5439C59.1982 15.5162 59.2535 15.5162 59.2812 15.5162L70.8941 20.1337L81.5116 28.2628L88.507 37.9402L92.7097 48.53C92.7097 48.5577 92.7097 48.5853 92.6821 48.613L90.8849 49.5807L91.6867 53.5347L93.7328 54.1982C93.7604 54.1982 93.7604 54.2259 93.7604 54.2535L93.871 64.2904L92.0462 73.6084C92.0462 73.636 92.0185 73.636 92.0185 73.636C91.9908 73.636 91.9908 73.636 91.9632 73.636L91.2167 73.1936L88.7005 81.5715L81.0139 91.9678L69.5945 100.456C69.5669 100.456 69.5669 100.484 69.5392 100.456C69.5116 100.456 69.5116 100.429 69.5116 100.401L69.5669 98.3273L58.507 104.521C58.507 104.521 58.4793 104.521 58.4517 104.521L36.3042 98.0232L44.212 105.378C44.2397 105.406 44.2397 105.433 44.212 105.433C44.3503 105.516 44.3226 105.516 44.295 105.516ZM33.1798 102.972L44.1014 105.378L36.1659 97.9955L33.5392 97.2766L33.1798 102.972ZM36.4701 97.9679L58.507 104.438L56.212 95.3135L36.4701 97.9679ZM56.3503 95.3135L58.6176 104.41L66.6913 93.931L56.3503 95.3135ZM66.8295 93.9033L58.7835 104.327L69.6775 98.2444L69.8434 93.4886L66.8295 93.9033ZM27.6775 95.6453L33.0692 102.862L33.4286 97.249L27.6775 95.6453ZM16.1475 92.4379L32.9309 102.807L27.5392 95.59L16.1475 92.4379ZM69.8157 98.3273L69.7604 100.346L80.4056 92.4102L69.8157 98.3273ZM69.954 93.4886L69.7881 98.189L80.7927 92.0508L69.954 93.4886ZM33.5945 96.3918L36.2212 97.8849L43.4102 90.613L33.954 90.9172L33.5945 96.3918ZM43.5484 90.613L36.3871 97.8849L56.2397 95.2305L54.9954 90.2259L43.5484 90.613ZM33.5392 97.166L35.7788 97.802L33.5669 96.5577L33.5392 97.166ZM27.5669 95.507L33.4286 97.1384L33.4563 96.4748L24.4701 91.3872L27.5669 95.507ZM24.4701 91.249L33.4839 96.3365L33.8157 90.9172L24.4701 91.249ZM16.0645 92.2997L27.401 95.4517L24.2489 91.249L16.0645 92.2997ZM55.0784 90.2259L56.3226 95.2029L66.7743 93.7927L69.9263 89.7006L55.0784 90.2259ZM69.9816 89.8388L66.9401 93.7927L69.871 93.4056L69.9816 89.8388ZM70.0922 89.7282L69.9816 93.378L80.765 91.9402L70.0922 89.7282ZM14.6268 85.3596L15.8434 92.2167L24.1383 91.166L14.6268 85.3596ZM8.26731 81.5162L15.6222 91.9678L13.1613 84.5024L8.26731 81.5162ZM70.2305 89.6453L81.0692 91.8849L84.1383 83.6176L70.2305 89.6453ZM84.2766 83.5623L81.2904 91.6084L88.6176 81.6821L84.2766 83.5623ZM13.2996 84.5577L15.5945 91.5255L14.4885 85.2766L13.2996 84.5577ZM34.4793 79.9678L24.4148 91.1384L33.8434 90.8342L34.4793 79.9678ZM23.447 80.4932L24.3042 91.0554L34.3964 79.8849L23.447 80.4932ZM13.9079 81.0462L24.1936 91.0554L23.3364 80.5208L13.9079 81.0462ZM14.5991 85.2213L23.8894 90.8895L13.8802 81.1568L14.5991 85.2213ZM34.6175 79.8849L33.954 90.8066L43.5208 90.5024L52.6729 81.2397L34.6175 79.8849ZM52.7282 81.295L43.659 90.4748L54.9401 90.0877L52.7282 81.295ZM52.8388 81.295L55.0507 90.1153L69.8157 89.6176L52.8388 81.295ZM52.9217 81.2121L69.954 89.5623L68.8203 78.06L52.9217 81.2121ZM75.6775 76.7328L70.1475 89.5623L84.1936 83.4794L87.5669 74.4102L75.6775 76.7328ZM68.9586 78.06L70.0646 89.4517L75.5392 76.7605L68.9586 78.06ZM13.2443 84.3918L14.4609 85.1384L13.742 81.0462L12.1659 81.1291L13.2443 84.3918ZM8.23966 81.378L13.0784 84.3089L12.0277 81.1291L8.23966 81.378ZM87.6222 74.5485L84.3319 83.4241L88.7005 81.5162L87.6222 74.5485ZM87.1798 70.6775L87.7051 74.2996L88.7835 81.2674L91.2443 73.1107L87.1798 70.6775ZM3.67745 69.0462L8.10141 81.2674L12 81.0462L10.8664 77.6176L3.67745 69.0462ZM34.5899 79.7743L52.6176 81.1291L36.1383 62.8526L32.9033 64.9817L34.5899 79.7743ZM67.4378 63.8757L52.8941 81.1015L68.8203 77.9771L67.4378 63.8757ZM48.5807 54.7789L52.7835 81.0462L67.3825 63.7374L48.5807 54.7789ZM11.0599 77.8388L12.1106 81.0185L13.659 80.9356L11.0599 77.8388ZM36.2489 62.7973L52.6729 81.0185L48.4701 54.7789L36.2489 62.7973ZM22.6175 71.7282L13.9079 80.9356L23.3088 80.4102L22.6175 71.7282ZM10.977 77.5623L13.7973 80.9079L22.5622 71.6453L8.35026 69.5162L10.977 77.5623ZM22.7281 71.7282L23.447 80.4102L34.3964 79.8019L22.7281 71.7282ZM22.7558 71.6176L34.4793 79.719L32.8203 65.037L22.7558 71.6176ZM67.5484 63.7927L68.9309 77.9494L75.5945 76.6499L80.0185 66.4195L67.5484 63.7927ZM3.67745 68.825L10.7834 77.3135L8.21201 69.4886L3.67745 68.825ZM80.1014 66.4471L75.7328 76.6222L87.5945 74.2996L87.0692 70.6222L80.1014 66.4471ZM91.3549 73.083L92.0738 73.4978L93.6775 65.3688L91.3549 73.083ZM87.1521 70.5393L91.2719 73.0001L93.871 64.3181L86.4056 65.4517L87.1521 70.5393ZM8.29496 69.4056L22.5346 71.5347L15.9816 64.2628L7.63137 67.3319L8.29496 69.4056ZM16.0645 64.2075L22.6175 71.4794L23.3641 61.5254L16.0645 64.2075ZM23.4747 61.4978L22.7281 71.4241L31.9355 58.3734L23.4747 61.4978ZM32.0461 58.401L22.8664 71.3964L32.7927 64.8987L32.0461 58.401ZM80.2397 66.3918L87.0139 70.4563L86.295 65.4517L80.2397 66.3918ZM3.7604 68.742L8.18436 69.4056L7.52077 67.3595L3.7604 68.742ZM5.86178 62.4102L3.62215 68.6591L7.46547 67.2489L5.86178 62.4102ZM3.2074 54.3642L3.56685 68.4655L5.80648 62.2443L3.2074 54.3642ZM5.91708 62.2443L7.54842 67.2213L15.871 64.1522L8.26731 55.719L5.91708 62.2443ZM84.5254 53.2305L80.1567 66.3089L86.295 65.3688L84.5254 53.2305ZM67.6314 63.7098L79.9908 66.3089L76.3687 58.2075L67.6314 63.7098ZM76.4793 58.1522L80.0738 66.2259L84.4425 53.1199L76.4793 58.1522ZM84.636 53.1752L86.4056 65.3411L93.8434 64.2075L84.636 53.1752ZM32.1567 58.4287L32.8756 64.8434L36.0553 62.7697L32.1567 58.4287ZM8.35026 55.636L16.0092 64.1245L23.3917 61.4148L24.4148 47.5623L8.35026 55.636ZM84.636 53.0093L93.8434 64.0692L91.6867 53.6176L86.5438 51.9863L84.636 53.0093ZM91.8249 53.6453L93.871 63.6821L93.7604 54.2812L91.8249 53.6453ZM48.6636 54.6959L67.4378 63.6268L71.3918 47.1752L48.6636 54.6959ZM71.5024 47.2858L67.5761 63.6268L76.3411 58.1245L71.5024 47.2858ZM32.212 58.2904L36.1936 62.7144L48.2489 54.8342L32.212 58.2904ZM3.23505 54.0877L5.86178 62.0784L8.18436 55.636L3.23505 54.0877ZM24.4977 47.6176L23.4747 61.3595L31.9908 58.2351L24.4977 47.6176ZM24.6083 47.5623L32.1291 58.2075L48.3042 54.6959L24.6083 47.5623ZM71.613 47.2029L76.4517 58.0416L84.4701 53.0093L71.613 47.2029ZM3.2074 53.9771L8.18436 55.5531L5.69588 43.1107L3.2074 53.9771ZM9.3733 43.8019L8.32261 55.5254L24.3042 47.4794L9.3733 43.8019ZM5.75118 42.8895L8.21201 55.2213L9.23505 43.7466L5.75118 42.8895ZM51.0139 41.0093L48.5807 54.613L71.3088 47.0923L51.0139 41.0093ZM24.5807 47.4517L48.3318 54.5854L35.3088 40.7605L24.5807 47.4517ZM35.4194 40.6775L48.4701 54.5577L50.9033 40.954L40.1199 37.719L35.4194 40.6775ZM86.6821 51.9033L91.659 53.507L90.8572 49.6637L86.6821 51.9033ZM72.3872 47.4517L84.4701 52.8987L84.2766 51.2397L72.3872 47.4517ZM85.0231 51.4886L84.6637 52.8987L86.4332 51.9586L85.0231 51.4886ZM84.4148 51.295L84.5807 52.7052L84.9125 51.4609L84.4148 51.295ZM85.0508 51.378L86.5715 51.848L90.8849 49.5254L88.5623 38.2167L85.0508 51.378ZM84.3872 51.1568L84.9402 51.3227L88.4793 38.0784L83.1706 40.9264L84.3872 51.1568ZM71.6406 47.0923L84.2766 51.1291L83.06 40.9817L71.6406 47.0923ZM88.7282 38.5761L90.9678 49.4701L92.6821 48.5577L88.7282 38.5761ZM13.7696 36.7236L24.4424 47.3411L29.447 34.5669L13.7696 36.7236ZM9.3733 43.6913L24.2765 47.3688L13.659 36.7789L9.73275 39.8204L9.3733 43.6913ZM29.5576 34.6222L24.5807 47.3411L35.2535 40.6775L29.5576 34.6222ZM51.0415 40.8987L71.2812 46.9817L53.0323 29.7835L51.0415 40.8987ZM53.1706 29.7558L71.4194 46.954L71.1429 33.9586L53.1706 29.7558ZM77.7512 35.507L71.6406 46.954L83.0323 40.8711L82.507 36.6406L77.7512 35.507ZM71.2812 33.9863L71.5577 46.8711L77.6683 35.4794L71.2812 33.9863ZM5.80648 42.8065L9.2627 43.6637L9.5945 39.9033L5.80648 42.8065ZM10.0092 35.3688L5.91708 42.53L9.67745 39.0738L10.0092 35.3688ZM9.6498 39.2674L6.66362 42.0047L9.5945 39.7374L9.6498 39.2674ZM40.2581 37.6637L50.9309 40.8711L52.9217 29.7835L40.2581 37.6637ZM82.6176 36.6406L83.1153 40.7881L88.3687 37.9678L82.6176 36.6406ZM29.7235 34.6222L35.3641 40.5946L40.0093 37.6913L29.7235 34.6222ZM9.78805 39.1568L9.73275 39.6545L13.5484 36.7236L12.8019 36.3918L9.78805 39.1568ZM10.1198 35.2029L9.78805 38.9909L12.6913 36.3365L10.1198 35.2029ZM82.6176 36.53L88.424 37.8849L81.6498 28.484L82.6176 36.53ZM29.7512 34.5116L40.1199 37.6084L52.7005 29.7558L29.7512 34.5116ZM17.447 32.1337L13.7973 36.613L29.3917 34.484L21.0139 28.8711L17.447 32.1337ZM12.8848 36.3088L13.6314 36.6406L14.1844 35.1476L12.8848 36.3088ZM77.8065 35.4241L82.507 36.53L81.5392 28.484L77.8065 35.4241ZM14.3503 34.954L13.8249 36.3918L16.8664 32.6314L14.3503 34.954ZM10.1751 35.1199L12.8019 36.2535L14.2673 34.8987L17.2811 26.6867L10.1751 35.1199ZM71.2812 33.8757L77.6959 35.3688L81.4563 28.3457L71.1706 28.8434L71.2812 33.8757ZM17.447 26.4932L14.4332 34.7328L17.3641 32.0508L20.3226 28.401L17.447 26.4932ZM35.1982 22.2628L29.6406 34.4563L52.8111 29.6729L35.1982 22.2628ZM21.0692 28.7881L29.447 34.401L28.1752 22.2628L21.0692 28.7881ZM28.2858 22.1798L29.5576 34.3181L35.0876 22.2351L30.4148 20.272L28.2858 22.1798ZM53.3918 29.7005L71.1706 33.848L71.06 28.8434L53.3918 29.7005ZM20.4056 28.484L17.9171 31.5531L20.9033 28.8158L20.4056 28.484ZM66.2766 22.6775L53.2259 29.5899L71.06 28.7328L70.977 24.4194L66.2766 22.6775ZM35.2258 22.1522L52.8664 29.5623L48.3871 19.3042L36.553 19.2489L35.2258 22.1522ZM57.318 19.3872L53.0876 29.5347L66.1106 22.6222L57.318 19.3872ZM48.5254 19.3042L53.0047 29.507L57.2351 19.3319L48.5254 19.3042ZM71.0876 24.4747L71.1706 28.7328L81.2904 28.2351L71.0876 24.4747ZM20.4885 28.401L20.9862 28.7328L28.1752 22.1245L27.871 19.2766L20.4885 28.401ZM17.53 26.4102L20.4056 28.3181L27.6498 19.3872L17.53 26.4102ZM71.0876 24.3641L81.2351 28.1245L71.0047 20.272L71.0876 24.3641ZM66.3871 22.6222L70.9494 24.3088L70.8664 20.2443L66.3871 22.6222ZM57.6498 19.3872L66.2489 22.5669L70.7282 20.189L57.6498 19.3872ZM30.4977 20.1614L35.1429 22.0969L36.4424 19.2213L31.5208 19.1936L30.4977 20.1614ZM27.9816 19.2213L28.2858 22.0416L30.3042 20.189L27.9816 19.2213ZM28.2028 19.1936L30.3871 20.1061L31.3549 19.1936H28.2028ZM57.3733 19.2489L70.2858 20.0508L58.4517 17.2305L57.3733 19.2489ZM58.507 17.1475L70.2028 19.9125L59.3365 15.5992L58.507 17.1475ZM48.4701 19.1936L57.0415 19.2489L46.3964 14.4102L48.4701 19.1936ZM46.8111 14.4932L57.2627 19.2489L58.3411 17.2305L46.8111 14.4932ZM36.6083 19.1383L48.3318 19.1936L46.2028 14.3549L38.295 15.4333L36.6083 19.1383ZM28.2028 19.083L31.4655 19.1107L33.9263 16.8434L28.2028 19.083Z" fill="white"/>
<path d="M27.9263 19.8018C28.2928 19.8018 28.5899 19.5047 28.5899 19.1382C28.5899 18.7717 28.2928 18.4746 27.9263 18.4746C27.5598 18.4746 27.2627 18.7717 27.2627 19.1382C27.2627 19.5047 27.5598 19.8018 27.9263 19.8018Z" fill="white"/>
<path d="M34.2028 17.1753C34.4776 17.1753 34.7005 16.9525 34.7005 16.6776C34.7005 16.4028 34.4776 16.1799 34.2028 16.1799C33.9279 16.1799 33.7051 16.4028 33.7051 16.6776C33.7051 16.9525 33.9279 17.1753 34.2028 17.1753Z" fill="white"/>
<path d="M6.35941 42.8343C6.35941 43.1937 6.05527 43.4978 5.69582 43.4978C5.33637 43.4978 5.03223 43.1937 5.03223 42.8343C5.03223 42.4748 5.33637 42.1707 5.69582 42.1707C6.05527 42.1707 6.35941 42.4472 6.35941 42.8343Z" fill="white"/>
<path d="M3.81565 54.0047C3.81565 54.3641 3.51151 54.6683 3.15206 54.6683C2.79261 54.6683 2.48846 54.3641 2.48846 54.0047C2.48846 53.6452 2.79261 53.3411 3.15206 53.3411C3.51151 53.3411 3.81565 53.6176 3.81565 54.0047Z" fill="white"/>
<path d="M16.4516 92.272C16.4516 92.6314 16.1474 92.9356 15.788 92.9356C15.4285 92.9356 15.1244 92.6314 15.1244 92.272C15.1244 91.9125 15.4285 91.6084 15.788 91.6084C16.1474 91.6084 16.4516 91.9125 16.4516 92.272Z" fill="white"/>
<path d="M36.8848 97.9402C36.8848 98.2997 36.5807 98.6038 36.2212 98.6038C35.8618 98.6038 35.5576 98.2997 35.5576 97.9402C35.5576 97.5808 35.8618 97.2766 36.2212 97.2766C36.5807 97.2766 36.8848 97.5808 36.8848 97.9402Z" fill="white"/>
<path d="M24.2765 91.8572C24.643 91.8572 24.9401 91.5601 24.9401 91.1936C24.9401 90.8271 24.643 90.53 24.2765 90.53C23.91 90.53 23.6129 90.8271 23.6129 91.1936C23.6129 91.5601 23.91 91.8572 24.2765 91.8572Z" fill="white"/>
<path d="M70.0369 90.3365C70.4034 90.3365 70.7005 90.0394 70.7005 89.6729C70.7005 89.3064 70.4034 89.0093 70.0369 89.0093C69.6704 89.0093 69.3733 89.3064 69.3733 89.6729C69.3733 90.0394 69.6704 90.3365 70.0369 90.3365Z" fill="white"/>
<path d="M80.765 66.364C80.765 66.7235 80.4608 67.0276 80.1014 67.0276C79.742 67.0276 79.4378 66.7235 79.4378 66.364C79.4378 66.0046 79.742 65.7004 80.1014 65.7004C80.4608 65.7004 80.765 66.0046 80.765 66.364Z" fill="white"/>
<path d="M68.1567 63.7374C68.1567 64.0968 67.8526 64.401 67.4931 64.401C67.1337 64.401 66.8295 64.0968 66.8295 63.7374C66.8295 63.3779 67.1337 63.0738 67.4931 63.0738C67.8526 63.0461 68.1567 63.3503 68.1567 63.7374Z" fill="white"/>
<path d="M70.0369 90.3365C70.4034 90.3365 70.7005 90.0394 70.7005 89.6729C70.7005 89.3064 70.4034 89.0093 70.0369 89.0093C69.6704 89.0093 69.3733 89.3064 69.3733 89.6729C69.3733 90.0394 69.6704 90.3365 70.0369 90.3365Z" fill="white"/>
<path d="M53.4193 81.1843C53.4193 81.5438 53.1152 81.8479 52.7558 81.8479C52.3963 81.8479 52.0922 81.5438 52.0922 81.1843C52.0922 80.8249 52.3963 80.5208 52.7558 80.5208C53.1152 80.5208 53.4193 80.8249 53.4193 81.1843Z" fill="white"/>
<path d="M88.3135 74.3272C88.3135 74.6866 88.0093 74.9908 87.6499 74.9908C87.2904 74.9908 86.9863 74.6866 86.9863 74.3272C86.9863 73.9677 87.2904 73.6636 87.6499 73.6636C88.0093 73.6636 88.3135 73.9677 88.3135 74.3272Z" fill="white"/>
<path d="M85.2166 52.9817C85.2166 53.3412 84.9124 53.6453 84.553 53.6453C84.1936 53.6453 83.8894 53.3412 83.8894 52.9817C83.8894 52.6223 84.1936 52.3181 84.553 52.3181C84.9124 52.3181 85.2166 52.6223 85.2166 52.9817Z" fill="white"/>
<path d="M93.9539 64.9263C94.3204 64.9263 94.6175 64.6292 94.6175 64.2627C94.6175 63.8962 94.3204 63.5991 93.9539 63.5991C93.5874 63.5991 93.2903 63.8962 93.2903 64.2627C93.2903 64.6292 93.5874 64.9263 93.9539 64.9263Z" fill="white"/>
<path d="M80.765 66.364C80.765 66.7235 80.4608 67.0276 80.1014 67.0276C79.742 67.0276 79.4378 66.7235 79.4378 66.364C79.4378 66.0046 79.742 65.7004 80.1014 65.7004C80.4608 65.7004 80.765 66.0046 80.765 66.364Z" fill="white"/>
<path d="M92.6267 73.5807C92.6267 73.8572 92.4055 74.0784 92.129 74.0784C91.8525 74.0784 91.6313 73.8572 91.6313 73.5807C91.6313 73.3042 91.8525 73.083 92.129 73.083C92.4055 73.083 92.6267 73.3042 92.6267 73.5807Z" fill="white"/>
<path d="M93.9539 64.9263C94.3204 64.9263 94.6175 64.6292 94.6175 64.2627C94.6175 63.8962 94.3204 63.5991 93.9539 63.5991C93.5874 63.5991 93.2903 63.8962 93.2903 64.2627C93.2903 64.6292 93.5874 64.9263 93.9539 64.9263Z" fill="white"/>
<path d="M88.7556 82.2076C89.1221 82.2076 89.4192 81.9105 89.4192 81.544C89.4192 81.1775 89.1221 80.8804 88.7556 80.8804C88.3891 80.8804 88.092 81.1775 88.092 81.544C88.092 81.9105 88.3891 82.2076 88.7556 82.2076Z" fill="white"/>
<path d="M88.3135 74.3272C88.3135 74.6866 88.0093 74.9908 87.6499 74.9908C87.2904 74.9908 86.9863 74.6866 86.9863 74.3272C86.9863 73.9677 87.2904 73.6636 87.6499 73.6636C88.0093 73.6636 88.3135 73.9677 88.3135 74.3272Z" fill="white"/>
<path d="M81.7604 91.9678C81.7604 92.3273 81.4563 92.6314 81.0968 92.6314C80.7374 92.6314 80.4332 92.3273 80.4332 91.9678C80.4332 91.6084 80.7374 91.3042 81.0968 91.3042C81.4563 91.2766 81.7604 91.5807 81.7604 91.9678Z" fill="white"/>
<path d="M88.7558 82.2904C89.1681 82.2904 89.5024 81.9562 89.5024 81.5439C89.5024 81.1316 89.1681 80.7974 88.7558 80.7974C88.3435 80.7974 88.0093 81.1316 88.0093 81.5439C88.0093 81.9562 88.3435 82.2904 88.7558 82.2904Z" fill="white"/>
<path d="M70.0369 90.3365C70.4034 90.3365 70.7005 90.0394 70.7005 89.6729C70.7005 89.3064 70.4034 89.0093 70.0369 89.0093C69.6704 89.0093 69.3733 89.3064 69.3733 89.6729C69.3733 90.0394 69.6704 90.3365 70.0369 90.3365Z" fill="white"/>
<path d="M81.7604 91.9678C81.7604 92.3273 81.4563 92.6314 81.0968 92.6314C80.7374 92.6314 80.4332 92.3273 80.4332 91.9678C80.4332 91.6084 80.7374 91.3042 81.0968 91.3042C81.4563 91.2766 81.7604 91.5807 81.7604 91.9678Z" fill="white"/>
<path d="M70.4793 100.456C70.4793 100.899 70.1199 101.258 69.6775 101.258C69.2351 101.258 68.8756 100.899 68.8756 100.456C68.8756 100.014 69.2351 99.6545 69.6775 99.6545C70.1199 99.6545 70.4793 100.014 70.4793 100.456Z" fill="white"/>
<path d="M70.037 90.696C70.602 90.696 71.06 90.238 71.06 89.6729C71.06 89.1079 70.602 88.6499 70.037 88.6499C69.472 88.6499 69.0139 89.1079 69.0139 89.6729C69.0139 90.238 69.472 90.696 70.037 90.696Z" fill="white"/>
<path d="M59.2535 104.521C59.2535 104.88 58.9494 105.184 58.5899 105.184C58.2305 105.184 57.9263 104.88 57.9263 104.521C57.9263 104.161 58.2305 103.857 58.5899 103.857C58.977 103.857 59.2535 104.161 59.2535 104.521Z" fill="white"/>
<path d="M81.7604 91.9678C81.7604 92.3273 81.4563 92.6314 81.0968 92.6314C80.7374 92.6314 80.4332 92.3273 80.4332 91.9678C80.4332 91.6084 80.7374 91.3042 81.0968 91.3042C81.4563 91.2766 81.7604 91.5807 81.7604 91.9678Z" fill="white"/>
<path d="M36.8848 97.9402C36.8848 98.2997 36.5807 98.6038 36.2212 98.6038C35.8618 98.6038 35.5576 98.2997 35.5576 97.9402C35.5576 97.5808 35.8618 97.2766 36.2212 97.2766C36.5807 97.2766 36.8848 97.5808 36.8848 97.9402Z" fill="white"/>
<path d="M53.4193 81.1843C53.4193 81.5438 53.1152 81.8479 52.7558 81.8479C52.3963 81.8479 52.0922 81.5438 52.0922 81.1843C52.0922 80.8249 52.3963 80.5208 52.7558 80.5208C53.1152 80.5208 53.4193 80.8249 53.4193 81.1843Z" fill="white"/>
<path d="M59.2535 104.521C59.2535 104.88 58.9494 105.184 58.5899 105.184C58.2305 105.184 57.9263 104.88 57.9263 104.521C57.9263 104.161 58.2305 103.857 58.5899 103.857C58.977 103.857 59.2535 104.161 59.2535 104.521Z" fill="white"/>
<path d="M37.3548 97.94C37.3548 98.576 36.8571 99.0737 36.2212 99.0737C35.5852 99.0737 35.0875 98.576 35.0875 97.94C35.0875 97.3041 35.5852 96.8064 36.2212 96.8064C36.8295 96.834 37.3548 97.3317 37.3548 97.94Z" fill="white"/>
<path d="M44.9585 105.461C44.9585 105.82 44.6544 106.125 44.2949 106.125C43.9355 106.125 43.6313 105.82 43.6313 105.461C43.6313 105.102 43.9355 104.797 44.2949 104.797C44.6544 104.797 44.9585 105.102 44.9585 105.461Z" fill="white"/>
<path d="M33.788 103.028C33.788 103.387 33.4839 103.691 33.1244 103.691C32.765 103.691 32.4608 103.387 32.4608 103.028C32.4608 102.668 32.765 102.364 33.1244 102.364C33.4839 102.336 33.788 102.641 33.788 103.028Z" fill="white"/>
<path d="M35.2259 79.8296C35.2259 80.1891 34.9217 80.4932 34.5623 80.4932C34.2028 80.4932 33.8987 80.1891 33.8987 79.8296C33.8987 79.4702 34.2028 79.166 34.5623 79.166C34.9217 79.166 35.2259 79.4702 35.2259 79.8296Z" fill="white"/>
<path d="M53.4193 81.1843C53.4193 81.5438 53.1152 81.8479 52.7558 81.8479C52.3963 81.8479 52.0922 81.5438 52.0922 81.1843C52.0922 80.8249 52.3963 80.5208 52.7558 80.5208C53.1152 80.5208 53.4193 80.8249 53.4193 81.1843Z" fill="white"/>
<path d="M68.1567 63.7374C68.1567 64.0968 67.8526 64.401 67.4931 64.401C67.1337 64.401 66.8295 64.0968 66.8295 63.7374C66.8295 63.3779 67.1337 63.0738 67.4931 63.0738C67.8526 63.0461 68.1567 63.3503 68.1567 63.7374Z" fill="white"/>
<path d="M85.2166 52.9817C85.2166 53.3412 84.9124 53.6453 84.553 53.6453C84.1936 53.6453 83.8894 53.3412 83.8894 52.9817C83.8894 52.6223 84.1936 52.3181 84.553 52.3181C84.9124 52.3181 85.2166 52.6223 85.2166 52.9817Z" fill="white"/>
<path d="M80.9862 66.3641C80.9862 66.8618 80.5715 67.2765 80.0738 67.2765C79.5761 67.2765 79.1613 66.8618 79.1613 66.3641C79.1613 65.8664 79.5761 65.4517 80.0738 65.4517C80.5715 65.4793 80.9862 65.8664 80.9862 66.3641Z" fill="white"/>
<path d="M72.1659 47.0923C72.1659 47.4518 71.8618 47.7559 71.5023 47.7559C71.1429 47.7559 70.8387 47.4518 70.8387 47.0923C70.8387 46.7329 71.1429 46.4287 71.5023 46.4287C71.8618 46.4287 72.1659 46.7329 72.1659 47.0923Z" fill="white"/>
<path d="M68.5438 63.7373C68.5438 64.3179 68.0738 64.8156 67.4655 64.8156C66.8848 64.8156 66.3871 64.3456 66.3871 63.7373C66.3871 63.1566 66.8572 62.6589 67.4655 62.6589C68.0738 62.6589 68.5438 63.129 68.5438 63.7373Z" fill="white"/>
<path d="M49.189 54.6961C49.189 55.0555 48.8849 55.3597 48.5254 55.3597C48.166 55.3597 47.8618 55.0555 47.8618 54.6961C47.8618 54.3366 48.166 54.0325 48.5254 54.0325C48.8849 54.0325 49.189 54.3366 49.189 54.6961Z" fill="white"/>
<path d="M53.8065 81.1845C53.8065 81.7651 53.3364 82.2352 52.7558 82.2352C52.1751 82.2352 51.7051 81.7651 51.7051 81.1845C51.7051 80.6038 52.1751 80.1338 52.7558 80.1338C53.3364 80.1338 53.8065 80.6038 53.8065 81.1845Z" fill="white"/>
<path d="M32.1014 58.9263C32.4679 58.9263 32.765 58.6292 32.765 58.2627C32.765 57.8962 32.4679 57.5991 32.1014 57.5991C31.7349 57.5991 31.4378 57.8962 31.4378 58.2627C31.4378 58.6292 31.7349 58.9263 32.1014 58.9263Z" fill="white"/>
<path d="M35.2259 79.8296C35.2259 80.1891 34.9217 80.4932 34.5623 80.4932C34.2028 80.4932 33.8987 80.1891 33.8987 79.8296C33.8987 79.4702 34.2028 79.166 34.5623 79.166C34.9217 79.166 35.2259 79.4702 35.2259 79.8296Z" fill="white"/>
<path d="M24.2765 91.8572C24.643 91.8572 24.9401 91.5601 24.9401 91.1936C24.9401 90.8271 24.643 90.53 24.2765 90.53C23.91 90.53 23.6129 90.8271 23.6129 91.1936C23.6129 91.5601 23.91 91.8572 24.2765 91.8572Z" fill="white"/>
<path d="M33.954 103.028C33.954 103.47 33.5945 103.857 33.1245 103.857C32.6821 103.857 32.295 103.498 32.295 103.028C32.295 102.585 32.6544 102.198 33.1245 102.198C33.5669 102.198 33.954 102.558 33.954 103.028Z" fill="white"/>
<path d="M16.4516 92.272C16.4516 92.6314 16.1474 92.9356 15.788 92.9356C15.4285 92.9356 15.1244 92.6314 15.1244 92.272C15.1244 91.9125 15.4285 91.6084 15.788 91.6084C16.1474 91.6084 16.4516 91.9125 16.4516 92.272Z" fill="white"/>
<path d="M24.2765 91.8572C24.643 91.8572 24.9401 91.5601 24.9401 91.1936C24.9401 90.8271 24.643 90.53 24.2765 90.53C23.91 90.53 23.6129 90.8271 23.6129 91.1936C23.6129 91.5601 23.91 91.8572 24.2765 91.8572Z" fill="white"/>
<path d="M23.3364 71.6175C23.3364 71.9769 23.0323 72.2811 22.6728 72.2811C22.3134 72.2811 22.0092 71.9769 22.0092 71.6175C22.0092 71.258 22.3134 70.9539 22.6728 70.9539C23.0323 70.9262 23.3364 71.2304 23.3364 71.6175Z" fill="white"/>
<path d="M35.2259 79.8296C35.2259 80.1891 34.9217 80.4932 34.5623 80.4932C34.2028 80.4932 33.8987 80.1891 33.8987 79.8296C33.8987 79.4702 34.2028 79.166 34.5623 79.166C34.9217 79.166 35.2259 79.4702 35.2259 79.8296Z" fill="white"/>
<path d="M14.4609 80.991C14.4609 81.3504 14.1567 81.6546 13.7973 81.6546C13.4378 81.6546 13.1337 81.3504 13.1337 80.991C13.1337 80.6315 13.4378 80.3274 13.7973 80.3274C14.1567 80.3274 14.4609 80.6315 14.4609 80.991Z" fill="white"/>
<path d="M24.2765 91.8572C24.643 91.8572 24.9401 91.5601 24.9401 91.1936C24.9401 90.8271 24.643 90.53 24.2765 90.53C23.91 90.53 23.6129 90.8271 23.6129 91.1936C23.6129 91.5601 23.91 91.8572 24.2765 91.8572Z" fill="white"/>
<path d="M8.73735 81.3225C8.73735 81.682 8.4332 81.9861 8.07375 81.9861C7.7143 81.9861 7.41016 81.682 7.41016 81.3225C7.41016 80.9631 7.7143 80.6589 8.07375 80.6589C8.4332 80.6589 8.73735 80.9631 8.73735 81.3225Z" fill="white"/>
<path d="M16.4516 92.272C16.4516 92.6314 16.1474 92.9356 15.788 92.9356C15.4285 92.9356 15.1244 92.6314 15.1244 92.272C15.1244 91.9125 15.4285 91.6084 15.788 91.6084C16.1474 91.6084 16.4516 91.9125 16.4516 92.272Z" fill="white"/>
<path d="M14.4609 80.991C14.4609 81.3504 14.1567 81.6546 13.7973 81.6546C13.4378 81.6546 13.1337 81.3504 13.1337 80.991C13.1337 80.6315 13.4378 80.3274 13.7973 80.3274C14.1567 80.3274 14.4609 80.6315 14.4609 80.991Z" fill="white"/>
<path d="M8.73735 81.3225C8.73735 81.682 8.4332 81.9861 8.07375 81.9861C7.7143 81.9861 7.41016 81.682 7.41016 81.3225C7.41016 80.9631 7.7143 80.6589 8.07375 80.6589C8.4332 80.6589 8.73735 80.9631 8.73735 81.3225Z" fill="white"/>
<path d="M4.20274 68.7696C4.20274 69.129 3.89859 69.4331 3.53914 69.4331C3.1797 69.4331 2.87555 69.129 2.87555 68.7696C2.87555 68.4101 3.1797 68.106 3.53914 68.106C3.89859 68.106 4.20274 68.3825 4.20274 68.7696Z" fill="white"/>
<path d="M14.6544 80.9908C14.6544 81.4608 14.2673 81.8755 13.7696 81.8755C13.2996 81.8755 12.8848 81.4884 12.8848 80.9908C12.8848 80.5207 13.2719 80.106 13.7696 80.106C14.2673 80.106 14.6544 80.5207 14.6544 80.9908Z" fill="white"/>
<path d="M23.3364 71.6175C23.3364 71.9769 23.0323 72.2811 22.6728 72.2811C22.3134 72.2811 22.0092 71.9769 22.0092 71.6175C22.0092 71.258 22.3134 70.9539 22.6728 70.9539C23.0323 70.9262 23.3364 71.2304 23.3364 71.6175Z" fill="white"/>
<path d="M49.189 54.6961C49.189 55.0555 48.8849 55.3597 48.5254 55.3597C48.166 55.3597 47.8618 55.0555 47.8618 54.6961C47.8618 54.3366 48.166 54.0325 48.5254 54.0325C48.8849 54.0325 49.189 54.3366 49.189 54.6961Z" fill="white"/>
<path d="M72.1659 47.0923C72.1659 47.4518 71.8618 47.7559 71.5023 47.7559C71.1429 47.7559 70.8387 47.4518 70.8387 47.0923C70.8387 46.7329 71.1429 46.4287 71.5023 46.4287C71.8618 46.4287 72.1659 46.7329 72.1659 47.0923Z" fill="white"/>
<path d="M94.2305 54.2536C94.2305 54.4748 94.0369 54.6684 93.8157 54.6684C93.5945 54.6684 93.401 54.4748 93.401 54.2536C93.401 54.0324 93.5945 53.8389 93.8157 53.8389C94.0369 53.8389 94.2305 54.0048 94.2305 54.2536Z" fill="white"/>
<path d="M93.9539 64.9263C94.3204 64.9263 94.6175 64.6292 94.6175 64.2627C94.6175 63.8962 94.3204 63.5991 93.9539 63.5991C93.5874 63.5991 93.2903 63.8962 93.2903 64.2627C93.2903 64.6292 93.5874 64.9263 93.9539 64.9263Z" fill="white"/>
<path d="M89.2258 37.9678C89.2258 38.3272 88.9217 38.6314 88.5622 38.6314C88.2028 38.6314 87.8986 38.3272 87.8986 37.9678C87.8986 37.6083 88.2028 37.3042 88.5622 37.3042C88.9217 37.3042 89.2258 37.6083 89.2258 37.9678Z" fill="white"/>
<path d="M72.1659 47.0923C72.1659 47.4518 71.8618 47.7559 71.5023 47.7559C71.1429 47.7559 70.8387 47.4518 70.8387 47.0923C70.8387 46.7329 71.1429 46.4287 71.5023 46.4287C71.8618 46.4287 72.1659 46.7329 72.1659 47.0923Z" fill="white"/>
<path d="M85.2166 52.9817C85.2166 53.3412 84.9124 53.6453 84.553 53.6453C84.1936 53.6453 83.8894 53.3412 83.8894 52.9817C83.8894 52.6223 84.1936 52.3181 84.553 52.3181C84.9124 52.3181 85.2166 52.6223 85.2166 52.9817Z" fill="white"/>
<path d="M93.4286 48.5852C93.4286 48.9447 93.1245 49.2488 92.765 49.2488C92.4056 49.2488 92.1014 48.9447 92.1014 48.5852C92.1014 48.2258 92.4056 47.9216 92.765 47.9216C93.1245 47.9216 93.4286 48.1981 93.4286 48.5852Z" fill="white"/>
<path d="M89.2258 37.9678C89.2258 38.3272 88.9217 38.6314 88.5622 38.6314C88.2028 38.6314 87.8986 38.3272 87.8986 37.9678C87.8986 37.6083 88.2028 37.3042 88.5622 37.3042C88.9217 37.3042 89.2258 37.6083 89.2258 37.9678Z" fill="white"/>
<path d="M85.2166 52.9817C85.2166 53.3412 84.9124 53.6453 84.553 53.6453C84.1936 53.6453 83.8894 53.3412 83.8894 52.9817C83.8894 52.6223 84.1936 52.3181 84.553 52.3181C84.9124 52.3181 85.2166 52.6223 85.2166 52.9817Z" fill="white"/>
<path d="M53.6683 29.6729C53.6683 30.0324 53.3641 30.3365 53.0047 30.3365C52.6452 30.3365 52.3411 30.0324 52.3411 29.6729C52.3411 29.3135 52.6452 29.0093 53.0047 29.0093C53.3641 28.9817 53.6683 29.2858 53.6683 29.6729Z" fill="white"/>
<path d="M89.2258 37.9678C89.2258 38.3272 88.9217 38.6314 88.5622 38.6314C88.2028 38.6314 87.8986 38.3272 87.8986 37.9678C87.8986 37.6083 88.2028 37.3042 88.5622 37.3042C88.9217 37.3042 89.2258 37.6083 89.2258 37.9678Z" fill="white"/>
<path d="M72.1659 47.0923C72.1659 47.4518 71.8618 47.7559 71.5023 47.7559C71.1429 47.7559 70.8387 47.4518 70.8387 47.0923C70.8387 46.7329 71.1429 46.4287 71.5023 46.4287C71.8618 46.4287 72.1659 46.7329 72.1659 47.0923Z" fill="white"/>
<path d="M71.6129 20.1614C71.6129 20.5208 71.3087 20.825 70.9493 20.825C70.5899 20.825 70.2857 20.5208 70.2857 20.1614C70.2857 19.802 70.5899 19.4978 70.9493 19.4978C71.3087 19.4978 71.6129 19.7743 71.6129 20.1614Z" fill="white"/>
<path d="M82.0923 28.2905C82.0923 28.5946 81.8434 28.8158 81.5669 28.8158C81.2628 28.8158 81.0416 28.567 81.0416 28.2905C81.0416 28.014 81.2904 27.7651 81.5669 27.7651C81.8434 27.7651 82.0923 28.014 82.0923 28.2905Z" fill="white"/>
<path d="M57.2904 19.9678C57.6569 19.9678 57.954 19.6707 57.954 19.3042C57.954 18.9377 57.6569 18.6406 57.2904 18.6406C56.9239 18.6406 56.6268 18.9377 56.6268 19.3042C56.6268 19.6707 56.9239 19.9678 57.2904 19.9678Z" fill="white"/>
<path d="M60 15.5438C60 15.9032 59.6959 16.2074 59.3364 16.2074C58.977 16.2074 58.6729 15.9032 58.6729 15.5438C58.6729 15.1843 58.977 14.8802 59.3364 14.8802C59.6959 14.8525 60 15.1567 60 15.5438Z" fill="white"/>
<path d="M66.2765 23.037C66.5056 23.037 66.6912 22.8513 66.6912 22.6223C66.6912 22.3932 66.5056 22.2075 66.2765 22.2075C66.0474 22.2075 65.8618 22.3932 65.8618 22.6223C65.8618 22.8513 66.0474 23.037 66.2765 23.037Z" fill="white"/>
<path d="M71.4194 24.3917C71.4194 24.6129 71.2535 24.7788 71.0323 24.7788C70.8111 24.7788 70.6452 24.6129 70.6452 24.3917C70.6452 24.1705 70.8111 24.0046 71.0323 24.0046C71.2535 24.0046 71.4194 24.1982 71.4194 24.3917Z" fill="white"/>
<path d="M71.1705 34.2903C71.3843 34.2903 71.5576 34.117 71.5576 33.9032C71.5576 33.6894 71.3843 33.5161 71.1705 33.5161C70.9568 33.5161 70.7834 33.6894 70.7834 33.9032C70.7834 34.117 70.9568 34.2903 71.1705 34.2903Z" fill="white"/>
<path d="M71.1152 29.1475C71.329 29.1475 71.5023 28.9742 71.5023 28.7604C71.5023 28.5466 71.329 28.3733 71.1152 28.3733C70.9015 28.3733 70.7281 28.5466 70.7281 28.7604C70.7281 28.9742 70.9015 29.1475 71.1152 29.1475Z" fill="white"/>
<path d="M77.6959 35.8386C77.9097 35.8386 78.083 35.6653 78.083 35.4515C78.083 35.2378 77.9097 35.0645 77.6959 35.0645C77.4822 35.0645 77.3088 35.2378 77.3088 35.4515C77.3088 35.6653 77.4822 35.8386 77.6959 35.8386Z" fill="white"/>
<path d="M82.5346 36.9448C82.7484 36.9448 82.9217 36.7715 82.9217 36.5577C82.9217 36.344 82.7484 36.1707 82.5346 36.1707C82.3208 36.1707 82.1475 36.344 82.1475 36.5577C82.1475 36.7715 82.3208 36.9448 82.5346 36.9448Z" fill="white"/>
<path d="M83.5023 40.8988C83.5023 41.12 83.3364 41.2859 83.1152 41.2859C82.894 41.2859 82.7281 41.12 82.7281 40.8988C82.7281 40.6776 82.894 40.5117 83.1152 40.5117C83.3364 40.5117 83.5023 40.6776 83.5023 40.8988Z" fill="white"/>
<path d="M84.3316 51.5437C84.5454 51.5437 84.7187 51.3704 84.7187 51.1566C84.7187 50.9428 84.5454 50.7695 84.3316 50.7695C84.1178 50.7695 83.9445 50.9428 83.9445 51.1566C83.9445 51.3704 84.1178 51.5437 84.3316 51.5437Z" fill="white"/>
<path d="M86.9586 51.931C86.9586 52.1522 86.7927 52.3181 86.5715 52.3181C86.3503 52.3181 86.1844 52.1522 86.1844 51.931C86.1844 51.7098 86.3503 51.5439 86.5715 51.5439C86.7927 51.5439 86.9586 51.7098 86.9586 51.931Z" fill="white"/>
<path d="M76.4517 58.4563C76.6655 58.4563 76.8388 58.283 76.8388 58.0692C76.8388 57.8554 76.6655 57.6821 76.4517 57.6821C76.2379 57.6821 76.0646 57.8554 76.0646 58.0692C76.0646 58.283 76.2379 58.4563 76.4517 58.4563Z" fill="white"/>
<path d="M86.3502 65.8111C86.564 65.8111 86.7373 65.6378 86.7373 65.424C86.7373 65.2102 86.564 65.0369 86.3502 65.0369C86.1364 65.0369 85.9631 65.2102 85.9631 65.424C85.9631 65.6378 86.1364 65.8111 86.3502 65.8111Z" fill="white"/>
<path d="M87.4839 70.5946C87.4839 70.8158 87.318 70.9817 87.0968 70.9817C86.8756 70.9817 86.7097 70.8158 86.7097 70.5946C86.7097 70.3734 86.8756 70.2075 87.0968 70.2075C87.318 70.2075 87.4839 70.3734 87.4839 70.5946Z" fill="white"/>
<path d="M75.7051 77.0093C75.9189 77.0093 76.0922 76.836 76.0922 76.6222C76.0922 76.4084 75.9189 76.2351 75.7051 76.2351C75.4913 76.2351 75.318 76.4084 75.318 76.6222C75.318 76.836 75.4913 77.0093 75.7051 77.0093Z" fill="white"/>
<path d="M68.9309 78.5022C69.1446 78.5022 69.318 78.3289 69.318 78.1151C69.318 77.9013 69.1446 77.728 68.9309 77.728C68.7171 77.728 68.5438 77.9013 68.5438 78.1151C68.5438 78.3289 68.7171 78.5022 68.9309 78.5022Z" fill="white"/>
<path d="M56.2949 95.7283C56.5087 95.7283 56.682 95.555 56.682 95.3412C56.682 95.1274 56.5087 94.9541 56.2949 94.9541C56.0811 94.9541 55.9078 95.1274 55.9078 95.3412C55.9078 95.555 56.0811 95.7283 56.2949 95.7283Z" fill="white"/>
<path d="M54.9677 90.5576C55.1815 90.5576 55.3548 90.3843 55.3548 90.1705C55.3548 89.9568 55.1815 89.7834 54.9677 89.7834C54.7539 89.7834 54.5806 89.9568 54.5806 90.1705C54.5806 90.3843 54.7539 90.5576 54.9677 90.5576Z" fill="white"/>
<path d="M43.4931 90.9724C43.7068 90.9724 43.8801 90.7991 43.8801 90.5853C43.8801 90.3715 43.7068 90.1982 43.4931 90.1982C43.2793 90.1982 43.106 90.3715 43.106 90.5853C43.106 90.7991 43.2793 90.9724 43.4931 90.9724Z" fill="white"/>
<path d="M33.8433 97.2213C33.8433 97.4425 33.6774 97.6084 33.4562 97.6084C33.235 97.6084 33.0692 97.4425 33.0692 97.2213C33.0692 97.0001 33.235 96.8342 33.4562 96.8342C33.6774 96.8342 33.8433 97.0278 33.8433 97.2213Z" fill="white"/>
<path d="M27.5392 95.9495C27.753 95.9495 27.9263 95.7762 27.9263 95.5624C27.9263 95.3486 27.753 95.1753 27.5392 95.1753C27.3254 95.1753 27.1521 95.3486 27.1521 95.5624C27.1521 95.7762 27.3254 95.9495 27.5392 95.9495Z" fill="white"/>
<path d="M33.8986 91.3042C34.1124 91.3042 34.2857 91.1309 34.2857 90.9171C34.2857 90.7033 34.1124 90.53 33.8986 90.53C33.6848 90.53 33.5115 90.7033 33.5115 90.9171C33.5115 91.1309 33.6848 91.3042 33.8986 91.3042Z" fill="white"/>
<path d="M14.682 85.5808C14.8958 85.5808 15.0691 85.4075 15.0691 85.1937C15.0691 84.9799 14.8958 84.8066 14.682 84.8066C14.4682 84.8066 14.2949 84.9799 14.2949 85.1937C14.2949 85.4075 14.4682 85.5808 14.682 85.5808Z" fill="white"/>
<path d="M13.1613 84.8618C13.3751 84.8618 13.5484 84.6885 13.5484 84.4748C13.5484 84.261 13.3751 84.0876 13.1613 84.0876C12.9475 84.0876 12.7742 84.261 12.7742 84.4748C12.7742 84.6885 12.9475 84.8618 13.1613 84.8618Z" fill="white"/>
<path d="M12.0553 81.4885C12.2691 81.4885 12.4424 81.3152 12.4424 81.1015C12.4424 80.8877 12.2691 80.7144 12.0553 80.7144C11.8415 80.7144 11.6682 80.8877 11.6682 81.1015C11.6682 81.3152 11.8415 81.4885 12.0553 81.4885Z" fill="white"/>
<path d="M11.3088 77.7006C11.3088 77.9218 11.1429 78.0877 10.9217 78.0877C10.7005 78.0877 10.5346 77.9218 10.5346 77.7006C10.5346 77.4794 10.7005 77.3135 10.9217 77.3135C11.1153 77.3135 11.3088 77.4794 11.3088 77.7006Z" fill="white"/>
<path d="M8.23964 69.8758C8.45342 69.8758 8.62673 69.7024 8.62673 69.4887C8.62673 69.2749 8.45342 69.1016 8.23964 69.1016C8.02585 69.1016 7.85254 69.2749 7.85254 69.4887C7.85254 69.7024 8.02585 69.8758 8.23964 69.8758Z" fill="white"/>
<path d="M7.54835 67.6084C7.76214 67.6084 7.93545 67.4351 7.93545 67.2213C7.93545 67.0075 7.76214 66.8342 7.54835 66.8342C7.33456 66.8342 7.16125 67.0075 7.16125 67.2213C7.16125 67.4351 7.33456 67.6084 7.54835 67.6084Z" fill="white"/>
<path d="M23.7512 80.4655C23.7512 80.6867 23.5853 80.8526 23.3641 80.8526C23.1429 80.8526 22.977 80.6867 22.977 80.4655C22.977 80.2443 23.1429 80.0784 23.3641 80.0784C23.5853 80.0784 23.7512 80.2443 23.7512 80.4655Z" fill="white"/>
<path d="M15.9816 64.5669C16.1954 64.5669 16.3687 64.3936 16.3687 64.1798C16.3687 63.966 16.1954 63.7927 15.9816 63.7927C15.7678 63.7927 15.5945 63.966 15.5945 64.1798C15.5945 64.3936 15.7678 64.5669 15.9816 64.5669Z" fill="white"/>
<path d="M6.33181 62.1613C6.33181 62.3825 6.16591 62.5484 5.94471 62.5484C5.72351 62.5484 5.55762 62.3825 5.55762 62.1613C5.55762 61.9401 5.72351 61.7742 5.94471 61.7742C6.13826 61.7742 6.33181 61.9401 6.33181 62.1613Z" fill="white"/>
<path d="M9.3733 44.1614C9.58709 44.1614 9.7604 43.9881 9.7604 43.7743C9.7604 43.5605 9.58709 43.3872 9.3733 43.3872C9.15952 43.3872 8.98621 43.5605 8.98621 43.7743C8.98621 43.9881 9.15952 44.1614 9.3733 44.1614Z" fill="white"/>
<path d="M17.5023 32.4102C17.7161 32.4102 17.8894 32.2369 17.8894 32.0231C17.8894 31.8093 17.7161 31.636 17.5023 31.636C17.2885 31.636 17.1152 31.8093 17.1152 32.0231C17.1152 32.2369 17.2885 32.4102 17.5023 32.4102Z" fill="white"/>
<path d="M10.0922 39.129C10.0922 39.3502 9.92629 39.5161 9.70509 39.5161C9.48389 39.5161 9.31799 39.3502 9.31799 39.129C9.31799 38.9078 9.48389 38.7419 9.70509 38.7419C9.92629 38.7419 10.0922 38.9078 10.0922 39.129Z" fill="white"/>
<path d="M20.9585 29.2305C21.1723 29.2305 21.3456 29.0572 21.3456 28.8434C21.3456 28.6296 21.1723 28.4563 20.9585 28.4563C20.7447 28.4563 20.5714 28.6296 20.5714 28.8434C20.5714 29.0572 20.7447 29.2305 20.9585 29.2305Z" fill="white"/>
<path d="M14.7097 34.9816C14.7097 35.2028 14.5438 35.3687 14.3226 35.3687C14.1014 35.3687 13.9355 35.2028 13.9355 34.9816C13.9355 34.7604 14.1014 34.5945 14.3226 34.5945C14.5438 34.5945 14.7097 34.7604 14.7097 34.9816Z" fill="white"/>
<path d="M35.5299 22.1798C35.5299 22.401 35.364 22.5669 35.1428 22.5669C34.9216 22.5669 34.7557 22.401 34.7557 22.1798C34.7557 21.9586 34.9216 21.7927 35.1428 21.7927C35.364 21.7927 35.5299 21.9586 35.5299 22.1798Z" fill="white"/>
<path d="M36.9124 19.1659C36.9124 19.3871 36.7465 19.553 36.5253 19.553C36.3041 19.553 36.1382 19.3871 36.1382 19.1659C36.1382 18.9447 36.3041 18.7788 36.5253 18.7788C36.7465 18.7788 36.9124 18.9447 36.9124 19.1659Z" fill="white"/>
<path d="M30.4148 20.659C30.6286 20.659 30.8019 20.4857 30.8019 20.2719C30.8019 20.0581 30.6286 19.8848 30.4148 19.8848C30.201 19.8848 30.0277 20.0581 30.0277 20.2719C30.0277 20.4857 30.201 20.659 30.4148 20.659Z" fill="white"/>
<path d="M28.2857 22.5945C28.4995 22.5945 28.6728 22.4212 28.6728 22.2074C28.6728 21.9936 28.4995 21.8203 28.2857 21.8203C28.0719 21.8203 27.8986 21.9936 27.8986 22.2074C27.8986 22.4212 28.0719 22.5945 28.2857 22.5945Z" fill="white"/>
<path d="M31.6036 19.4978C31.8174 19.4978 31.9907 19.3245 31.9907 19.1107C31.9907 18.8969 31.8174 18.7236 31.6036 18.7236C31.3899 18.7236 31.2166 18.8969 31.2166 19.1107C31.2166 19.3245 31.3899 19.4978 31.6036 19.4978Z" fill="white"/>
<path d="M48.8018 19.2211C48.8018 19.4423 48.6359 19.6082 48.4147 19.6082C48.1936 19.6082 48.0276 19.4423 48.0276 19.2211C48.0276 18.9999 48.1936 18.834 48.4147 18.834C48.6359 18.834 48.8018 18.9999 48.8018 19.2211Z" fill="white"/>
<path d="M40.4793 37.7465C40.4793 37.9677 40.3134 38.1336 40.0922 38.1336C39.871 38.1336 39.7051 37.9677 39.7051 37.7465C39.7051 37.5253 39.871 37.3594 40.0922 37.3594C40.3134 37.3594 40.4793 37.5253 40.4793 37.7465Z" fill="white"/>
<path d="M35.3364 41.0645C35.5502 41.0645 35.7235 40.8912 35.7235 40.6774C35.7235 40.4636 35.5502 40.2903 35.3364 40.2903C35.1226 40.2903 34.9493 40.4636 34.9493 40.6774C34.9493 40.8912 35.1226 41.0645 35.3364 41.0645Z" fill="white"/>
<path d="M51.3456 40.9262C51.3456 41.1474 51.1797 41.3133 50.9585 41.3133C50.7373 41.3133 50.5714 41.1474 50.5714 40.9262C50.5714 40.705 50.7373 40.5391 50.9585 40.5391C51.1797 40.5391 51.3456 40.705 51.3456 40.9262Z" fill="white"/>
<path d="M58.424 17.5623C58.6377 17.5623 58.8111 17.389 58.8111 17.1752C58.8111 16.9614 58.6377 16.7881 58.424 16.7881C58.2102 16.7881 58.0369 16.9614 58.0369 17.1752C58.0369 17.389 58.2102 17.5623 58.424 17.5623Z" fill="white"/>
<path d="M71.6129 20.1614C71.6129 20.5208 71.3087 20.825 70.9493 20.825C70.5899 20.825 70.2857 20.5208 70.2857 20.1614C70.2857 19.802 70.5899 19.4978 70.9493 19.4978C71.3087 19.4978 71.6129 19.7743 71.6129 20.1614Z" fill="white"/>
<path d="M46.9217 14.2996C46.9217 14.659 46.6175 14.9632 46.2581 14.9632C45.8986 14.9632 45.5945 14.659 45.5945 14.2996C45.5945 13.9401 45.8986 13.636 46.2581 13.636C46.6175 13.636 46.9217 13.9401 46.9217 14.2996Z" fill="white"/>
<path d="M57.2904 19.9678C57.6569 19.9678 57.954 19.6707 57.954 19.3042C57.954 18.9377 57.6569 18.6406 57.2904 18.6406C56.9239 18.6406 56.6268 18.9377 56.6268 19.3042C56.6268 19.6707 56.9239 19.9678 57.2904 19.9678Z" fill="white"/>
<path d="M71.9448 20.1612C71.9448 20.7142 71.5024 21.1843 70.9217 21.1843C70.3687 21.1843 69.8987 20.7419 69.8987 20.1612C69.8987 19.6082 70.3411 19.1382 70.9217 19.1382C71.5024 19.1382 71.9448 19.5806 71.9448 20.1612Z" fill="white"/>
<path d="M53.6683 29.6729C53.6683 30.0324 53.3641 30.3365 53.0047 30.3365C52.6452 30.3365 52.3411 30.0324 52.3411 29.6729C52.3411 29.3135 52.6452 29.0093 53.0047 29.0093C53.3641 28.9817 53.6683 29.2858 53.6683 29.6729Z" fill="white"/>
<path d="M73.0763 48.7925C74.0151 47.9185 74.0676 46.4488 73.1936 45.51C72.3195 44.5712 70.8499 44.5187 69.9111 45.3927C68.9723 46.2668 68.9197 47.7364 69.7938 48.6752C70.6678 49.6141 72.1375 49.6666 73.0763 48.7925Z" fill="white"/>
<path d="M29.5299 35.1751C29.8964 35.1751 30.1935 34.878 30.1935 34.5115C30.1935 34.145 29.8964 33.8479 29.5299 33.8479C29.1634 33.8479 28.8663 34.145 28.8663 34.5115C28.8663 34.878 29.1634 35.1751 29.5299 35.1751Z" fill="white"/>
<path d="M49.189 54.6961C49.189 55.0555 48.8849 55.3597 48.5254 55.3597C48.166 55.3597 47.8618 55.0555 47.8618 54.6961C47.8618 54.3366 48.166 54.0325 48.5254 54.0325C48.8849 54.0325 49.189 54.3366 49.189 54.6961Z" fill="white"/>
<path d="M53.6683 29.6729C53.6683 30.0324 53.3641 30.3365 53.0047 30.3365C52.6452 30.3365 52.3411 30.0324 52.3411 29.6729C52.3411 29.3135 52.6452 29.0093 53.0047 29.0093C53.3641 28.9817 53.6683 29.2858 53.6683 29.6729Z" fill="white"/>
<path d="M25.1337 47.4517C25.1337 47.8111 24.8296 48.1153 24.4701 48.1153C24.1107 48.1153 23.8065 47.8111 23.8065 47.4517C23.8065 47.0922 24.1107 46.7881 24.4701 46.7881C24.8296 46.7881 25.1337 47.0922 25.1337 47.4517Z" fill="white"/>
<path d="M32.1014 58.9263C32.4679 58.9263 32.765 58.6292 32.765 58.2627C32.765 57.8962 32.4679 57.5991 32.1014 57.5991C31.7349 57.5991 31.4378 57.8962 31.4378 58.2627C31.4378 58.6292 31.7349 58.9263 32.1014 58.9263Z" fill="white"/>
<path d="M50.3226 54.6959C50.3226 55.6913 49.5208 56.4932 48.5254 56.4932C47.53 56.4932 46.7281 55.6913 46.7281 54.6959C46.7281 53.7005 47.53 52.8987 48.5254 52.8987C49.5208 52.8987 50.3226 53.7005 50.3226 54.6959Z" fill="white"/>
<path d="M25.1337 47.4517C25.1337 47.8111 24.8296 48.1153 24.4701 48.1153C24.1107 48.1153 23.8065 47.8111 23.8065 47.4517C23.8065 47.0922 24.1107 46.7881 24.4701 46.7881C24.8296 46.7881 25.1337 47.0922 25.1337 47.4517Z" fill="white"/>
<path d="M23.3364 71.6175C23.3364 71.9769 23.0323 72.2811 22.6728 72.2811C22.3134 72.2811 22.0092 71.9769 22.0092 71.6175C22.0092 71.258 22.3134 70.9539 22.6728 70.9539C23.0323 70.9262 23.3364 71.2304 23.3364 71.6175Z" fill="white"/>
<path d="M32.1014 59.1752C32.6053 59.1752 33.0139 58.7667 33.0139 58.2628C33.0139 57.7589 32.6053 57.3503 32.1014 57.3503C31.5975 57.3503 31.189 57.7589 31.189 58.2628C31.189 58.7667 31.5975 59.1752 32.1014 59.1752Z" fill="white"/>
<path d="M4.20274 68.7696C4.20274 69.129 3.89859 69.4331 3.53914 69.4331C3.1797 69.4331 2.87555 69.129 2.87555 68.7696C2.87555 68.4101 3.1797 68.106 3.53914 68.106C3.89859 68.106 4.20274 68.3825 4.20274 68.7696Z" fill="white"/>
<path d="M24.6413 72.0674C24.8983 70.9827 24.2272 69.895 23.1424 69.638C22.0577 69.3811 20.97 70.0522 20.7131 71.1369C20.4561 72.2217 21.1272 73.3094 22.2119 73.5663C23.2967 73.8233 24.3844 73.1522 24.6413 72.0674Z" fill="white"/>
<path d="M8.93089 55.6084C8.93089 55.9679 8.62674 56.272 8.26729 56.272C7.90785 56.272 7.6037 55.9679 7.6037 55.6084C7.6037 55.249 7.90785 54.9448 8.26729 54.9448C8.62674 54.9448 8.93089 55.249 8.93089 55.6084Z" fill="white"/>
<path d="M3.81565 54.0047C3.81565 54.3641 3.51151 54.6683 3.15206 54.6683C2.79261 54.6683 2.48846 54.3641 2.48846 54.0047C2.48846 53.6452 2.79261 53.3411 3.15206 53.3411C3.51151 53.3411 3.81565 53.6176 3.81565 54.0047Z" fill="white"/>
<path d="M4.20274 68.7696C4.20274 69.129 3.89859 69.4331 3.53914 69.4331C3.1797 69.4331 2.87555 69.129 2.87555 68.7696C2.87555 68.4101 3.1797 68.106 3.53914 68.106C3.89859 68.106 4.20274 68.3825 4.20274 68.7696Z" fill="white"/>
<path d="M8.93089 55.6084C8.93089 55.9679 8.62674 56.272 8.26729 56.272C7.90785 56.272 7.6037 55.9679 7.6037 55.6084C7.6037 55.249 7.90785 54.9448 8.26729 54.9448C8.62674 54.9448 8.93089 55.249 8.93089 55.6084Z" fill="white"/>
<path d="M25.1337 47.4517C25.1337 47.8111 24.8296 48.1153 24.4701 48.1153C24.1107 48.1153 23.8065 47.8111 23.8065 47.4517C23.8065 47.0922 24.1107 46.7881 24.4701 46.7881C24.8296 46.7881 25.1337 47.0922 25.1337 47.4517Z" fill="white"/>
<path d="M6.35941 42.8343C6.35941 43.1937 6.05527 43.4978 5.69582 43.4978C5.33637 43.4978 5.03223 43.1937 5.03223 42.8343C5.03223 42.4748 5.33637 42.1707 5.69582 42.1707C6.05527 42.1707 6.35941 42.4472 6.35941 42.8343Z" fill="white"/>
<path d="M8.93089 55.6084C8.93089 55.9679 8.62674 56.272 8.26729 56.272C7.90785 56.272 7.6037 55.9679 7.6037 55.6084C7.6037 55.249 7.90785 54.9448 8.26729 54.9448C8.62674 54.9448 8.93089 55.249 8.93089 55.6084Z" fill="white"/>
<path d="M6.35941 42.8343C6.35941 43.1937 6.05527 43.4978 5.69582 43.4978C5.33637 43.4978 5.03223 43.1937 5.03223 42.8343C5.03223 42.4748 5.33637 42.1707 5.69582 42.1707C6.05527 42.1707 6.35941 42.4472 6.35941 42.8343Z" fill="white"/>
<path d="M13.659 37.3594C14.0255 37.3594 14.3226 37.0623 14.3226 36.6958C14.3226 36.3293 14.0255 36.0322 13.659 36.0322C13.2925 36.0322 12.9954 36.3293 12.9954 36.6958C12.9954 37.0623 13.2925 37.3594 13.659 37.3594Z" fill="white"/>
<path d="M10.0922 35.6452C10.3823 35.6452 10.6175 35.41 10.6175 35.1198C10.6175 34.8297 10.3823 34.5945 10.0922 34.5945C9.80204 34.5945 9.56683 34.8297 9.56683 35.1198C9.56683 35.41 9.80204 35.6452 10.0922 35.6452Z" fill="white"/>
<path d="M25.9908 47.4516C25.9908 48.2811 25.2996 48.9724 24.4701 48.9724C23.6406 48.9724 22.9493 48.2811 22.9493 47.4516C22.9493 46.6222 23.6406 45.9309 24.4701 45.9309C25.2996 45.9309 25.9908 46.6222 25.9908 47.4516Z" fill="white"/>
<path d="M29.5299 35.1751C29.8964 35.1751 30.1935 34.878 30.1935 34.5115C30.1935 34.145 29.8964 33.8479 29.5299 33.8479C29.1634 33.8479 28.8663 34.145 28.8663 34.5115C28.8663 34.878 29.1634 35.1751 29.5299 35.1751Z" fill="white"/>
<path d="M53.6683 29.6729C53.6683 30.0324 53.3641 30.3365 53.0047 30.3365C52.6452 30.3365 52.3411 30.0324 52.3411 29.6729C52.3411 29.3135 52.6452 29.0093 53.0047 29.0093C53.3641 28.9817 53.6683 29.2858 53.6683 29.6729Z" fill="white"/>
<path d="M57.2903 20.2167C57.7942 20.2167 58.2028 19.8082 58.2028 19.3043C58.2028 18.8004 57.7942 18.3918 57.2903 18.3918C56.7864 18.3918 56.3779 18.8004 56.3779 19.3043C56.3779 19.8082 56.7864 20.2167 57.2903 20.2167Z" fill="white"/>
<path d="M27.9263 19.8018C28.2928 19.8018 28.5899 19.5047 28.5899 19.1382C28.5899 18.7717 28.2928 18.4746 27.9263 18.4746C27.5598 18.4746 27.2627 18.7717 27.2627 19.1382C27.2627 19.5047 27.5598 19.8018 27.9263 19.8018Z" fill="white"/>
<path d="M29.5299 35.1751C29.8964 35.1751 30.1935 34.878 30.1935 34.5115C30.1935 34.145 29.8964 33.8479 29.5299 33.8479C29.1634 33.8479 28.8663 34.145 28.8663 34.5115C28.8663 34.878 29.1634 35.1751 29.5299 35.1751Z" fill="white"/>
<path d="M17.4194 26.8803C17.679 26.8803 17.8894 26.6698 17.8894 26.4102C17.8894 26.1506 17.679 25.9402 17.4194 25.9402C17.1598 25.9402 16.9493 26.1506 16.9493 26.4102C16.9493 26.6698 17.1598 26.8803 17.4194 26.8803Z" fill="white"/>
<path d="M27.9263 19.8018C28.2928 19.8018 28.5899 19.5047 28.5899 19.1382C28.5899 18.7717 28.2928 18.4746 27.9263 18.4746C27.5598 18.4746 27.2627 18.7717 27.2627 19.1382C27.2627 19.5047 27.5598 19.8018 27.9263 19.8018Z" fill="white"/>
<path d="M29.5299 35.1751C29.8964 35.1751 30.1935 34.878 30.1935 34.5115C30.1935 34.145 29.8964 33.8479 29.5299 33.8479C29.1634 33.8479 28.8663 34.145 28.8663 34.5115C28.8663 34.878 29.1634 35.1751 29.5299 35.1751Z" fill="white"/>
<path d="M38.9309 15.3779C38.9309 15.7374 38.6267 16.0415 38.2673 16.0415C37.9078 16.0415 37.6037 15.7374 37.6037 15.3779C37.6037 15.0185 37.9078 14.7144 38.2673 14.7144C38.6267 14.7144 38.9309 15.0185 38.9309 15.3779Z" fill="white"/>
<path d="M54.1936 29.6729C54.1936 30.3365 53.6406 30.8895 52.977 30.8895C52.3134 30.8895 51.7604 30.3365 51.7604 29.6729C51.7604 29.0093 52.3134 28.4563 52.977 28.4563C53.6682 28.4563 54.1936 28.9816 54.1936 29.6729Z" fill="white"/>
<path d="M46.9217 14.2996C46.9217 14.659 46.6175 14.9632 46.2581 14.9632C45.8986 14.9632 45.5945 14.659 45.5945 14.2996C45.5945 13.9401 45.8986 13.636 46.2581 13.636C46.6175 13.636 46.9217 13.9401 46.9217 14.2996Z" fill="white"/>
<path d="M27.9263 20.1059C28.4608 20.1059 28.894 19.6726 28.894 19.1382C28.894 18.6037 28.4608 18.1704 27.9263 18.1704C27.3918 18.1704 26.9586 18.6037 26.9586 19.1382C26.9586 19.6726 27.3918 20.1059 27.9263 20.1059Z" fill="white"/>
</g>
<path d="M20.2857 60.0875C20.2857 81.0141 37.6889 97.9725 59.1369 97.9725C70.3792 97.9725 80.5321 93.2648 87.6416 85.7919C79.0929 98.3074 64.5022 106.566 47.9273 106.566C21.6196 106.566 0.25 85.7217 0.25 60.0875C0.25 34.4533 21.6196 13.6094 47.9273 13.6094C64.4877 13.6094 79.0672 21.8531 87.6192 34.3501C80.5288 26.8963 70.4227 22.2022 59.1369 22.2022C37.6889 22.2022 20.2857 39.1609 20.2857 60.0875Z" fill="white" stroke="#DD3927" stroke-width="0.5"/>
<path d="M42.7363 51.8902V72.2667H37.1257V51.8902H42.7363ZM36.7762 46.5795C36.7762 45.7885 37.061 45.1357 37.6305 44.6209C38.1999 44.1063 38.9636 43.8489 39.9213 43.8489C40.8661 43.8489 41.6232 44.1063 42.1928 44.6209C42.7752 45.1357 43.0663 45.7885 43.0663 46.5795C43.0663 47.3704 42.7752 48.0234 42.1928 48.5381C41.6232 49.0528 40.8661 49.3102 39.9213 49.3102C38.9636 49.3102 38.1999 49.0528 37.6305 48.5381C37.061 48.0234 36.7762 47.3704 36.7762 46.5795ZM61.4825 44.8469V72.2667H55.6583V44.8469H61.4825ZM72.7427 56.5606V60.9674H59.8906V56.5606H72.7427ZM74.1012 44.8469V49.2725H59.8906V44.8469H74.1012ZM119.67 51.8902V72.2667H114.06V51.8902H119.67ZM113.71 46.5795C113.71 45.7885 113.994 45.1357 114.564 44.6209C115.133 44.1063 115.898 43.8489 116.855 43.8489C117.8 43.8489 118.557 44.1063 119.126 44.6209C119.709 45.1357 120 45.7885 120 46.5795C120 47.3704 119.709 48.0234 119.126 48.5381C118.557 49.0528 117.8 49.3102 116.855 49.3102C115.898 49.3102 115.133 49.0528 114.564 48.5381C113.994 48.0234 113.71 47.3704 113.71 46.5795Z" fill="white"/>
<path d="M94.03 69.4198C94.787 69.4198 95.4591 69.2901 96.0443 69.0307C96.6306 68.7583 97.0881 68.3821 97.4168 67.9022C97.7592 67.4094 97.9377 66.8322 97.9523 66.1708H103.761C103.747 67.6494 103.311 68.9658 102.453 70.1202C101.596 71.2616 100.446 72.163 99.0029 72.8245C97.5592 73.473 95.9448 73.7973 94.1588 73.7973C92.358 73.7973 90.7866 73.5249 89.4434 72.9801C88.1138 72.4354 87.0066 71.6831 86.1209 70.7233C85.2352 69.7505 84.5709 68.6221 84.128 67.338C83.6842 66.041 83.4628 64.6532 83.4628 63.1746V62.6104C83.4628 61.1188 83.6842 59.731 84.128 58.4469C84.5709 57.1499 85.2352 56.0215 86.1209 55.0617C87.0066 54.089 88.1138 53.3302 89.4434 52.7854C90.7719 52.2407 92.3298 51.9683 94.1158 51.9683C96.016 51.9683 97.6812 52.2991 99.1092 52.9605C100.553 53.622 101.682 54.5688 102.496 55.801C103.325 57.0202 103.747 58.4664 103.761 60.1395H97.9523C97.9377 59.4391 97.7738 58.8037 97.4597 58.2329C97.1593 57.6622 96.7164 57.2083 96.1302 56.871C95.5586 56.5208 94.8513 56.3458 94.0085 56.3458C93.1082 56.3458 92.3727 56.5208 91.8011 56.871C91.2294 57.2083 90.7866 57.6752 90.4715 58.2719C90.1574 58.8555 89.936 59.5234 89.8072 60.2758C89.6931 61.015 89.6365 61.7932 89.6365 62.6104V63.1746C89.6365 63.9917 89.6931 64.7765 89.8072 65.5287C89.9223 66.281 90.1359 66.949 90.451 67.5327C90.7788 68.1162 91.2294 68.5768 91.8011 68.9139C92.3727 69.2512 93.115 69.4198 94.03 69.4198ZM91.7152 73.3303H96.3662L96.1302 74.4782C96.9447 74.6079 97.688 74.9191 98.3591 75.4121C99.0312 75.9049 99.3668 76.7156 99.3668 77.844C99.3668 78.5314 99.2029 79.154 98.8742 79.7117C98.5601 80.2694 98.0879 80.7493 97.4597 81.1514C96.8306 81.5665 96.0443 81.8777 95.102 82.0853C94.1588 82.3057 93.0731 82.416 91.844 82.416L91.6938 79.3031C92.1512 79.3031 92.5648 79.2448 92.9365 79.1281C93.3082 79.0113 93.6008 78.8297 93.8154 78.5833C94.03 78.3499 94.1373 78.0385 94.1373 77.6494C94.1373 77.2863 94.03 77.0009 93.8154 76.7933C93.6008 76.5859 93.2652 76.4302 92.8087 76.3265C92.3649 76.2227 91.7796 76.1513 91.0509 76.1124L91.7152 73.3303Z" fill="#DD3927"/>
</svg>
