<svg width="129" height="128" fill="none" xmlns="http://www.w3.org/2000/svg"><g opacity=".34" fill="#fff"><path d="M46.638 104.897l-12.05-2.648-18.655-11.544-8.301-11.782-4.88-13.507-.416-15.888 2.737-12.02v-.03l4.701-8.36 7.885-9.372 11.306-7.825 6.753-2.648c.03 0 .06 0 .06.03.03.03 0 .059 0 .089L32.98 11.95l5.207.03 1.844-4.076c0-.03.03-.03.06-.03l8.598-1.16 13.062 3.094.922-1.726c0-.03.06-.03.09-.03l12.495 4.97 11.425 8.747 7.528 10.413 4.522 11.395c0 .03 0 .06-.03.09l-1.933 1.04.862 4.255 2.202.714c.03 0 .03.03.03.06l.119 10.8-1.964 10.027c0 .03-.03.03-.03.03h-.06l-.803-.477-2.707 9.016-8.271 11.186-12.288 9.135c-.03 0-.03.03-.06 0-.03 0-.03-.03-.03-.06l.06-2.231-11.9 6.664h-.06l-23.832-6.992 8.51 7.914c.029.03.029.06 0 .06.148.089.118.089.089.089zm-11.961-2.737l11.752 2.588-8.539-7.944-2.826-.773-.387 6.129zm3.54-5.385l23.713 6.962-2.47-9.819-21.242 2.857zm21.393-2.857l2.44 9.789 8.687-11.276-11.127 1.487zm11.276-1.517l-8.658 11.217 11.722-6.546.179-5.117-3.243.446zm-42.13 1.875l5.802 7.765.387-6.04-6.189-1.725zM16.35 90.824l18.06 11.157-5.802-7.765-12.258-3.392zm57.75 6.338l-.06 2.171 11.455-8.538L74.1 97.162zm.149-5.207l-.179 5.058 11.842-6.605-11.663 1.547zm-39.125 3.124l2.827 1.607 7.735-7.825-10.175.327-.387 5.89zm10.711-6.218l-7.706 7.825 21.362-2.857-1.338-5.385-12.318.417zm-10.77 7.051l2.41.684-2.38-1.339-.03.655zm-6.427-1.785l6.308 1.755.03-.714-9.67-5.474 3.332 4.433zm-3.332-4.582l9.7 5.474.356-5.831-10.056.357zm-9.045 1.13l12.199 3.392-3.392-4.522-8.807 1.13zm41.98-2.23l1.34 5.355 11.246-1.518 3.392-4.403-15.977.565zm16.038-.417l-3.273 4.254 3.154-.416.118-3.838zm.119-.12l-.12 3.928 11.604-1.547-11.484-2.38zm-59.684-4.7l1.31 7.378 8.925-1.13-10.235-6.248zM7.87 79.072l7.914 11.246-2.648-8.033-5.266-3.213zm66.675 8.747l11.663 2.41 3.303-8.896-14.966 6.486zm15.115-6.545l-3.214 8.658 7.885-10.681-4.671 2.023zm-76.375 1.07l2.47 7.498-1.19-6.724-1.28-.773zm22.79-4.938l-10.83 12.02 10.146-.327.684-11.693zm-11.871.565l.922 11.366 10.86-12.02-11.782.654zm-10.265.595l11.068 10.77-.922-11.335-10.146.565zm.744 4.493l9.997 6.1-10.77-10.474.773 4.374zm21.541-5.742l-.714 11.752 10.294-.327 9.849-9.968-19.429-1.457zm19.488 1.517l-9.759 9.878 12.14-.417-2.381-9.461zm.119 0l2.38 9.491L74.1 87.79l-18.268-8.956zm.09-.09l18.327 8.986-1.22-12.377-17.108 3.392zm24.486-4.82l-5.95 13.806 15.113-6.546 3.63-9.758-12.793 2.499zm-7.23 1.429l1.19 12.258 5.89-13.656-7.08 1.398zm-59.952 6.813l1.31.804-.774-4.404-1.696.09 1.16 3.51zM7.84 78.923l5.207 3.154-1.13-3.421-4.077.267zm85.42-7.349l-3.54 9.55 4.7-2.052-1.16-7.498zm-.476-4.165l.565 3.898 1.16 7.497 2.648-8.777-4.373-2.618zM2.93 65.654l4.76 13.15 4.196-.238-1.22-3.69-7.736-9.222zm33.263 11.544l19.399 1.458L37.86 58.989l-3.48 2.291 1.814 15.918zM71.54 60.09L55.89 78.626l17.138-3.362L71.54 60.09zM51.25 50.3l4.522 28.265L71.48 59.941l-20.232-9.64zM10.874 75.115l1.13 3.422 1.667-.09-2.797-3.332zM37.98 58.93l17.673 19.607L51.13 50.3l-13.15 8.63zm-14.668 9.61l-9.373 9.907 10.116-.565-.744-9.342zm-12.526 6.277l3.034 3.6 9.432-9.967-15.293-2.29 2.827 8.657zM23.43 68.54l.774 9.342 11.782-.655-12.555-8.687zm.03-.12l12.615 8.718L34.29 61.34l-10.83 7.082zM71.66 60l1.487 15.234 7.17-1.398 4.76-11.009-13.418-2.826zM2.93 65.417l7.646 9.134-2.767-8.42-4.879-.714zm82.236-2.56l-4.7 10.95 12.763-2.5-.565-3.956-7.498-4.493zm12.11 7.142l.773.446 1.725-8.748-2.499 8.302zm-4.523-2.738l4.433 2.648 2.797-9.342-8.033 1.22.803 5.474zM7.9 66.04l15.322 2.291-7.051-7.825-8.985 3.303.714 2.231zm8.36-5.593l7.051 7.825.804-10.711-7.855 2.886zm7.974-2.916l-.804 10.681 9.908-14.043-9.104 3.362zm9.223-3.332L23.58 68.183l10.68-6.993-.803-6.992zm51.859 8.598l7.29 4.374-.774-5.385-6.516 1.011zM3.02 65.327l4.76.713-.713-2.201-4.047 1.487zm2.261-6.814l-2.41 6.724 4.136-1.517-1.726-5.207zm-2.856-8.658l.387 15.174 2.41-6.694-2.797-8.48zm2.916 8.48l1.755 5.355 8.956-3.303-8.182-9.074-2.53 7.021zm84.586-9.7l-4.7 14.073 6.605-1.011-1.905-13.062zM71.75 59.911l13.299 2.797-3.898-8.717-9.401 5.92zm9.52-5.98l3.868 8.688 4.701-14.103-8.569 5.415zm8.777-5.355l1.905 13.09 8.003-1.22-9.908-11.87zm-56.47 5.653l.774 6.902L37.77 58.9l-4.195-4.671zM7.96 51.224l8.242 9.134 7.944-2.916 1.1-14.906L7.96 51.224zm82.087-2.827l9.908 11.901-2.32-11.246-5.535-1.756-2.053 1.101zm7.736.684l2.202 10.8-.12-10.115-2.082-.684zm-46.444 1.131l20.202 9.61 4.255-17.703-24.457 8.093zm24.576-7.974L71.69 59.822l9.432-5.92-5.207-11.664zM33.636 54.08l4.284 4.76 12.972-8.48-17.256 3.72zM2.455 49.557l2.826 8.599 2.5-6.932-5.326-1.666zm22.88-6.962l-1.101 14.787 9.164-3.362-8.063-11.425zm.119-.06l8.092 11.456 17.406-3.779-25.498-7.676zm50.579-.386l5.207 11.663 8.628-5.415-13.835-6.248zM2.425 49.44l5.356 1.695-2.678-13.388-2.678 11.692zM9.06 38.49L7.93 51.106l17.196-8.658L9.06 38.49zm-3.898-.981l2.648 13.27L8.911 38.43l-3.749-.922zm48.705-2.023L51.25 50.123l24.457-8.093-21.839-6.545zm-28.443 6.932l25.557 7.676-14.013-14.876-11.544 7.2zm11.663-7.29L51.13 50.063l2.618-14.638-11.603-3.481-5.058 3.183zm55.161 12.08l5.355 1.726-.862-4.136-4.493 2.41zm-15.382-4.79l13.002 5.861-.208-1.785-12.794-4.076zm13.597 4.344l-.387 1.517 1.904-1.011-1.517-.506zm-.655-.209l.179 1.518.357-1.339-.536-.178zm.685.09l1.636.506 4.641-2.5-2.499-12.168-3.778 14.162zm-.714-.238l.595.178 3.808-14.251-5.713 3.064 1.31 11.009zM76.063 42.03l13.597 4.344-1.31-10.92-12.287 6.576zm18.387-9.164l2.41 11.723 1.844-.982-4.254-10.74zm-80.66-1.993l11.485 11.425 5.385-13.746-16.87 2.32zM9.06 38.37l16.037 3.957-11.425-11.396-4.225 3.273-.387 4.166zm21.72-9.76l-5.356 13.687 11.484-7.17-6.129-6.516zm23.117 6.755l21.779 6.545-19.637-18.506-2.142 11.96zm2.291-11.99L75.825 41.88l-.298-13.983-19.339-4.523zm26.45 6.188L76.063 41.88l12.258-6.545-.566-4.552-5.117-1.22zm-6.962-1.637l.297 13.865 6.576-12.258-6.873-1.607zM5.222 37.42l3.719.922.357-4.047-4.076 3.125zm4.522-8.004l-4.403 7.706 4.046-3.72.357-3.986zm-.386 4.195l-3.214 2.946 3.154-2.44.06-.506zm32.936-1.726l11.484 3.452 2.142-11.931-13.626 8.48zm45.58-1.1l.536 4.462 5.653-3.034-6.189-1.428zm-56.916-2.172l6.07 6.426 4.998-3.124-11.068-3.302zm-21.452 4.88l-.06.535 4.107-3.154-.804-.357-3.243 2.975zm.357-4.255l-.357 4.076 3.124-2.857-2.767-1.22zm78.011 1.428l6.249 1.458-7.29-10.116 1.041 8.658zm-56.886-2.172l11.157 3.332 13.537-8.45-24.694 5.118zm-13.24-2.559l-3.928 4.82 16.78-2.291-9.014-6.04-3.838 3.511zm-4.91 4.493l.804.357.595-1.607-1.398 1.25zm69.86-.952l5.057 1.19-1.04-8.658-4.017 7.468zm-68.282-.506l-.566 1.547 3.273-4.046-2.708 2.499zm-4.493.178l2.826 1.22 1.577-1.458 3.243-8.836-7.646 9.074zm65.753-1.339l6.903 1.607 4.046-7.557-11.068.535.119 5.415zm-57.928-7.944l-3.243 8.867 3.153-2.886 3.184-3.928-3.094-2.053zm19.1-4.552l-5.98 13.121 24.933-5.147-18.952-7.974zm-15.203 7.022l9.015 6.04-1.368-13.062-7.647 7.022zm7.766-7.11l1.368 13.06 5.95-13.001-5.027-2.113-2.291 2.053zm27.015 8.092l19.13 4.463-.118-5.386-19.012.923zm-35.495-1.31l-2.678 3.303 3.214-2.945-.536-.357zm49.36-6.247l-14.043 7.438 19.19-.923-.09-4.641-5.057-1.874zm-33.412-.566l18.982 7.974-4.82-11.038-12.734-.06-1.428 3.124zm23.772-2.975l-4.552 10.92L70.112 15.7l-9.461-3.48zm-9.461-.09l4.82 10.98 4.552-10.95-9.372-.03zm24.278 5.564l.089 4.582 10.89-.535-10.98-4.047zM21.02 21.917l.536.357 7.736-7.11-.328-3.065-7.944 9.818zm-3.183-2.142l3.094 2.053 7.795-9.61-10.889 7.557zm57.63-2.201l10.92 4.046-11.009-8.45.09 4.403zm-5.057-1.875l4.909 1.815-.09-4.374-4.82 2.56zm-9.402-3.48l9.253 3.42 4.82-2.558-14.073-.863zm-29.217.832l4.998 2.083 1.399-3.094-5.296-.03-1.101 1.041zm-2.707-1.011l.327 3.034 2.172-1.993-2.5-1.041zm.238-.03l2.35.982 1.041-.982h-3.392zm31.388.06l13.895.862L61.87 9.897l-1.16 2.172zm1.22-2.262l12.586 2.975-11.693-4.641-.893 1.666zm-10.8 2.202l9.223.06L48.9 6.862l2.231 5.147zm-1.785-5.058l11.246 5.117 1.16-2.172-12.406-2.945zM38.366 11.95l12.615.06-2.29-5.207-8.51 1.16-1.815 3.987zm-9.044-.06l3.51.03 2.648-2.44-6.158 2.41z"/><path d="M29.027 12.665a.714.714 0 100-1.429.714.714 0 000 1.428zm6.751-2.827a.536.536 0 100-1.071.536.536 0 000 1.071zM5.819 37.448a.724.724 0 01-.714.715.724.724 0 01-.714-.715c0-.386.327-.714.714-.714.386 0 .714.298.714.714zM3.08 49.468a.724.724 0 01-.714.714.724.724 0 01-.714-.714c0-.386.328-.714.714-.714.387 0 .714.298.714.715zm13.598 41.178a.724.724 0 01-.714.714.724.724 0 01-.714-.714c0-.387.327-.714.714-.714.387 0 .714.327.714.714zm21.988 6.099a.724.724 0 01-.714.714.724.724 0 01-.714-.714c0-.386.328-.714.714-.714.387 0 .714.328.714.714zM25.097 90.2a.714.714 0 100-1.429.714.714 0 000 1.429zm49.243-1.637a.714.714 0 10-.001-1.428.714.714 0 000 1.428zm11.541-25.795a.724.724 0 01-.714.714.724.724 0 01-.714-.714c0-.387.327-.714.714-.714.387 0 .714.327.714.714zm-13.566-2.827a.724.724 0 01-.714.715.724.724 0 01-.714-.715c0-.386.327-.714.714-.714.387-.03.714.298.714.715z"/><path d="M74.34 88.563a.714.714 0 10-.001-1.428.714.714 0 000 1.428zm-17.884-9.848a.724.724 0 01-.715.714.724.724 0 01-.714-.714c0-.387.328-.714.714-.714.387 0 .715.327.715.714zm37.546-7.378a.724.724 0 01-.714.714.724.724 0 01-.714-.714c0-.387.328-.714.714-.714.387 0 .714.327.714.714zm-3.332-22.97a.724.724 0 01-.714.714.724.724 0 01-.714-.714c0-.386.328-.714.714-.714.387 0 .714.328.714.714zm9.403 12.853a.714.714 0 100-1.427.714.714 0 000 1.428zm-14.192 1.548a.724.724 0 01-.714.714.724.724 0 01-.714-.714c0-.387.327-.714.714-.714.387 0 .714.327.714.714zm12.764 7.765a.533.533 0 01-.535.536.533.533 0 01-.536-.536c0-.297.238-.535.536-.535.297 0 .535.238.535.535z"/><path d="M100.073 61.22a.714.714 0 100-1.427.714.714 0 000 1.428zM94.48 79.816a.714.714 0 100-1.428.714.714 0 000 1.428zm-.478-8.479a.724.724 0 01-.714.714.724.724 0 01-.714-.714c0-.387.328-.714.714-.714.387 0 .714.327.714.714zm-7.05 18.982a.724.724 0 01-.715.713.724.724 0 01-.714-.713c0-.387.328-.715.715-.715.386-.03.714.298.714.715z"/><path d="M94.48 79.906a.803.803 0 100-1.607.803.803 0 000 1.606zm-20.14 8.657a.714.714 0 10-.001-1.428.714.714 0 000 1.428zm12.612 1.756a.724.724 0 01-.715.713.724.724 0 01-.714-.713c0-.387.328-.715.715-.715.386-.03.714.298.714.715zm-12.136 9.134a.863.863 0 11-1.727-.002.863.863 0 011.727.002z"/><path d="M74.34 88.95a1.1 1.1 0 100-2.201 1.1 1.1 0 000 2.201zm-11.607 14.876a.724.724 0 01-.714.714.724.724 0 01-.714-.714c0-.386.327-.714.714-.714.416 0 .714.328.714.714zm24.219-13.507a.724.724 0 01-.715.713.724.724 0 01-.714-.713c0-.387.328-.715.715-.715.386-.03.714.298.714.715zm-48.286 6.426a.724.724 0 01-.714.714.724.724 0 01-.714-.714c0-.386.328-.714.714-.714.387 0 .714.328.714.714zm17.79-18.03a.724.724 0 01-.715.714.724.724 0 01-.714-.714c0-.387.328-.714.714-.714.387 0 .715.327.715.714z"/><path d="M62.733 103.826a.724.724 0 01-.714.714.724.724 0 01-.714-.714c0-.386.327-.714.714-.714.416 0 .714.328.714.714zM39.17 96.745c0 .685-.535 1.22-1.22 1.22-.684 0-1.22-.535-1.22-1.22 0-.684.536-1.22 1.22-1.22.655.03 1.22.566 1.22 1.22zm8.184 8.093a.724.724 0 01-.714.714.724.724 0 01-.714-.714c0-.387.327-.714.714-.714.387 0 .714.327.714.714zM35.33 102.22a.724.724 0 01-.714.714.724.724 0 01-.714-.714c0-.387.328-.714.714-.714.387-.03.715.297.715.714zm1.547-24.963a.724.724 0 01-.714.715.724.724 0 01-.714-.715c0-.386.328-.714.714-.714.387 0 .714.328.714.714zm19.579 1.458a.724.724 0 01-.715.714.724.724 0 01-.714-.714c0-.387.328-.714.714-.714.387 0 .715.327.715.714zm15.859-18.774a.724.724 0 01-.714.715.724.724 0 01-.714-.715c0-.386.327-.714.714-.714.387-.03.714.298.714.715zM90.67 48.367a.724.724 0 01-.714.714.724.724 0 01-.714-.714c0-.386.328-.714.714-.714.387 0 .714.328.714.714zm-4.55 14.401a.99.99 0 01-.982.982.99.99 0 01-.982-.982.99.99 0 01.982-.982c.536.03.982.446.982.982zM76.627 42.03a.724.724 0 01-.714.715.724.724 0 01-.714-.714c0-.387.328-.715.714-.715.387 0 .714.328.714.715z"/><path d="M72.73 59.941a1.16 1.16 0 11-1.16-1.16c.655 0 1.16.506 1.16 1.16zm-20.825-9.729a.724.724 0 01-.714.714.724.724 0 01-.714-.714c0-.387.327-.714.714-.714.386 0 .714.327.714.714zm4.969 28.503a1.13 1.13 0 11-2.26.001 1.13 1.13 0 012.26 0zM33.519 54.764a.714.714 0 100-1.428.714.714 0 000 1.428zm3.358 22.493a.724.724 0 01-.714.715.724.724 0 01-.714-.715c0-.386.328-.714.714-.714.387 0 .714.328.714.714zM25.097 90.2a.714.714 0 100-1.429.714.714 0 000 1.429zm10.415 12.02a.895.895 0 01-.893.892.894.894 0 01-.892-.892c0-.476.386-.893.892-.893.476 0 .893.387.893.893zM16.678 90.646a.724.724 0 01-.714.714.724.724 0 01-.714-.714c0-.387.327-.714.714-.714.387 0 .714.327.714.714z"/><path d="M25.097 90.2a.714.714 0 100-1.429.714.714 0 000 1.429zm-1.013-21.779a.724.724 0 01-.714.714.724.724 0 01-.714-.714c0-.387.328-.714.714-.714.387-.03.714.297.714.714zm12.793 8.836a.724.724 0 01-.714.715.724.724 0 01-.714-.715c0-.386.328-.714.714-.714.387 0 .714.328.714.714zm-22.343 1.25a.724.724 0 01-.715.714.724.724 0 01-.714-.714c0-.387.328-.714.714-.714.387 0 .715.327.715.714z"/><path d="M25.097 90.2a.714.714 0 100-1.429.714.714 0 000 1.429zM8.377 78.864a.724.724 0 01-.714.714.724.724 0 01-.714-.714c0-.387.328-.714.714-.714.387 0 .714.327.714.714zm8.301 11.782a.724.724 0 01-.714.714.724.724 0 01-.714-.714c0-.387.327-.714.714-.714.387 0 .714.327.714.714zm-2.144-12.139a.724.724 0 01-.715.714.724.724 0 01-.714-.714c0-.387.328-.714.714-.714.387 0 .715.327.715.714z"/><path d="M8.377 78.864a.724.724 0 01-.714.714.724.724 0 01-.714-.714c0-.387.328-.714.714-.714.387 0 .714.327.714.714zM3.498 65.356a.724.724 0 01-.714.714.724.724 0 01-.714-.714c0-.387.328-.714.714-.714.387 0 .714.298.714.714zm11.246 13.151a.959.959 0 01-.952.952.959.959 0 01-.952-.952c0-.506.416-.952.952-.952s.952.446.952.952zm9.34-10.086a.724.724 0 01-.714.714.724.724 0 01-.714-.714c0-.387.328-.714.714-.714.387-.03.714.297.714.714zm27.821-18.209a.724.724 0 01-.714.714.724.724 0 01-.714-.714c0-.387.327-.714.714-.714.386 0 .714.327.714.714zm24.722-8.182a.724.724 0 01-.714.715.724.724 0 01-.714-.714c0-.387.328-.715.714-.715.387 0 .714.328.714.715zm23.746 7.706a.457.457 0 01-.446.447.458.458 0 01-.447-.447c0-.238.209-.446.447-.446.238 0 .446.179.446.446zm-.3 11.484a.714.714 0 100-1.427.714.714 0 000 1.428zm-5.086-29.008a.724.724 0 01-.714.714.724.724 0 01-.714-.714c0-.387.327-.714.714-.714.386 0 .714.327.714.714z"/><path d="M76.627 42.03a.724.724 0 01-.714.715.724.724 0 01-.714-.714c0-.387.328-.715.714-.715.387 0 .714.328.714.715zm14.043 6.337a.724.724 0 01-.714.714.724.724 0 01-.714-.714c0-.386.328-.714.714-.714.387 0 .714.328.714.714zm8.84-4.73a.724.724 0 01-.714.714.724.724 0 01-.714-.714c0-.387.327-.714.714-.714.387 0 .714.297.714.714zm-4.523-11.425a.724.724 0 01-.714.714.724.724 0 01-.714-.714c0-.387.327-.714.714-.714.386 0 .714.327.714.714z"/><path d="M90.67 48.367a.724.724 0 01-.714.714.724.724 0 01-.714-.714c0-.386.328-.714.714-.714.387 0 .714.328.714.714zM56.725 23.286a.724.724 0 01-.714.714.724.724 0 01-.714-.714c0-.387.327-.714.714-.714.387-.03.714.298.714.714zm38.262 8.926a.724.724 0 01-.714.714.724.724 0 01-.714-.714c0-.387.327-.714.714-.714.386 0 .714.327.714.714zm-18.36 9.818a.724.724 0 01-.714.715.724.724 0 01-.714-.714c0-.387.328-.715.714-.715.387 0 .714.328.714.715zm-.593-28.978a.724.724 0 01-.715.713.724.724 0 01-.713-.713c0-.387.327-.715.714-.715.386 0 .714.298.714.715zm11.276 8.747a.565.565 0 11-1.13 0c0-.298.267-.566.565-.566.297 0 .565.268.565.566zm-26.69-8.956a.714.714 0 100-1.428.714.714 0 000 1.428zm2.918-4.76a.724.724 0 01-.715.714.724.724 0 01-.714-.714c0-.387.328-.714.714-.714.387-.03.715.297.715.714zm6.752 8.062a.446.446 0 100-.892.446.446 0 000 .892zm5.535 1.459a.407.407 0 01-.416.416.407.407 0 01-.417-.416c0-.238.179-.417.417-.417s.416.208.416.416zm-.268 10.651a.416.416 0 100-.833.416.416 0 000 .833zm-.058-5.535a.417.417 0 100-.832.417.417 0 000 .833zm7.081 7.201a.416.416 0 100-.833.416.416 0 000 .833zm5.208 1.19a.417.417 0 100-.833.417.417 0 000 .833zm1.037 4.255a.407.407 0 01-.416.416.407.407 0 01-.417-.416c0-.238.179-.417.417-.417s.416.179.416.417zm.896 11.454a.417.417 0 100-.833.417.417 0 000 .833zm2.827.417a.407.407 0 01-.417.416.407.407 0 01-.416-.416c0-.238.178-.417.416-.417s.417.179.417.417zM81.24 54.258a.417.417 0 100-.833.417.417 0 000 .833zm10.653 7.915a.417.417 0 100-.833.417.417 0 000 .833zm1.217 5.147a.407.407 0 01-.416.416.407.407 0 01-.417-.416c0-.238.179-.417.417-.417s.416.179.416.417zm-12.674 6.903a.417.417 0 100-.833.417.417 0 000 .833zm-7.289 1.607a.417.417 0 100-.834.417.417 0 000 .833zM59.55 94.365a.417.417 0 100-.833.417.417 0 000 .833zm-1.426-5.564a.417.417 0 100-.833.417.417 0 000 .833zm-12.348.447a.416.416 0 100-.833.416.416 0 000 .833zm-10.384 6.724a.407.407 0 01-.417.416.407.407 0 01-.416-.416c0-.238.178-.417.416-.417s.417.208.417.417zm-6.784-1.369a.417.417 0 100-.833.417.417 0 000 .833zm6.844-4.998a.417.417 0 100-.834.417.417 0 000 .834zm-20.68-6.159a.416.416 0 100-.833.416.416 0 000 .833zm-1.637-.774a.417.417 0 100-.833.417.417 0 000 .833zm-1.187-3.629a.416.416 0 100-.833.416.416 0 000 .833zm-.802-4.077a.407.407 0 01-.417.417.407.407 0 01-.416-.417c0-.238.178-.416.416-.416.208 0 .417.178.417.416zm-3.304-8.42a.416.416 0 100-.833.416.416 0 000 .833zm-.746-2.44a.417.417 0 100-.833.417.417 0 000 .833zm17.436 13.835a.407.407 0 01-.416.417.407.407 0 01-.417-.417c0-.238.179-.416.417-.416s.416.178.416.416zM16.17 60.834a.416.416 0 100-.833.416.416 0 000 .833zM5.786 58.246a.407.407 0 01-.416.416.407.407 0 01-.417-.416c0-.238.179-.417.417-.417.208 0 .416.179.416.417zm3.275-19.369a.417.417 0 100-.834.417.417 0 000 .834zm8.746-12.645a.417.417 0 100-.833.417.417 0 000 .833zm-7.974 7.23a.407.407 0 01-.416.416.407.407 0 01-.417-.416c0-.239.179-.417.417-.417s.416.178.416.416zM21.526 22.81a.416.416 0 100-.833.416.416 0 000 .833zm-6.724 6.189a.407.407 0 01-.417.416.407.407 0 01-.416-.416c0-.238.178-.417.416-.417s.417.178.417.417zm22.406-13.776a.407.407 0 01-.416.417.407.407 0 01-.417-.417c0-.238.178-.416.416-.416.239 0 .417.178.417.416zm1.484-3.243a.407.407 0 01-.416.417.407.407 0 01-.417-.417c0-.238.179-.416.417-.416s.416.178.416.416zm-6.99 1.607a.417.417 0 100-.833.417.417 0 000 .833zm-2.289 2.083a.417.417 0 100-.834.417.417 0 000 .833zm3.57-3.332a.417.417 0 100-.834.417.417 0 000 .834zm18.507-.298a.407.407 0 01-.417.416.407.407 0 01-.417-.416c0-.238.179-.417.417-.417s.416.179.416.417zm-8.958 19.934a.407.407 0 01-.416.417.407.407 0 01-.417-.417c0-.238.179-.416.417-.416s.416.178.416.416zm-5.533 3.57a.417.417 0 100-.833.417.417 0 000 .834zm17.225-.149a.407.407 0 01-.417.417.407.407 0 01-.416-.416c0-.239.178-.417.416-.417s.417.178.417.416zm7.618-25.14a.416.416 0 100-.833.416.416 0 000 .832z"/><path d="M76.034 13.052a.724.724 0 01-.715.713.724.724 0 01-.713-.713c0-.387.327-.715.714-.715.386 0 .714.298.714.715zM49.463 6.744a.724.724 0 01-.714.714.724.724 0 01-.714-.714c0-.387.327-.714.714-.714.387 0 .714.327.714.714zm11.157 6.099a.714.714 0 100-1.428.714.714 0 000 1.428z"/><path d="M76.39 13.052c0 .595-.477 1.1-1.102 1.1-.595 0-1.1-.476-1.1-1.1 0-.595.475-1.101 1.1-1.101a1.08 1.08 0 011.101 1.1zM56.725 23.286a.724.724 0 01-.714.714.724.724 0 01-.714-.714c0-.387.327-.714.714-.714.387-.03.714.298.714.714zM77.61 43.86a2.5 2.5 0 10-3.406-3.658 2.5 2.5 0 003.406 3.658zM30.75 29.207a.714.714 0 100-1.428.714.714 0 000 1.428zm21.155 21.005a.724.724 0 01-.714.714.724.724 0 01-.714-.714c0-.387.327-.714.714-.714.386 0 .714.327.714.714z"/><path d="M56.725 23.286a.724.724 0 01-.714.714.724.724 0 01-.714-.714c0-.387.327-.714.714-.714.387-.03.714.298.714.714zM26.018 42.417a.724.724 0 01-.714.714.724.724 0 01-.714-.714c0-.387.327-.714.714-.714.387 0 .714.327.714.714zm7.501 12.347a.714.714 0 100-1.428.714.714 0 000 1.428zm19.607-4.552a1.93 1.93 0 01-1.934 1.934 1.93 1.93 0 01-1.934-1.934 1.93 1.93 0 011.934-1.934 1.93 1.93 0 011.934 1.934z"/><path d="M26.018 42.417a.724.724 0 01-.714.714.724.724 0 01-.714-.714c0-.387.327-.714.714-.714.387 0 .714.327.714.714zm-1.934 26.004a.724.724 0 01-.714.714.724.724 0 01-.714-.714c0-.387.328-.714.714-.714.387-.03.714.297.714.714zm9.433-13.389a.982.982 0 100-1.964.982.982 0 000 1.964zM3.498 65.356a.724.724 0 01-.714.714.724.724 0 01-.714-.714c0-.387.328-.714.714-.714.387 0 .714.298.714.714z"/><path d="M25.49 68.905a2.172 2.172 0 10-4.228-1.001 2.172 2.172 0 004.227 1zM8.584 51.194a.724.724 0 01-.714.714.724.724 0 01-.714-.714c0-.387.328-.714.714-.714.387 0 .714.327.714.714zM3.08 49.468a.724.724 0 01-.714.714.724.724 0 01-.714-.714c0-.386.328-.714.714-.714.387 0 .714.298.714.715zm.418 15.888a.724.724 0 01-.714.714.724.724 0 01-.714-.714c0-.387.328-.714.714-.714.387 0 .714.298.714.714z"/><path d="M8.584 51.194a.724.724 0 01-.714.714.724.724 0 01-.714-.714c0-.387.328-.714.714-.714.387 0 .714.327.714.714zm17.434-8.777a.724.724 0 01-.714.714.724.724 0 01-.714-.714c0-.387.327-.714.714-.714.387 0 .714.327.714.714zM5.819 37.448a.724.724 0 01-.714.715.724.724 0 01-.714-.715c0-.386.327-.714.714-.714.386 0 .714.298.714.714z"/><path d="M8.584 51.194a.724.724 0 01-.714.714.724.724 0 01-.714-.714c0-.387.328-.714.714-.714.387 0 .714.327.714.714zM5.819 37.448a.724.724 0 01-.714.715.724.724 0 01-.714-.715c0-.386.327-.714.714-.714.386 0 .714.298.714.714zm7.852-5.89a.714.714 0 100-1.429.714.714 0 000 1.428zm-3.836-1.845a.565.565 0 100-1.131.565.565 0 000 1.13zM26.94 42.417a1.65 1.65 0 01-1.636 1.636 1.65 1.65 0 01-1.636-1.636 1.65 1.65 0 011.636-1.636 1.65 1.65 0 011.637 1.636zm3.81-13.21a.714.714 0 100-1.428.714.714 0 000 1.428zm25.975-5.921a.724.724 0 01-.714.714.724.724 0 01-.714-.714c0-.387.327-.714.714-.714.387-.03.714.298.714.714zm3.898-10.175a.982.982 0 100-1.964.982.982 0 000 1.964zm-31.596-.446a.714.714 0 100-1.429.714.714 0 000 1.428z"/><path d="M30.75 29.207a.714.714 0 100-1.428.714.714 0 000 1.428zm-13.033-8.926a.506.506 0 100-1.011.506.506 0 000 1.011zm11.31-7.616a.714.714 0 100-1.429.714.714 0 000 1.428z"/><path d="M30.75 29.207a.714.714 0 100-1.428.714.714 0 000 1.428zM40.866 7.904a.724.724 0 01-.714.714.724.724 0 01-.715-.714c0-.387.328-.714.715-.714.386 0 .714.327.714.714zM57.29 23.286a1.32 1.32 0 01-1.309 1.31 1.32 1.32 0 01-1.31-1.31c0-.714.596-1.309 1.31-1.309.744 0 1.31.565 1.31 1.31zM49.463 6.744a.724.724 0 01-.714.714.724.724 0 01-.714-.714c0-.387.327-.714.714-.714.387 0 .714.327.714.714zm-20.437 6.248a1.041 1.041 0 100-2.083 1.041 1.041 0 000 2.083z"/></g><path d="M44.96 47.193V69.12h-6.037V47.193h6.037zm-6.413-5.714c0-.851.306-1.554.92-2.108.612-.553 1.434-.83 2.464-.83 1.017 0 1.832.277 2.444.83.627.554.94 1.257.94 2.108 0 .85-.313 1.553-.94 2.107-.612.554-1.427.831-2.444.831-1.03 0-1.852-.277-2.465-.83-.613-.555-.92-1.257-.92-2.108zm26.585-1.864V69.12h-6.267V39.614h6.267zm12.117 12.604v4.742h-13.83v-4.742h13.83zm1.461-12.605v4.763H63.42v-4.763h15.29zm49.035 7.58v21.925h-6.037V47.194h6.037zm-6.414-5.715c0-.851.306-1.554.92-2.108.612-.553 1.434-.83 2.465-.83 1.016 0 1.831.277 2.443.83.628.554.941 1.257.941 2.108 0 .85-.313 1.553-.941 2.107-.612.554-1.427.831-2.443.831-1.031 0-1.853-.277-2.465-.83-.614-.555-.92-1.257-.92-2.108z" fill="#fff"/><path d="M87.083 89.132c3.08-2.1 5.798-4.584 8.236-7.383l.093.093c-1.155 2.03-2.543 3.896-4.036 5.68-7.349 8.737-16.575 14.453-27.657 17.206-1.446.361-2.752 1.155-4.105 1.761-10.778 4.829-21.545 9.682-32.31 14.522-.176.082-.35.187-.56.082 4.63-5.319 9.272-10.65 13.95-16.027-1.703-.396-3.325-.793-4.923-1.295-7.663-2.414-14.417-6.38-20.226-11.932C9.491 86.065 5.141 79.218 2.516 71.286 1.28 67.53.533 63.669.218 59.715c-.011-.14.07-.315-.116-.409v-6.298c.14-.059.105-.187.116-.304.117-1.084.199-2.17.338-3.242.794-6.008 2.66-11.688 5.6-16.972 5.447-9.787 13.297-17.019 23.457-21.73 5.4-2.509 11.08-3.99 17.006-4.55.665-.058 1.353.012 1.995-.21h5.832c.525.222 1.097.152 1.645.198 10.556.98 19.97 4.771 28.205 11.431 4.28 3.465 7.873 7.536 10.824 12.178.117.187.327.35.233.665a41.565 41.565 0 00-8.165-7.384l-.28-.175-.291-.221c-.094-.047-.175-.105-.269-.152-.291-.233-.606-.455-.968-.583-.081-.058-.163-.128-.245-.187-.991-.606-2.006-1.19-3.067-1.656-.059-.082-.14-.117-.234-.093a.289.289 0 00-.28-.117l-.023-.012c-.07-.093-.152-.14-.28-.128-.291-.28-.63-.443-1.038-.455a1.319 1.319 0 01-.63-.222c-1.05-.7-2.251-1.038-3.453-1.318l.012.012c-.012-.151-.128-.093-.198-.093-.513-.233-1.038-.409-1.61-.467-1.54-.49-3.126-.793-4.736-1.003-.116-.012-.233-.035-.35-.047-1.224-.21-2.46-.303-3.709-.361a42.217 42.217 0 00-7.185.245c-1.668.21-3.336.455-4.958.933-.046.012-.105.023-.151.035-.28.058-.572.117-.84.186-1.983.56-3.943 1.167-5.797 2.077-.07.023-.152.046-.222.07-2.87 1.225-5.517 2.8-8.013 4.654-1.505 1.12-2.975 2.286-4.235 3.686h.012c-.082-.012-.128.046-.152.116-.034.035-.07.082-.116.117-.42.292-.712.712-1.073 1.073-.059.07-.117.129-.164.199a34.675 34.675 0 00-4.316 5.61c-.186.233-.384.455-.478.758-1.05 1.68-1.983 3.43-2.67 5.284-.456.898-.77 1.855-1.062 2.811-.035.082-.082.175-.117.269a39.029 39.029 0 00-1.901 12.947c.07 3.196.466 6.334 1.341 9.413.327 1.389.817 2.73 1.306 4.06a39.612 39.612 0 004.071 7.792c.934 1.376 1.89 2.74 3.068 3.919.035.07.07.128.105.198 1.108 1.26 2.263 2.485 3.558 3.57.07.058.14.128.21.186a29.815 29.815 0 003.966 3.08c.116.093.233.174.338.268 1.108.7 2.193 1.434 3.383 1.994.035.024.081.035.116.059 2.8 1.575 5.762 2.73 8.877 3.522.152.047.292.105.443.152.117.023.222.047.338.07 2.24.548 4.503.945 6.8 1.085.082 0 .152.011.234.011.735.047 1.47.106 2.205.129 2.181.07 4.35-.07 6.509-.35 1.738-.233 3.476-.513 5.167-1.05.047 0 .105-.012.151-.012.654-.186 1.307-.35 1.948-.56 2.753-.898 5.424-1.982 7.897-3.499.175-.011.292-.128.408-.245.175-.081.339-.163.514-.256.093-.07.198-.14.291-.21.502-.257.98-.549 1.412-.91.116-.047.221-.105.326-.164zm-2.706 3.5c.047-.059.094-.105.14-.163-.105-.094-.163-.024-.233.058-.058.035-.152.046-.093.14.07.082.128-.012.186-.035zm-52.455 24.647c.315.035.49-.117.677-.198 7.605-3.418 15.199-6.859 22.815-10.242 3.371-1.493 6.672-3.173 10.277-4.152 6.707-1.82 12.69-5.086 18.033-9.507.152-.128.397-.222.432-.583-.724.35-1.377.688-2.03.991-8.772 4.141-17.94 5.25-27.435 3.325-9.285-1.878-17.182-6.334-23.457-13.461-8.445-9.565-11.84-20.763-10.066-33.395 1.353-9.635 5.774-17.789 12.959-24.32C43.96 16.8 55.613 13.231 68.782 14.654c5.319.572 10.346 2.216 15.07 4.736.117.058.234.233.42.046-.07-.07-.128-.151-.198-.21-3.453-2.904-7.22-5.319-11.315-7.185-8.235-3.756-16.866-5.214-25.883-4.432-6.894.595-13.414 2.508-19.491 5.82C18.04 18.516 10.903 25.783 6.26 35.383 1.501 45.216.312 55.527 2.598 66.2c1.89 8.807 6.03 16.459 12.26 22.968 7.301 7.628 16.166 12.457 26.5 14.592.63.128 1.26.28 1.949.431-3.826 4.386-7.582 8.714-11.385 13.088zm52.432-97.748c-.023.023-.058.046-.058.07 0 .035.023.081.046.093.058.023.094-.012.082-.07-.012-.035-.047-.058-.07-.093z" fill="#DD3D2B"/><path d="M31.922 117.279c3.814-4.374 7.57-8.69 11.396-13.099-.7-.152-1.318-.292-1.948-.432-10.347-2.123-19.2-6.952-26.502-14.592C8.628 82.66 4.487 75.007 2.598 66.2.31 55.54 1.5 45.229 6.26 35.384c4.642-9.612 11.78-16.879 21.124-21.964 6.077-3.301 12.598-5.214 19.491-5.81 9.017-.78 17.637.677 25.872 4.445a49.696 49.696 0 0111.315 7.185c.07.059.128.14.198.21-.187.187-.303.012-.42-.046-4.724-2.52-9.752-4.153-15.07-4.736-13.17-1.423-24.822 2.146-34.655 11.081-7.186 6.532-11.607 14.686-12.96 24.32-1.773 12.633 1.633 23.831 10.067 33.396 6.275 7.115 14.172 11.571 23.457 13.46 9.483 1.925 18.651.805 27.435-3.324.653-.315 1.306-.641 2.03-.991-.024.373-.269.455-.432.583-5.354 4.42-11.338 7.687-18.034 9.507-3.604.979-6.905 2.647-10.276 4.152-7.617 3.383-15.21 6.824-22.816 10.241-.175.07-.35.222-.664.187z" fill="#FEFEFE"/><path d="M100.156 66.056c.815 0 1.538-.14 2.168-.419.63-.293 1.123-.698 1.476-1.214.369-.53.561-1.151.577-1.863h6.25c-.015 1.591-.485 3.008-1.407 4.25-.923 1.228-2.16 2.198-3.713 2.91-1.553.698-3.291 1.046-5.212 1.046-1.938 0-3.63-.293-5.074-.879-1.431-.586-2.623-1.395-3.576-2.428a10.368 10.368 0 01-2.144-3.643c-.478-1.396-.716-2.889-.716-4.48v-.607c0-1.605.238-3.099.716-4.48.477-1.396 1.191-2.61 2.144-3.643.954-1.047 2.145-1.863 3.576-2.45 1.43-.585 3.105-.879 5.027-.879 2.045 0 3.837.356 5.374 1.068 1.553.712 2.767 1.73 3.644 3.056.892 1.313 1.346 2.869 1.361 4.669h-6.25a4.381 4.381 0 00-.53-2.052 3.613 3.613 0 00-1.431-1.465c-.615-.377-1.376-.565-2.283-.565-.969 0-1.76.188-2.375.565a3.743 3.743 0 00-1.431 1.507c-.338.628-.576 1.347-.715 2.157a16.462 16.462 0 00-.184 2.512v.607c0 .88.061 1.724.184 2.533.124.81.354 1.528.693 2.156a3.93 3.93 0 001.453 1.487c.615.363 1.413.544 2.398.544zm-2.49 4.208h5.004l-.254 1.235c.876.14 1.676.475 2.398 1.005.724.53 1.085 1.403 1.085 2.617 0 .74-.177 1.41-.53 2.01-.338.6-.846 1.116-1.522 1.549-.677.446-1.523.781-2.537 1.005-1.015.237-2.184.356-3.506.356l-.162-3.35c.492 0 .937-.063 1.337-.188.4-.126.715-.321.946-.587.231-.25.346-.586.346-1.004 0-.391-.115-.698-.346-.922-.23-.223-.592-.39-1.083-.502-.478-.112-1.108-.189-1.892-.23l.715-2.994z" fill="#DD3927"/></svg>