<svg width="120" height="120" fill="none" xmlns="http://www.w3.org/2000/svg"><g opacity=".34" fill="#fff"><path d="M44.26 95.92l-11.198-2.46-17.336-10.73-7.714-10.95-4.535-12.55-.387-14.766 2.544-11.17v-.028l4.368-7.77 7.327-8.71 10.507-7.272 6.277-2.46c.028 0 .055 0 .055.027.028.028 0 .056 0 .083L31.57 9.542l4.839.028 1.714-3.788c0-.028.028-.028.055-.028l7.991-1.078L58.307 7.55l.857-1.603c0-.028.055-.028.083-.028l11.612 4.617 10.618 8.13 6.995 9.677 4.203 10.59c0 .028 0 .055-.028.083l-1.797.968.802 3.953 2.046.664c.028 0 .028.028.028.055l.11 10.037-1.825 9.318c0 .028-.027.028-.027.028h-.055l-.747-.443-2.516 8.378-7.687 10.397-11.42 8.488c-.027 0-.027.028-.054 0-.028 0-.028-.028-.028-.055l.055-2.074-11.06 6.194h-.055L36.27 88.427l7.907 7.355c.028.028.028.055 0 .055.139.083.111.083.083.083zm-11.115-2.544l10.922 2.406-7.936-7.383-2.626-.719-.36 5.696zm3.29-5.004l22.037 6.47-2.295-9.125-19.742 2.655zm19.88-2.655l2.268 9.097 8.074-10.48-10.341 1.383zm10.48-1.41l-8.046 10.424 10.894-6.083.166-4.756-3.014.415zM27.643 86.05l5.392 7.217.359-5.613-5.751-1.604zm-11.53-3.207L32.896 93.21l-5.391-7.216-11.392-3.152zm53.668 5.89l-.055 2.018 10.645-7.936-10.59 5.917zm.138-4.84l-.165 4.7 11.004-6.137-10.839 1.437zm-36.36 2.904l2.628 1.493 7.189-7.272-9.457.304-.36 5.475zm9.955-5.78l-7.162 7.273 19.853-2.655-1.244-5.004-11.447.387zm-10.01 6.554l2.24.636-2.212-1.245-.027.609zm-5.972-1.66l5.862 1.632.028-.663-8.986-5.088 3.096 4.12zm-3.096-4.257l9.013 5.087.332-5.419-9.345.332zm-8.406 1.05l11.336 3.153-3.152-4.203-8.184 1.05zm39.014-2.073l1.244 4.977 10.452-1.41 3.152-4.093-14.848.526zm14.903-.387l-3.041 3.954 2.93-.388.111-3.566zm.11-.111l-.11 3.65 10.783-1.438-10.672-2.212zm-55.465-4.369l1.217 6.858 8.295-1.051-9.512-5.807zm-6.36-3.843l7.356 10.452-2.461-7.466-4.894-2.986zm61.964 8.13l10.839 2.239 3.069-8.268-13.908 6.028zm14.046-6.084l-2.986 8.046 7.327-9.926-4.341 1.88zm-70.977.996l2.295 6.967-1.106-6.249-1.189-.719zm21.18-4.59L24.38 81.542l9.429-.304.636-10.866zm-11.033.525l.858 10.562 10.092-11.17-10.95.608zm-9.539.553L24.16 81.46l-.857-10.535-9.429.525zm.692 4.175l9.29 5.668-10.01-9.732.72 4.064zm20.018-5.336l-.664 10.921 9.567-.304 9.152-9.263-18.055-1.354zm18.11 1.41l-9.069 9.18 11.282-.388-2.212-8.792zm.111 0l2.212 8.82 14.765-.498L52.804 71.7zm.083-.083l17.032 8.35-1.133-11.502-15.899 3.152zm22.756-4.48l-5.53 12.83 14.046-6.083 3.373-9.069-11.89 2.323zm-6.719 1.328l1.106 11.392 5.475-12.692-6.581 1.3zM13.21 74.796l1.216.746-.719-4.092-1.576.083 1.079 3.263zm-5.005-3.014l4.839 2.93-1.05-3.179-3.789.249zm79.383-6.83l-3.29 8.876 4.368-1.908-1.078-6.968zm-.443-3.87l.526 3.622 1.078 6.967 2.46-8.157-4.064-2.433zM3.643 59.45l4.424 12.221 3.898-.221-1.133-3.429-7.19-8.571zm30.912 10.728l18.028 1.355-16.48-18.277-3.234 2.13 1.686 14.792zM67.403 54.28L52.86 71.505l15.927-3.124-1.383-14.102zm-18.857-9.097L52.75 71.45l14.599-17.309-18.802-8.958zm-37.52 23.06l1.05 3.18 1.548-.084-2.599-3.096zM36.213 53.2l16.424 18.221-4.203-26.24-12.22 8.02zm-13.631 8.931l-8.71 9.207 9.401-.525-.691-8.682zm-11.64 5.834l2.82 3.346 8.765-9.263L8.316 59.92l2.626 8.046zm11.75-5.834l.72 8.682 10.949-.608-11.669-8.074zm.028-.11l11.724 8.1-1.66-14.681-10.064 6.58zm44.793-7.825l1.382 14.156 6.664-1.3 4.424-10.23-12.47-2.627zm-63.87 5.032l7.106 8.488-2.572-7.825-4.534-.663zm76.424-2.378l-4.369 10.175 11.862-2.322-.525-3.678-6.968-4.175zm11.253 6.636l.72.415 1.603-8.13-2.323 7.715zm-4.202-2.544l4.12 2.46 2.598-8.681-7.465 1.133.747 5.088zM8.26 59.81l14.24 2.13-6.553-7.272-8.35 3.069.663 2.073zm7.77-5.198l6.553 7.272.747-9.954-7.3 2.682zm7.41-2.71l-.747 9.927 9.208-13.05-8.46 3.124zm8.571-3.096L22.831 61.8l9.927-6.497-.747-6.498zm48.194 7.99l6.774 4.065-.719-5.005-6.055.94zm-76.48 2.35l4.425.664-.664-2.046-3.76 1.383zm2.102-6.331l-2.24 6.249 3.844-1.41-1.604-4.839zm-2.654-8.046l.36 14.101 2.239-6.22-2.6-7.881zm2.71 7.88l1.63 4.977 8.323-3.069-7.603-8.433-2.35 6.525zm78.608-9.014l-4.369 13.079 6.138-.94-1.77-12.139zm-16.894 10.48l12.36 2.599-3.623-8.102-8.737 5.503zm8.848-5.558l3.594 8.074 4.369-13.106-7.963 5.032zm8.156-4.977l1.77 12.166 7.438-1.134L84.6 43.58zm-52.479 5.254l.719 6.414 3.18-2.074-3.899-4.34zM8.316 46.04l7.659 8.488 7.382-2.71 1.023-13.852L8.316 46.04zM84.6 43.413l9.208 11.06-2.157-10.452-5.143-1.63-1.908 1.022zm7.19.636l2.045 10.037-.11-9.401-1.936-.636zM48.628 45.1l18.774 8.932 3.954-16.452-22.728 7.52zm22.839-7.41L67.54 54.032l8.766-5.503-4.84-10.838zm-39.29 11.005l3.981 4.424 12.055-7.88-16.037 3.456zM3.2 44.491l2.627 7.991L8.15 46.04 3.2 44.492zm21.263-6.47L23.44 51.763l8.516-3.124-7.493-10.618zm.11-.055l7.521 10.645L48.27 45.1l-23.696-7.134zm47.005-.36l4.84 10.84 8.017-5.033-12.857-5.806zM3.173 44.382l4.977 1.576-2.49-12.444-2.487 10.868zm6.166-10.175L8.288 45.929l15.982-8.046-14.931-3.677zm-3.622-.913l2.46 12.332L9.2 34.15l-3.483-.857zm45.262-1.88l-2.433 13.604 22.728-7.52-20.295-6.084zm-26.433 6.442l23.751 7.134-13.023-13.825-10.728 6.691zm10.839-6.774l13.05 13.88 2.434-13.603-10.784-3.235-4.7 2.958zm51.262 11.226l4.977 1.604-.801-3.843-4.175 2.24zm-14.294-4.452l12.083 5.448-.194-1.66-11.89-3.788zm12.636 4.037l-.36 1.41 1.77-.94-1.41-.47zm-.609-.193l.166 1.41.332-1.244-.498-.166zm.636.083l1.52.47 4.314-2.323-2.322-11.309-3.512 13.162zm-.663-.221l.553.166 3.539-13.245-5.309 2.848 1.217 10.23zm-12.747-4.065l12.636 4.037-1.217-10.148-11.419 6.111zm17.088-8.516l2.24 10.894 1.713-.913-3.953-9.981zm-74.959-1.853l10.673 10.618 5.004-12.774-15.677 2.156zm-4.396 6.968l14.903 3.678-10.618-10.59-3.926 3.041-.36 3.871zm20.184-9.069l-4.977 12.719L35.22 31.08l-5.696-6.055zm21.484 6.276l20.24 6.084-18.25-17.199-1.99 11.115zm2.129-11.142l18.249 17.198-.277-12.996-17.972-4.202zm24.58 5.75l-6.11 11.448 11.392-6.083-.526-4.23-4.755-1.134zm-6.47-1.52l.277 12.885 6.11-11.392-6.386-1.493zM5.773 33.21l3.456.858.332-3.76-3.788 2.902zm4.203-7.437l-4.093 7.16 3.76-3.455.333-3.705zm-.36 3.898L6.63 32.408l2.93-2.267.056-.47zm30.609-1.604l10.672 3.208 1.991-11.088-12.663 7.88zm42.359-1.023l.498 4.148 5.253-2.82-5.751-1.328zM29.69 25.026l5.64 5.972 4.646-2.903-10.286-3.069zM9.753 29.561l-.055.497 3.816-2.93-.747-.332-3.014 2.765zm.332-3.954l-.332 3.788 2.904-2.655-2.572-1.133zm72.498 1.327l5.806 1.355-6.774-9.401.968 8.046zm-52.866-2.019l10.368 3.097 12.58-7.852-22.948 4.755zm-12.305-2.377l-3.65 4.479 15.595-2.13-8.378-5.612-3.567 3.263zm-4.562 4.175l.747.331.553-1.493-1.3 1.162zm64.922-.885l4.7 1.106-.967-8.046-3.733 6.94zm-63.456-.47l-.526 1.438 3.042-3.76-2.516 2.322zm-4.176.166l2.627 1.133 1.466-1.355 3.014-8.212-7.107 8.434zm61.107-1.245l6.414 1.494 3.76-7.023-10.285.497.11 5.032zm-53.835-7.382l-3.013 8.24 2.93-2.682 2.959-3.65-2.876-1.908zm17.752-4.23L29.606 24.86l23.17-4.783-17.612-7.41zm-14.13 6.525l8.378 5.613-1.271-12.138-7.106 6.525zm7.217-6.608l1.272 12.138 5.53-12.083-4.673-1.963-2.129 1.908zm25.106 7.52l17.779 4.148-.11-5.005-17.669.857zm-32.986-1.216l-2.488 3.069 2.986-2.737-.498-.332zm45.87-5.807l-13.05 6.913 17.834-.857-.083-4.314-4.7-1.742zm-31.05-.525l17.64 7.41-4.479-10.258-11.834-.055-1.327 2.903zm22.092-2.765l-4.23 10.148 13.023-6.913-8.793-3.235zm-8.792-.083l4.479 10.203L57.2 9.736l-8.71-.028zm22.562 5.17l.083 4.259 10.12-.498-10.203-3.76zm-50.6 3.927l.499.332 7.188-6.609-.304-2.848-7.382 9.125zm-2.958-1.991l2.876 1.908 7.244-8.931-10.12 7.023zm53.558-2.046l10.148 3.76-10.23-7.852.082 4.092zm-4.7-1.742l4.562 1.687-.083-4.065-4.48 2.378zm-8.738-3.235l8.6 3.18 4.479-2.378-13.079-.802zm-27.152.774l4.645 1.936 1.3-2.876-4.922-.028-1.023.968zm-2.516-.94l.304 2.82 2.019-1.852-2.323-.968zm.221-.028l2.184.913.968-.913h-3.152zm29.17.056l12.913.802-11.834-2.82-1.078 2.018zm1.134-2.102l11.696 2.765-10.866-4.313-.83 1.548zM48.435 9.597l8.572.056-10.645-4.839 2.073 4.783zm-1.659-4.7l10.452 4.756 1.078-2.019-11.53-2.737zM36.575 9.542l11.723.055-2.129-4.838-7.908 1.078-1.686 3.705zm-8.406-.055l3.263.027 2.46-2.267-5.723 2.24z"/><path d="M27.89 10.206a.664.664 0 100-1.328.664.664 0 000 1.328zm6.278-2.626a.498.498 0 100-.996.498.498 0 000 .995zM6.323 33.238c0 .36-.304.664-.663.664a.673.673 0 01-.664-.664c0-.36.304-.663.664-.663.36 0 .663.276.663.663zM3.78 44.408c0 .36-.304.664-.663.664a.673.673 0 01-.664-.664c0-.359.304-.663.664-.663.36 0 .663.276.663.663zm12.637 38.268c0 .36-.304.663-.664.663a.673.673 0 01-.663-.663c0-.36.304-.664.663-.664.36 0 .664.304.664.664zm20.432 5.668c0 .36-.304.664-.664.664a.673.673 0 01-.663-.664c0-.36.304-.664.663-.664.36 0 .664.305.664.664zm-12.607-6.083a.664.664 0 100-1.327.664.664 0 000 1.327zm45.759-1.521a.664.664 0 100-1.327.664.664 0 000 1.327zM80.73 56.768c0 .36-.305.663-.664.663a.673.673 0 01-.664-.663c0-.36.305-.664.664-.664.36 0 .663.304.663.664zm-12.608-2.627c0 .36-.304.664-.663.664a.673.673 0 01-.664-.664c0-.36.304-.663.663-.663.36-.028.664.276.664.663z"/><path d="M70.001 80.74a.664.664 0 100-1.327.664.664 0 000 1.327zm-16.617-9.152c0 .36-.304.664-.664.664a.673.673 0 01-.663-.664c0-.36.304-.663.663-.663.36 0 .664.304.664.663zm34.894-6.857c0 .36-.304.664-.663.664a.673.673 0 01-.664-.664c0-.36.304-.664.664-.664.36 0 .663.305.663.664zM85.18 43.386a.672.672 0 01-.663.663.673.673 0 01-.663-.663c0-.36.304-.664.663-.664.36 0 .664.304.664.663zm8.74 11.944a.664.664 0 100-1.327.664.664 0 000 1.327zm-13.19 1.438c0 .36-.305.663-.664.663a.673.673 0 01-.664-.663c0-.36.305-.664.664-.664.36 0 .663.304.663.664zm11.861 7.216a.496.496 0 01-.498.498.496.496 0 01-.497-.498c0-.276.22-.497.497-.497s.498.221.498.497z"/><path d="M93.92 55.33a.664.664 0 100-1.327.664.664 0 000 1.327zm-5.2 17.281a.664.664 0 100-1.327.664.664 0 000 1.327zm-.442-7.88c0 .36-.304.664-.663.664a.673.673 0 01-.664-.664c0-.36.304-.664.664-.664.36 0 .663.305.663.664zm-6.552 17.641c0 .36-.305.663-.664.663a.673.673 0 01-.664-.663c0-.36.305-.664.664-.664.36-.028.664.276.664.664z"/><path d="M88.721 72.694a.747.747 0 100-1.493.747.747 0 000 1.493zm-18.72 8.046a.664.664 0 100-1.327.664.664 0 000 1.327zm11.725 1.632c0 .36-.305.663-.664.663a.673.673 0 01-.664-.663c0-.36.305-.664.664-.664.36-.028.664.276.664.664zM70.444 90.86a.802.802 0 11-1.605 0 .802.802 0 011.605 0z"/><path d="M70.002 81.1a1.023 1.023 0 100-2.046 1.023 1.023 0 000 2.046zM59.218 94.925a.673.673 0 01-.664.663.673.673 0 01-.663-.663c0-.36.304-.664.663-.664.387 0 .664.304.664.664zm22.508-12.553c0 .36-.305.663-.664.663a.673.673 0 01-.664-.663c0-.36.305-.664.664-.664.36-.028.664.276.664.664zm-44.877 5.972c0 .36-.304.664-.664.664a.673.673 0 01-.663-.664c0-.36.304-.664.663-.664.36 0 .664.305.664.664zm16.535-16.756c0 .36-.304.664-.664.664a.673.673 0 01-.663-.664c0-.36.304-.663.663-.663.36 0 .664.304.664.663z"/><path d="M59.218 94.925a.673.673 0 01-.664.663.673.673 0 01-.663-.663c0-.36.304-.664.663-.664.387 0 .664.304.664.664zM37.32 88.344c0 .636-.498 1.134-1.134 1.134a1.121 1.121 0 01-1.133-1.134c0-.636.497-1.134 1.133-1.134.609.028 1.134.526 1.134 1.134zm7.603 7.521c0 .36-.304.663-.664.663a.673.673 0 01-.663-.663c0-.36.304-.664.663-.664.36 0 .664.304.664.664zm-11.17-2.434c0 .36-.304.664-.664.664a.673.673 0 01-.663-.663c0-.36.304-.664.663-.664.36-.028.664.276.664.663zm1.437-23.198c0 .36-.304.664-.663.664a.673.673 0 01-.664-.664c0-.359.304-.663.664-.663.36 0 .663.304.663.663zm18.194 1.355c0 .36-.304.664-.664.664a.673.673 0 01-.663-.664c0-.36.304-.663.663-.663.36 0 .664.304.664.663zm14.738-17.447c0 .36-.304.664-.663.664a.673.673 0 01-.664-.664c0-.36.304-.663.663-.663.36-.028.664.276.664.663zM85.18 43.386a.672.672 0 01-.663.663.673.673 0 01-.663-.663c0-.36.304-.664.663-.664.36 0 .664.304.664.663zm-4.228 13.382a.92.92 0 01-.913.912.92.92 0 01-.912-.912.92.92 0 01.912-.913c.498.028.913.415.913.913zM72.13 37.496c0 .36-.304.664-.664.664a.673.673 0 01-.663-.664c0-.36.304-.663.663-.663.36 0 .664.304.664.663z"/><path d="M68.508 54.141c0 .58-.47 1.078-1.078 1.078a1.08 1.08 0 01-1.078-1.078c0-.58.47-1.078 1.078-1.078.608 0 1.078.47 1.078 1.078zM49.153 45.1c0 .36-.304.663-.663.663a.673.673 0 01-.664-.663c0-.36.304-.664.664-.664.36 0 .663.304.663.664zm4.618 26.488a1.05 1.05 0 11-2.1.001 1.05 1.05 0 012.1 0zM32.066 49.33a.664.664 0 100-1.327.664.664 0 000 1.327zm3.124 20.903c0 .36-.304.664-.663.664a.673.673 0 01-.664-.664c0-.359.304-.663.664-.663.36 0 .663.304.663.663zM24.242 82.261a.664.664 0 100-1.327.664.664 0 000 1.327zm9.677 11.17c0 .443-.36.83-.83.83a.832.832 0 01-.83-.83c0-.442.36-.829.83-.829.443 0 .83.36.83.83zM16.417 82.676c0 .36-.304.663-.664.663a.673.673 0 01-.663-.663c0-.36.304-.664.663-.664.36 0 .664.304.664.664z"/><path d="M24.242 82.261a.664.664 0 100-1.327.664.664 0 000 1.327zm-.94-20.24c0 .36-.304.664-.664.664a.673.673 0 01-.663-.664c0-.36.304-.663.663-.663.36-.028.664.276.664.663zm11.888 8.212c0 .36-.304.664-.663.664a.673.673 0 01-.664-.664c0-.359.304-.663.664-.663.36 0 .663.304.663.663zm-20.765 1.162c0 .36-.304.663-.664.663a.673.673 0 01-.663-.663c0-.36.304-.664.663-.664.36 0 .664.304.664.664z"/><path d="M24.242 82.261a.664.664 0 100-1.327.664.664 0 000 1.327zM8.702 71.726c0 .36-.304.664-.663.664a.673.673 0 01-.664-.664c0-.36.304-.663.664-.663.359 0 .663.304.663.663zm7.715 10.95c0 .36-.304.663-.664.663a.673.673 0 01-.663-.663c0-.36.304-.664.663-.664.36 0 .664.304.664.664zm-1.992-11.281c0 .36-.304.663-.664.663a.673.673 0 01-.663-.663c0-.36.304-.664.663-.664.36 0 .664.304.664.664z"/><path d="M8.702 71.726c0 .36-.304.664-.663.664a.673.673 0 01-.664-.664c0-.36.304-.663.664-.663.359 0 .663.304.663.663zM4.167 59.173c0 .36-.304.664-.664.664a.673.673 0 01-.663-.664c0-.36.304-.663.663-.663.36 0 .664.276.664.663zM14.62 71.395a.89.89 0 01-.886.884.89.89 0 01-.884-.884.89.89 0 01.884-.885.89.89 0 01.885.885zm8.682-9.374c0 .36-.304.664-.664.664a.673.673 0 01-.663-.664c0-.36.304-.663.663-.663.36-.028.664.276.664.663zM49.153 45.1c0 .36-.304.663-.663.663a.673.673 0 01-.664-.663c0-.36.304-.664.664-.664.36 0 .663.304.663.664zm22.977-7.604c0 .36-.304.664-.664.664a.673.673 0 01-.663-.664c0-.36.304-.663.663-.663.36 0 .664.304.664.663zm22.065 7.161a.425.425 0 01-.415.415.425.425 0 01-.415-.415c0-.22.194-.414.415-.414.221 0 .415.166.415.414zM93.92 55.33a.664.664 0 100-1.327.664.664 0 000 1.327zm-4.73-26.958a.672.672 0 01-.663.663.673.673 0 01-.664-.663c0-.36.304-.664.664-.664.36 0 .663.304.663.664z"/><path d="M72.13 37.496c0 .36-.304.664-.664.664a.673.673 0 01-.663-.664c0-.36.304-.663.663-.663.36 0 .664.304.664.663zm13.05 5.89a.672.672 0 01-.663.663.673.673 0 01-.663-.663c0-.36.304-.664.663-.664.36 0 .664.304.664.663zm8.214-4.397c0 .36-.305.664-.664.664a.673.673 0 01-.664-.664c0-.36.305-.664.664-.664.36 0 .664.277.664.664zM89.19 28.372a.672.672 0 01-.663.663.673.673 0 01-.664-.663c0-.36.304-.664.664-.664.36 0 .663.304.663.664z"/><path d="M85.18 43.386a.672.672 0 01-.663.663.673.673 0 01-.663-.663c0-.36.304-.664.663-.664.36 0 .664.304.664.663zM53.634 20.077c0 .36-.304.663-.664.663a.673.673 0 01-.663-.663c0-.36.304-.664.663-.664.36-.027.664.277.664.664zm35.556 8.295a.672.672 0 01-.663.663.673.673 0 01-.664-.663c0-.36.304-.664.664-.664.36 0 .663.304.663.664zm-17.06 9.124c0 .36-.304.664-.664.664a.673.673 0 01-.663-.664c0-.36.304-.663.663-.663.36 0 .664.304.664.663zm-.553-26.931c0 .36-.304.664-.663.664a.673.673 0 01-.664-.664c0-.36.304-.663.664-.663.359 0 .663.276.663.663zm10.48 8.129a.525.525 0 11-1.051 0c0-.276.249-.525.525-.525.277 0 .526.249.526.525zm-24.802-8.322a.664.664 0 100-1.328.664.664 0 000 1.328zm2.709-4.424a.673.673 0 01-.664.663.673.673 0 01-.663-.663c0-.36.304-.664.663-.664.36-.028.664.276.664.664zm6.276 7.492a.415.415 0 10.001-.829.415.415 0 000 .83zm5.144 1.356a.378.378 0 01-.388.387.378.378 0 01-.387-.387c0-.222.166-.388.388-.388.22 0 .387.194.387.388zm-.249 9.898a.387.387 0 100-.774.387.387 0 000 .774zm-.055-5.143a.387.387 0 100-.774.387.387 0 000 .774zm6.58 6.692a.387.387 0 100-.774.387.387 0 000 .774zm4.838 1.106a.387.387 0 100-.775.387.387 0 000 .775zm.97 3.954a.378.378 0 01-.388.387.378.378 0 01-.387-.387c0-.222.166-.387.388-.387.22 0 .387.165.387.387zm.829 10.644a.387.387 0 100-.774.387.387 0 000 .774zm2.626.388a.378.378 0 01-.388.387.378.378 0 01-.387-.387c0-.221.166-.387.388-.387.22 0 .387.166.387.387zM76.416 48.86a.387.387 0 100-.774.387.387 0 000 .774zm9.899 7.355a.387.387 0 100-.774.387.387 0 000 .774zm1.133 4.783a.378.378 0 01-.387.388.378.378 0 01-.387-.388c0-.22.166-.387.387-.387s.387.166.387.387zM75.67 67.413a.387.387 0 100-.774.387.387 0 000 .774zm-6.775 1.493a.387.387 0 100-.774.387.387 0 000 .774zM56.26 86.132a.387.387 0 100-.774.387.387 0 000 .774zm-1.328-5.17a.387.387 0 100-.775.387.387 0 000 .775zm-11.475.414a.387.387 0 100-.774.387.387 0 000 .774zm-9.65 6.249a.378.378 0 01-.387.387.378.378 0 01-.387-.387c0-.221.166-.387.387-.387s.387.194.387.387zm-6.303-1.272a.387.387 0 100-.774.387.387 0 000 .774zm6.36-4.645a.387.387 0 100-.774.387.387 0 000 .774zm-19.217-5.723a.387.387 0 100-.775.387.387 0 000 .775zm-1.522-.719a.387.387 0 100-.775.387.387 0 000 .775zm-1.105-3.374a.387.387 0 100-.774.387.387 0 000 .774zm-.746-3.788a.378.378 0 01-.387.388.378.378 0 01-.387-.388c0-.22.166-.387.387-.387.194 0 .387.166.387.387zm-3.07-7.824a.387.387 0 100-.775.387.387 0 000 .775zm-.692-2.268a.387.387 0 100-.774.387.387 0 000 .774zM23.716 70.87a.378.378 0 01-.388.386.378.378 0 01-.387-.387c0-.22.166-.387.387-.387.222 0 .388.166.388.387zm-7.77-15.9a.387.387 0 100-.773.387.387 0 000 .774zm-9.65-2.405a.378.378 0 01-.387.387.378.378 0 01-.388-.387c0-.22.166-.387.388-.387.193 0 .387.166.387.387zm3.042-18a.387.387 0 100-.774.387.387 0 000 .774zm8.129-11.751a.387.387 0 100-.774.387.387 0 000 .774zm-7.41 6.719a.378.378 0 01-.387.387.378.378 0 01-.387-.387c0-.221.166-.387.387-.387.222 0 .387.166.387.387zm10.865-9.899a.387.387 0 100-.774.387.387 0 000 .774zm-6.247 5.751a.378.378 0 01-.388.387.378.378 0 01-.387-.387c0-.22.166-.387.387-.387.222 0 .388.166.388.387zm20.82-12.801a.378.378 0 01-.387.387.378.378 0 01-.387-.387c0-.222.166-.387.387-.387s.387.165.387.387zm1.383-3.014a.378.378 0 01-.387.387.378.378 0 01-.388-.387c0-.221.166-.387.388-.387.22 0 .387.166.387.387zm-6.498 1.493a.387.387 0 100-.774.387.387 0 000 .774zm-2.13 1.935a.387.387 0 100-.774.387.387 0 000 .774zm3.319-3.096a.387.387 0 100-.775.387.387 0 000 .775zm17.197-.277a.378.378 0 01-.387.387.378.378 0 01-.387-.387c0-.221.166-.387.387-.387s.387.166.387.387zM40.444 28.15a.378.378 0 01-.387.387.378.378 0 01-.387-.387c0-.22.166-.387.387-.387s.387.166.387.387zm-5.143 3.318a.387.387 0 100-.774.387.387 0 000 .774zm16.009-.138a.378.378 0 01-.388.387.378.378 0 01-.387-.387c0-.221.166-.387.387-.387s.387.166.387.387zm7.079-23.364a.387.387 0 100-.774.387.387 0 000 .774z"/><path d="M71.577 10.565c0 .36-.304.664-.663.664a.673.673 0 01-.664-.664c0-.36.304-.663.664-.663.359 0 .663.276.663.663zM46.886 4.703c0 .36-.304.664-.664.664a.673.673 0 01-.663-.664c0-.36.304-.663.663-.663.36 0 .664.304.664.663zm10.369 5.669a.664.664 0 100-1.328.664.664 0 000 1.328z"/><path d="M71.91 10.565a1.02 1.02 0 01-1.024 1.023 1.02 1.02 0 01-1.023-1.023 1.02 1.02 0 011.023-1.023c.581 0 1.023.442 1.023 1.023zm-18.276 9.512c0 .36-.304.663-.664.663a.673.673 0 01-.663-.663c0-.36.304-.664.663-.664.36-.027.664.277.664.664zM73.04 39.196a2.323 2.323 0 10-3.164-3.4 2.323 2.323 0 003.165 3.4zM29.494 25.579a.664.664 0 100-1.327.664.664 0 000 1.327zM49.153 45.1c0 .36-.304.663-.663.663a.673.673 0 01-.664-.663c0-.36.304-.664.664-.664.36 0 .663.304.663.664z"/><path d="M53.634 20.077c0 .36-.304.663-.664.663a.673.673 0 01-.663-.663c0-.36.304-.664.663-.664.36-.027.664.277.664.664zM25.099 37.855c0 .36-.305.664-.664.664a.673.673 0 01-.663-.663c0-.36.304-.664.663-.664.36 0 .664.304.664.663zm6.967 11.475a.664.664 0 100-1.327.664.664 0 000 1.327zm18.222-4.23c0 .995-.802 1.797-1.797 1.797a1.794 1.794 0 01-1.798-1.797c0-.996.802-1.797 1.798-1.797.995 0 1.797.801 1.797 1.797z"/><path d="M25.099 37.855c0 .36-.305.664-.664.664a.673.673 0 01-.663-.663c0-.36.304-.664.663-.664.36 0 .664.304.664.663zm-1.797 24.166c0 .36-.304.664-.664.664a.673.673 0 01-.663-.664c0-.36.304-.663.663-.663.36-.028.664.276.664.663zm8.765-12.442a.912.912 0 100-1.825.912.912 0 000 1.825zm-27.9 9.594c0 .36-.304.664-.664.664a.673.673 0 01-.663-.664c0-.36.304-.663.663-.663.36 0 .664.276.664.663z"/><path d="M24.606 62.471a2.018 2.018 0 10-3.928-.93 2.018 2.018 0 003.928.93zM8.896 46.012c0 .36-.305.664-.664.664a.673.673 0 01-.664-.664c0-.36.305-.663.664-.663.36 0 .664.304.664.663zM3.78 44.408c0 .36-.304.664-.663.664a.673.673 0 01-.664-.664c0-.359.304-.663.664-.663.36 0 .663.276.663.663zm.387 14.765c0 .36-.304.664-.664.664a.673.673 0 01-.663-.664c0-.36.304-.663.663-.663.36 0 .664.276.664.663z"/><path d="M8.896 46.012c0 .36-.305.664-.664.664a.673.673 0 01-.664-.664c0-.36.305-.663.664-.663.36 0 .664.304.664.663zm16.203-8.157c0 .36-.305.664-.664.664a.673.673 0 01-.663-.663c0-.36.304-.664.663-.664.36 0 .664.304.664.663zM6.323 33.238c0 .36-.304.664-.663.664a.673.673 0 01-.664-.664c0-.36.304-.663.664-.663.36 0 .663.276.663.663z"/><path d="M8.896 46.012c0 .36-.305.664-.664.664a.673.673 0 01-.664-.664c0-.36.305-.663.664-.663.36 0 .664.304.664.663zM6.323 33.238c0 .36-.304.664-.663.664a.673.673 0 01-.664-.664c0-.36.304-.663.664-.663.36 0 .663.276.663.663zm7.301-5.475a.664.664 0 100-1.327.664.664 0 000 1.327zm-3.567-1.714a.525.525 0 100-1.05.525.525 0 000 1.05zm15.899 11.806c0 .83-.692 1.521-1.521 1.521-.83 0-1.52-.691-1.52-1.52 0-.83.69-1.521 1.52-1.521.83 0 1.52.691 1.52 1.52zm3.538-12.276a.664.664 0 100-1.327.664.664 0 000 1.327zm24.14-5.502c0 .36-.304.663-.664.663a.673.673 0 01-.663-.663c0-.36.304-.664.663-.664.36-.027.664.277.664.664zm3.62-9.457a.912.912 0 100-1.824.912.912 0 000 1.825zm-29.364-.414a.664.664 0 100-1.328.664.664 0 000 1.328z"/><path d="M29.494 25.579a.664.664 0 100-1.327.664.664 0 000 1.327zm-12.11-8.295a.47.47 0 100-.94.47.47 0 000 .94zm10.506-7.078a.664.664 0 100-1.328.664.664 0 000 1.328z"/><path d="M29.494 25.579a.664.664 0 100-1.327.664.664 0 000 1.327zm9.401-19.797c0 .36-.304.663-.663.663a.673.673 0 01-.664-.663c0-.36.305-.664.664-.664.36 0 .663.304.663.664zm15.263 14.295c0 .663-.553 1.216-1.217 1.216a1.227 1.227 0 01-1.216-1.216c0-.664.553-1.217 1.216-1.217.691 0 1.217.526 1.217 1.217zM46.886 4.703c0 .36-.304.664-.664.664a.673.673 0 01-.663-.664c0-.36.304-.663.663-.663.36 0 .664.304.664.663zM27.892 10.51a.968.968 0 100-1.935.968.968 0 000 1.935z"/></g><path d="M42.702 42.294v20.377h-5.61V42.293h5.61zm-5.96-5.31c0-.792.285-1.445.854-1.96.57-.514 1.334-.771 2.291-.771.945 0 1.702.257 2.272.772.582.514.873 1.167.873 1.958 0 .791-.29 1.444-.873 1.959-.57.515-1.327.772-2.272.772-.958 0-1.721-.257-2.29-.772-.57-.515-.855-1.168-.855-1.959zm24.706-1.733v27.42h-5.824V35.25h5.824zm11.26 11.713v4.407H59.857v-4.407H72.71zm1.36-11.713v4.425H59.855v-4.425h14.211zm45.568 7.043v20.377h-5.61V42.293h5.61zm-5.96-5.31c0-.792.284-1.445.854-1.96.569-.514 1.334-.771 2.291-.771.945 0 1.702.257 2.271.772.583.514.874 1.167.874 1.958 0 .791-.291 1.444-.874 1.959-.569.515-1.326.772-2.271.772-.957 0-1.722-.257-2.291-.772-.57-.515-.854-1.168-.854-1.959z" fill="#fff"/><mask id="a" fill="#fff"><path fill-rule="evenodd" clip-rule="evenodd" d="M59.782 87.858c-21.188 0-38.37-16.752-38.37-37.41 0-20.658 17.182-37.41 38.37-37.41 12.33 0 23.232 5.672 30.256 14.429C81.826 13.456 66.368 4 48.64 4 22.359 4 1 24.824 1 50.448 1 72.74 17.165 91.399 38.674 95.875L25.5 111l34.195-15.363C72.678 92.624 83.6 84.423 90.047 73.412c-7.037 8.767-17.994 14.445-30.266 14.445z"/></mask><path fill-rule="evenodd" clip-rule="evenodd" d="M59.782 87.858c-21.188 0-38.37-16.752-38.37-37.41 0-20.658 17.182-37.41 38.37-37.41 12.33 0 23.232 5.672 30.256 14.429C81.826 13.456 66.368 4 48.64 4 22.359 4 1 24.824 1 50.448 1 72.74 17.165 91.399 38.674 95.875L25.5 111l34.195-15.363C72.678 92.624 83.6 84.423 90.047 73.412c-7.037 8.767-17.994 14.445-30.266 14.445z" fill="#fff"/><path d="M90.038 27.467l-1.56 1.251 3.285-2.263-1.725 1.012zM38.674 95.875l1.508 1.314 2.243-2.576-3.344-.696-.407 1.958zM25.5 111l-1.509-1.314 2.328 3.138L25.5 111zm34.195-15.363l-.452-1.948-.19.044-.178.08.82 1.824zm30.352-22.225l1.726 1.01-3.285-2.262 1.56 1.252zM19.413 50.448c0 21.81 18.125 39.41 40.37 39.41v-4c-20.132 0-36.37-15.904-36.37-35.41h-4zm40.37-39.41c-22.245 0-40.37 17.6-40.37 39.41h4c0-19.506 16.238-35.41 36.37-35.41v-4zm31.815 15.177c-7.39-9.214-18.86-15.177-31.816-15.177v4c11.703 0 22.039 5.38 28.696 13.68l3.12-2.503zM48.64 6c17.004 0 31.812 9.068 39.673 22.478l3.45-2.023C83.2 11.845 67.093 2 48.64 2v4zM3 50.448C3 25.976 23.415 6 48.64 6V2C21.302 2-1 23.672-1 50.448h4zm36.081 43.469C18.446 89.623 3 71.738 3 50.448h-4c0 23.294 16.884 42.728 39.266 47.385l.815-3.916zM27.01 112.313l13.173-15.124-3.016-2.627-13.174 15.124 3.017 2.627zm31.867-18.5l-34.195 15.363 1.64 3.648 34.195-15.363-1.64-3.649zM88.323 72.4c-6.17 10.539-16.633 18.4-29.078 21.288l.904 3.896c13.52-3.138 24.902-11.679 31.626-23.163l-3.452-2.02zm-28.54 17.457c12.899 0 24.422-5.97 31.826-15.194l-3.12-2.504c-6.67 8.31-17.06 13.698-28.706 13.698v4z" fill="#000" mask="url(#a)"/><path d="M90.038 27.467l-1.56 1.251 3.285-2.263-1.725 1.012zM38.674 95.875l1.508 1.314 2.243-2.576-3.344-.696-.407 1.958zM25.5 111l-1.509-1.314 2.328 3.138L25.5 111zm34.195-15.363l-.452-1.948-.19.044-.178.08.82 1.824zm30.352-22.225l1.726 1.01-3.285-2.262 1.56 1.252zM19.413 50.448c0 21.81 18.125 39.41 40.37 39.41v-4c-20.132 0-36.37-15.904-36.37-35.41h-4zm40.37-39.41c-22.245 0-40.37 17.6-40.37 39.41h4c0-19.506 16.238-35.41 36.37-35.41v-4zm31.815 15.177c-7.39-9.214-18.86-15.177-31.816-15.177v4c11.703 0 22.039 5.38 28.696 13.68l3.12-2.503zM48.64 6c17.004 0 31.812 9.068 39.673 22.478l3.45-2.023C83.2 11.845 67.093 2 48.64 2v4zM3 50.448C3 25.976 23.415 6 48.64 6V2C21.302 2-1 23.672-1 50.448h4zm36.081 43.469C18.446 89.623 3 71.738 3 50.448h-4c0 23.294 16.884 42.728 39.266 47.385l.815-3.916zM27.01 112.313l13.173-15.124-3.016-2.627-13.174 15.124 3.017 2.627zm31.867-18.5l-34.195 15.363 1.64 3.648 34.195-15.363-1.64-3.649zM88.323 72.4c-6.17 10.539-16.633 18.4-29.078 21.288l.904 3.896c13.52-3.138 24.902-11.679 31.626-23.163l-3.452-2.02zm-28.54 17.457c12.899 0 24.422-5.97 31.826-15.194l-3.12-2.504c-6.67 8.31-17.06 13.698-28.706 13.698v4z" fill="#DD3927" mask="url(#a)"/><path d="M93.995 59.824c.757 0 1.429-.13 2.014-.39.587-.272 1.044-.648 1.373-1.128.342-.493.52-1.07.535-1.731h5.809c-.014 1.478-.45 2.795-1.308 3.949-.857 1.141-2.007 2.043-3.45 2.704-1.444.649-3.058.973-4.844.973-1.801 0-3.373-.272-4.716-.817-1.33-.545-2.436-1.297-3.322-2.257a9.635 9.635 0 01-1.993-3.385c-.444-1.297-.665-2.685-.665-4.164v-.564c0-1.491.221-2.88.665-4.163a9.41 9.41 0 011.993-3.386c.886-.972 1.993-1.731 3.322-2.276 1.329-.544 2.887-.817 4.673-.817 1.9 0 3.565.33 4.993.992 1.444.662 2.573 1.609 3.387 2.84.829 1.22 1.251 2.666 1.265 4.34h-5.809a4.068 4.068 0 00-.492-1.907 3.353 3.353 0 00-1.33-1.362c-.572-.35-1.279-.525-2.121-.525-.9 0-1.636.175-2.208.525a3.478 3.478 0 00-1.33 1.4 6.52 6.52 0 00-.664 2.005 15.29 15.29 0 00-.17 2.334v.564c0 .817.056 1.602.17 2.354.115.753.329 1.42.644 2.005a3.651 3.651 0 001.35 1.38c.572.338 1.314.507 2.229.507zm-2.315 3.91h4.651l-.236 1.148a5.06 5.06 0 012.23.934c.671.493 1.007 1.303 1.007 2.432 0 .687-.164 1.31-.493 1.867-.314.558-.786 1.038-1.414 1.44-.63.415-1.416.726-2.358.934-.943.22-2.029.33-3.258.33l-.15-3.112c.457 0 .87-.058 1.242-.175.372-.117.665-.298.88-.545.214-.233.321-.545.321-.934 0-.363-.107-.648-.322-.856-.214-.207-.55-.363-1.006-.467-.444-.104-1.03-.175-1.758-.214l.664-2.782z" fill="#DD3927"/></svg>