<svg width="120" height="120" viewBox="0 0 120 120" fill="none" xmlns="http://www.w3.org/2000/svg">
<g opacity="0.34">
<path d="M44.2604 95.9201L33.0622 93.4592L15.7258 82.7311L8.01151 71.7818L3.47694 59.2288L3.08984 44.4638L5.63362 33.2933C5.63362 33.2933 5.63362 33.2933 5.63362 33.2657L10.0023 25.4961L17.3295 16.7864L27.8364 9.51449L34.1129 7.05366C34.1405 7.05366 34.1682 7.05366 34.1682 7.08131C34.1958 7.10896 34.1682 7.13661 34.1682 7.16426L31.5691 9.54214L36.4078 9.56979L38.1221 5.78177C38.1221 5.75412 38.1498 5.75412 38.1774 5.75412L46.1682 4.67578L58.3065 7.55136L59.1636 5.94767C59.1636 5.92002 59.2189 5.92002 59.2466 5.92002L70.8595 10.5375L81.477 18.6666L88.4724 28.344L92.6751 38.9339C92.6751 38.9615 92.6751 38.9892 92.6475 39.0168L90.8503 39.9846L91.6521 43.9385L93.6982 44.6021C93.7258 44.6021 93.7258 44.6297 93.7258 44.6574L93.8364 54.6942L92.0115 64.0122C92.0115 64.0399 91.9839 64.0399 91.9839 64.0399C91.9562 64.0399 91.9562 64.0399 91.9286 64.0399L91.182 63.5975L88.6659 71.9753L80.9793 82.3717L69.5599 90.8602C69.5323 90.8602 69.5323 90.8878 69.5046 90.8602C69.477 90.8602 69.477 90.8325 69.477 90.8048L69.5323 88.7311L58.4724 94.9247C58.4724 94.9247 58.4447 94.9247 58.4171 94.9247L36.2696 88.427L44.1774 95.7818C44.2051 95.8095 44.2051 95.8371 44.1774 95.8371C44.3157 95.9201 44.288 95.9201 44.2604 95.9201ZM33.1452 93.3763L44.0668 95.7818L36.1313 88.3993L33.5046 87.6804L33.1452 93.3763ZM36.4355 88.3717L58.4724 94.8417L56.1774 85.7173L36.4355 88.3717ZM56.3157 85.7173L58.583 94.8141L66.6567 84.3348L56.3157 85.7173ZM66.7949 84.3072L58.7488 94.7311L69.6429 88.6482L69.8088 83.8924L66.7949 84.3072ZM27.6429 86.0491L33.0346 93.2657L33.394 87.6528L27.6429 86.0491ZM16.1129 82.8417L32.8963 93.2104L27.5046 85.9938L16.1129 82.8417ZM69.7811 88.7311L69.7258 90.7496L80.371 82.8141L69.7811 88.7311ZM69.9194 83.8924L69.7535 88.5929L80.7581 82.4546L69.9194 83.8924ZM33.5599 86.7956L36.1866 88.2887L43.3756 81.0168L33.9193 81.321L33.5599 86.7956ZM43.5138 81.0168L36.3525 88.2887L56.2051 85.6343L54.9608 80.6297L43.5138 81.0168ZM33.5046 87.5698L35.7442 88.2058L33.5323 86.9615L33.5046 87.5698ZM27.5322 85.9108L33.394 87.5422L33.4217 86.8786L24.4355 81.791L27.5322 85.9108ZM24.4355 81.6528L33.4493 86.7403L33.7811 81.321L24.4355 81.6528ZM16.0299 82.7035L27.3664 85.8555L24.2143 81.6528L16.0299 82.7035ZM55.0438 80.6297L56.288 85.6067L66.7396 84.1966L69.8917 80.1044L55.0438 80.6297ZM69.947 80.2426L66.9055 84.1966L69.8364 83.8095L69.947 80.2426ZM70.0576 80.132L69.947 83.7818L80.7304 82.344L70.0576 80.132ZM14.5922 75.7634L15.8087 82.6205L24.1037 81.5698L14.5922 75.7634ZM8.2327 71.9201L15.5875 82.3717L13.1267 74.9062L8.2327 71.9201ZM70.1959 80.0491L81.0346 82.2887L84.1037 74.0214L70.1959 80.0491ZM84.242 73.9661L81.2558 82.0122L88.583 72.0859L84.242 73.9661ZM13.265 74.9615L15.5599 81.9293L14.4539 75.6804L13.265 74.9615ZM34.4447 70.3717L24.3802 81.5422L33.8088 81.238L34.4447 70.3717ZM23.4124 70.897L24.2696 81.4592L34.3617 70.2887L23.4124 70.897ZM13.8733 71.45L24.159 81.4592L23.3018 70.9247L13.8733 71.45ZM14.5645 75.6251L23.8548 81.2933L13.8456 71.5606L14.5645 75.6251ZM34.5829 70.2887L33.9193 81.2104L43.4862 80.9062L52.6383 71.6435L34.5829 70.2887ZM52.6936 71.6989L43.6244 80.8786L54.9055 80.4915L52.6936 71.6989ZM52.8041 71.6989L55.0161 80.5191L69.7811 80.0214L52.8041 71.6989ZM52.8871 71.6159L69.9194 79.9661L68.7857 68.4638L52.8871 71.6159ZM75.6429 67.1366L70.1129 79.9661L84.159 73.8832L87.5323 64.8141L75.6429 67.1366ZM68.924 68.4638L70.03 79.8555L75.5046 67.1643L68.924 68.4638ZM13.2097 74.7956L14.4263 75.5422L13.7074 71.45L12.1313 71.533L13.2097 74.7956ZM8.20505 71.7818L13.0438 74.7127L11.9931 71.533L8.20505 71.7818ZM87.5876 64.9523L84.2973 73.8279L88.6659 71.9201L87.5876 64.9523ZM87.1452 61.0813L87.6705 64.7035L88.7489 71.6712L91.2097 63.5145L87.1452 61.0813ZM3.64284 59.45L8.0668 71.6712L11.9654 71.45L10.8318 68.0214L3.64284 59.45ZM34.5553 70.1781L52.583 71.533L36.1037 53.2564L32.8687 55.3855L34.5553 70.1781ZM67.4032 54.2795L52.8595 71.5053L68.7857 68.3809L67.4032 54.2795ZM48.5461 45.1827L52.7489 71.45L67.3479 54.1412L48.5461 45.1827ZM11.0253 68.2426L12.076 71.4224L13.6244 71.3394L11.0253 68.2426ZM36.2143 53.2011L52.6383 71.4224L48.4355 45.1827L36.2143 53.2011ZM22.5829 62.132L13.8733 71.3394L23.2742 70.8141L22.5829 62.132ZM10.9424 67.9661L13.7627 71.3118L22.5276 62.0491L8.31565 59.92L10.9424 67.9661ZM22.6935 62.132L23.4124 70.8141L34.3617 70.2058L22.6935 62.132ZM22.7212 62.0214L34.4447 70.1228L32.7857 55.4408L22.7212 62.0214ZM67.5138 54.1965L68.8963 68.3532L75.5599 67.0537L79.9839 56.8233L67.5138 54.1965ZM3.64284 59.2288L10.7488 67.7173L8.1774 59.8924L3.64284 59.2288ZM80.0668 56.8509L75.6982 67.026L87.5599 64.7035L87.0346 61.026L80.0668 56.8509ZM91.3203 63.4869L92.0392 63.9016L93.6429 55.7726L91.3203 63.4869ZM87.1175 60.9431L91.2373 63.4039L93.8364 54.7219L86.371 55.8555L87.1175 60.9431ZM8.26035 59.8094L22.5 61.9385L15.947 54.6666L7.59676 57.7357L8.26035 59.8094ZM16.0299 54.6113L22.5829 61.8832L23.3295 51.9293L16.0299 54.6113ZM23.4401 51.9016L22.6935 61.8279L31.9009 48.7772L23.4401 51.9016ZM32.0115 48.8048L22.8318 61.8002L32.7581 55.3025L32.0115 48.8048ZM80.2051 56.7956L86.9793 60.8601L86.2604 55.8555L80.2051 56.7956ZM3.72579 59.1458L8.14975 59.8094L7.48616 57.7634L3.72579 59.1458ZM5.82717 52.814L3.58754 59.0629L7.43086 57.6528L5.82717 52.814ZM3.17279 44.768L3.53224 58.8694L5.77187 52.6482L3.17279 44.768ZM5.88247 52.6482L7.51381 57.6251L15.8364 54.556L8.2327 46.1228L5.88247 52.6482ZM84.4908 43.6343L80.1221 56.7127L86.2604 55.7726L84.4908 43.6343ZM67.5968 54.1136L79.9562 56.7127L76.3341 48.6113L67.5968 54.1136ZM76.4447 48.556L80.0392 56.6297L84.4079 43.5237L76.4447 48.556ZM84.6014 43.579L86.371 55.7449L93.8088 54.6113L84.6014 43.579ZM32.1221 48.8325L32.841 55.2472L36.0207 53.1735L32.1221 48.8325ZM8.31565 46.0399L15.9746 54.5283L23.3571 51.8187L24.3802 37.9661L8.31565 46.0399ZM84.6014 43.4131L93.8088 54.473L91.6521 44.0214L86.5092 42.3901L84.6014 43.4131ZM91.7903 44.0491L93.8364 54.0859L93.7258 44.685L91.7903 44.0491ZM48.629 45.0998L67.4032 54.0306L71.3572 37.579L48.629 45.0998ZM71.4678 37.6896L67.5415 54.0306L76.3065 48.5283L71.4678 37.6896ZM32.1774 48.6942L36.159 53.1182L48.2143 45.238L32.1774 48.6942ZM3.20044 44.4915L5.82717 52.4823L8.14975 46.0399L3.20044 44.4915ZM24.4631 38.0214L23.4401 51.7634L31.9562 48.6389L24.4631 38.0214ZM24.5737 37.9661L32.0945 48.6113L48.2696 45.0998L24.5737 37.9661ZM71.5784 37.6067L76.4171 48.4454L84.4355 43.4131L71.5784 37.6067ZM3.17279 44.3809L8.14975 45.9569L5.66127 33.5145L3.17279 44.3809ZM9.33869 34.2057L8.288 45.9293L24.2696 37.8832L9.33869 34.2057ZM5.71657 33.2933L8.1774 45.6251L9.20045 34.1504L5.71657 33.2933ZM50.9793 31.4131L48.5461 45.0168L71.2742 37.4961L50.9793 31.4131ZM24.5461 37.8555L48.2972 44.9892L35.2742 31.1643L24.5461 37.8555ZM35.3848 31.0813L48.4355 44.9615L50.8687 31.3578L40.0853 28.1228L35.3848 31.0813ZM86.6475 42.3071L91.6244 43.9108L90.8226 40.0675L86.6475 42.3071ZM72.3525 37.8555L84.4355 43.3025L84.242 41.6435L72.3525 37.8555ZM84.9885 41.8924L84.629 43.3025L86.3986 42.3624L84.9885 41.8924ZM84.3802 41.6988L84.5461 43.109L84.8779 41.8647L84.3802 41.6988ZM85.0161 41.7818L86.5369 42.2518L90.8503 39.9293L88.5277 28.6205L85.0161 41.7818ZM84.3525 41.5606L84.9055 41.7265L88.4447 28.4822L83.136 31.3302L84.3525 41.5606ZM71.606 37.4961L84.242 41.5329L83.0254 31.3855L71.606 37.4961ZM88.6936 28.9799L90.9332 39.874L92.6475 38.9615L88.6936 28.9799ZM13.735 27.1274L24.4078 37.7449L29.4124 24.9707L13.735 27.1274ZM9.33869 34.0951L24.2419 37.7726L13.6244 27.1827L9.69814 30.2242L9.33869 34.0951ZM29.523 25.026L24.5461 37.7449L35.2189 31.0813L29.523 25.026ZM51.0069 31.3025L71.2466 37.3855L52.9977 20.1873L51.0069 31.3025ZM53.1359 20.1597L71.3848 37.3578L71.1083 24.3624L53.1359 20.1597ZM77.7166 25.9108L71.606 37.3578L82.9977 31.2749L82.4724 27.0445L77.7166 25.9108ZM71.2466 24.3901L71.523 37.2749L77.6337 25.8832L71.2466 24.3901ZM5.77187 33.2104L9.22809 34.0675L9.55989 30.3071L5.77187 33.2104ZM9.97464 25.7726L5.88247 32.9339L9.64284 29.4776L9.97464 25.7726ZM9.61519 29.6712L6.62902 32.4085L9.55989 30.1412L9.61519 29.6712ZM40.2235 28.0675L50.8963 31.2749L52.8871 20.1873L40.2235 28.0675ZM82.583 27.0445L83.0807 31.1919L88.3341 28.3716L82.583 27.0445ZM29.6889 25.026L35.3295 30.9984L39.9747 28.0951L29.6889 25.026ZM9.75344 29.5606L9.69814 30.0583L13.5138 27.1274L12.7673 26.7956L9.75344 29.5606ZM10.0852 25.6067L9.75344 29.3947L12.6567 26.7403L10.0852 25.6067ZM82.583 26.9339L88.3894 28.2887L81.6152 18.8878L82.583 26.9339ZM29.7166 24.9154L40.0853 28.0122L52.6659 20.1597L29.7166 24.9154ZM17.4124 22.5375L13.7627 27.0168L29.3571 24.8878L20.9793 19.2749L17.4124 22.5375ZM12.8502 26.7127L13.5968 27.0445L14.1498 25.5514L12.8502 26.7127ZM77.7719 25.8279L82.4724 26.9339L81.5046 18.8878L77.7719 25.8279ZM14.3157 25.3578L13.7903 26.7956L16.8318 23.0352L14.3157 25.3578ZM10.1405 25.5237L12.7673 26.6574L14.2327 25.3025L17.2465 17.0905L10.1405 25.5237ZM71.2466 24.2795L77.6613 25.7726L81.4217 18.7495L71.136 19.2472L71.2466 24.2795ZM17.4124 16.897L14.3986 25.1366L17.3295 22.4546L20.288 18.8048L17.4124 16.897ZM35.1636 12.6666L29.606 24.8601L52.7765 20.0767L35.1636 12.6666ZM21.0346 19.1919L29.4124 24.8048L28.1405 12.6666L21.0346 19.1919ZM28.2511 12.5836L29.523 24.7219L35.053 12.6389L30.3802 10.6758L28.2511 12.5836ZM53.3571 20.1044L71.136 24.2518L71.0254 19.2472L53.3571 20.1044ZM20.371 18.8878L17.8825 21.9569L20.8687 19.2196L20.371 18.8878ZM66.2419 13.0813L53.1912 19.9938L71.0254 19.1366L70.9424 14.8233L66.2419 13.0813ZM35.1912 12.556L52.8318 19.9661L48.3525 9.70804L36.5184 9.65274L35.1912 12.556ZM57.2834 9.79099L53.053 19.9385L66.076 13.026L57.2834 9.79099ZM48.4908 9.70804L52.97 19.9108L57.2005 9.73569L48.4908 9.70804ZM71.053 14.8785L71.136 19.1366L81.2558 18.6389L71.053 14.8785ZM20.4539 18.8048L20.9516 19.1366L28.1405 12.5283L27.8364 9.68039L20.4539 18.8048ZM17.4954 16.814L20.371 18.7219L27.6152 9.79099L17.4954 16.814ZM71.053 14.768L81.2005 18.5283L70.9701 10.6758L71.053 14.768ZM66.3525 13.026L70.9148 14.7127L70.8318 10.6481L66.3525 13.026ZM57.6152 9.79099L66.2143 12.9707L70.6936 10.5928L57.6152 9.79099ZM30.4631 10.5652L35.1083 12.5007L36.4078 9.62509L31.4862 9.59744L30.4631 10.5652ZM27.947 9.62509L28.2511 12.4454L30.2696 10.5928L27.947 9.62509ZM28.1682 9.59744L30.3525 10.5099L31.3203 9.59744H28.1682ZM57.3387 9.65274L70.2512 10.4546L58.4171 7.63431L57.3387 9.65274ZM58.4724 7.55136L70.1682 10.3163L59.3018 6.00297L58.4724 7.55136ZM48.4355 9.59744L57.0069 9.65274L46.3618 4.81403L48.4355 9.59744ZM46.7765 4.89698L57.2281 9.65274L58.3065 7.63431L46.7765 4.89698ZM36.5737 9.54214L48.2972 9.59744L46.1682 4.75873L38.2604 5.83707L36.5737 9.54214ZM28.1682 9.48684L31.4309 9.51449L33.8917 7.24721L28.1682 9.48684Z" fill="white"/>
<path d="M27.8902 10.2056C28.2566 10.2056 28.5538 9.90851 28.5538 9.54201C28.5538 9.17552 28.2566 8.87842 27.8902 8.87842C27.5237 8.87842 27.2266 9.17552 27.2266 9.54201C27.2266 9.90851 27.5237 10.2056 27.8902 10.2056Z" fill="white"/>
<path d="M34.1676 7.57913C34.4425 7.57913 34.6653 7.35631 34.6653 7.08144C34.6653 6.80657 34.4425 6.58374 34.1676 6.58374C33.8927 6.58374 33.6699 6.80657 33.6699 7.08144C33.6699 7.35631 33.8927 7.57913 34.1676 7.57913Z" fill="white"/>
<path d="M6.32328 33.2381C6.32328 33.5975 6.01914 33.9017 5.65969 33.9017C5.30024 33.9017 4.99609 33.5975 4.99609 33.2381C4.99609 32.8786 5.30024 32.5745 5.65969 32.5745C6.01914 32.5745 6.32328 32.851 6.32328 33.2381Z" fill="white"/>
<path d="M3.78031 44.4085C3.78031 44.7679 3.47617 45.0721 3.11672 45.0721C2.75727 45.0721 2.45312 44.7679 2.45312 44.4085C2.45312 44.049 2.75727 43.7449 3.11672 43.7449C3.47617 43.7449 3.78031 44.0214 3.78031 44.4085Z" fill="white"/>
<path d="M16.417 82.6758C16.417 83.0352 16.1129 83.3394 15.7534 83.3394C15.394 83.3394 15.0898 83.0352 15.0898 82.6758C15.0898 82.3164 15.394 82.0122 15.7534 82.0122C16.1129 82.0122 16.417 82.3164 16.417 82.6758Z" fill="white"/>
<path d="M36.8487 88.344C36.8487 88.7035 36.5445 89.0076 36.1851 89.0076C35.8256 89.0076 35.5215 88.7035 35.5215 88.344C35.5215 87.9846 35.8256 87.6804 36.1851 87.6804C36.5445 87.6804 36.8487 87.9846 36.8487 88.344Z" fill="white"/>
<path d="M24.2417 82.261C24.6082 82.261 24.9053 81.9639 24.9053 81.5974C24.9053 81.2309 24.6082 80.9338 24.2417 80.9338C23.8752 80.9338 23.5781 81.2309 23.5781 81.5974C23.5781 81.9639 23.8752 82.261 24.2417 82.261Z" fill="white"/>
<path d="M70.0015 80.7403C70.368 80.7403 70.6651 80.4432 70.6651 80.0767C70.6651 79.7102 70.368 79.4131 70.0015 79.4131C69.635 79.4131 69.3379 79.7102 69.3379 80.0767C69.3379 80.4432 69.635 80.7403 70.0015 80.7403Z" fill="white"/>
<path d="M80.7295 56.7678C80.7295 57.1273 80.4254 57.4314 80.0659 57.4314C79.7065 57.4314 79.4023 57.1273 79.4023 56.7678C79.4023 56.4084 79.7065 56.1042 80.0659 56.1042C80.4254 56.1042 80.7295 56.4084 80.7295 56.7678Z" fill="white"/>
<path d="M68.1221 54.1412C68.1221 54.5006 67.818 54.8048 67.4585 54.8048C67.0991 54.8048 66.7949 54.5006 66.7949 54.1412C66.7949 53.7817 67.0991 53.4776 67.4585 53.4776C67.818 53.4499 68.1221 53.7541 68.1221 54.1412Z" fill="white"/>
<path d="M70.0015 80.7403C70.368 80.7403 70.6651 80.4432 70.6651 80.0767C70.6651 79.7102 70.368 79.4131 70.0015 79.4131C69.635 79.4131 69.3379 79.7102 69.3379 80.0767C69.3379 80.4432 69.635 80.7403 70.0015 80.7403Z" fill="white"/>
<path d="M53.3838 71.5882C53.3838 71.9476 53.0797 72.2518 52.7202 72.2518C52.3608 72.2518 52.0566 71.9476 52.0566 71.5882C52.0566 71.2287 52.3608 70.9246 52.7202 70.9246C53.0797 70.9246 53.3838 71.2287 53.3838 71.5882Z" fill="white"/>
<path d="M88.2784 64.731C88.2784 65.0904 87.9742 65.3946 87.6148 65.3946C87.2553 65.3946 86.9512 65.0904 86.9512 64.731C86.9512 64.3715 87.2553 64.0674 87.6148 64.0674C87.9742 64.0674 88.2784 64.3715 88.2784 64.731Z" fill="white"/>
<path d="M85.1807 43.3855C85.1807 43.745 84.8766 44.0491 84.5171 44.0491C84.1577 44.0491 83.8535 43.745 83.8535 43.3855C83.8535 43.0261 84.1577 42.7219 84.5171 42.7219C84.8766 42.7219 85.1807 43.0261 85.1807 43.3855Z" fill="white"/>
<path d="M93.9195 55.3301C94.2859 55.3301 94.583 55.033 94.583 54.6665C94.583 54.3 94.2859 54.0029 93.9195 54.0029C93.553 54.0029 93.2559 54.3 93.2559 54.6665C93.2559 55.033 93.553 55.3301 93.9195 55.3301Z" fill="white"/>
<path d="M80.7295 56.7678C80.7295 57.1273 80.4254 57.4314 80.0659 57.4314C79.7065 57.4314 79.4023 57.1273 79.4023 56.7678C79.4023 56.4084 79.7065 56.1042 80.0659 56.1042C80.4254 56.1042 80.7295 56.4084 80.7295 56.7678Z" fill="white"/>
<path d="M92.5911 63.9845C92.5911 64.261 92.3699 64.4822 92.0934 64.4822C91.8169 64.4822 91.5957 64.261 91.5957 63.9845C91.5957 63.708 91.8169 63.4868 92.0934 63.4868C92.3699 63.4868 92.5911 63.708 92.5911 63.9845Z" fill="white"/>
<path d="M93.9195 55.3301C94.2859 55.3301 94.583 55.033 94.583 54.6665C94.583 54.3 94.2859 54.0029 93.9195 54.0029C93.553 54.0029 93.2559 54.3 93.2559 54.6665C93.2559 55.033 93.553 55.3301 93.9195 55.3301Z" fill="white"/>
<path d="M88.7202 72.6114C89.0867 72.6114 89.3838 72.3143 89.3838 71.9478C89.3838 71.5813 89.0867 71.2842 88.7202 71.2842C88.3537 71.2842 88.0566 71.5813 88.0566 71.9478C88.0566 72.3143 88.3537 72.6114 88.7202 72.6114Z" fill="white"/>
<path d="M88.2784 64.731C88.2784 65.0904 87.9742 65.3946 87.6148 65.3946C87.2553 65.3946 86.9512 65.0904 86.9512 64.731C86.9512 64.3715 87.2553 64.0674 87.6148 64.0674C87.9742 64.0674 88.2784 64.3715 88.2784 64.731Z" fill="white"/>
<path d="M81.7256 82.3716C81.7256 82.7311 81.4215 83.0352 81.062 83.0352C80.7026 83.0352 80.3984 82.7311 80.3984 82.3716C80.3984 82.0122 80.7026 81.708 81.062 81.708C81.4215 81.6804 81.7256 81.9845 81.7256 82.3716Z" fill="white"/>
<path d="M88.7212 72.6943C89.1335 72.6943 89.4677 72.36 89.4677 71.9477C89.4677 71.5354 89.1335 71.2012 88.7212 71.2012C88.3089 71.2012 87.9746 71.5354 87.9746 71.9477C87.9746 72.36 88.3089 72.6943 88.7212 72.6943Z" fill="white"/>
<path d="M70.0015 80.7403C70.368 80.7403 70.6651 80.4432 70.6651 80.0767C70.6651 79.7102 70.368 79.4131 70.0015 79.4131C69.635 79.4131 69.3379 79.7102 69.3379 80.0767C69.3379 80.4432 69.635 80.7403 70.0015 80.7403Z" fill="white"/>
<path d="M81.7256 82.3716C81.7256 82.7311 81.4215 83.0352 81.062 83.0352C80.7026 83.0352 80.3984 82.7311 80.3984 82.3716C80.3984 82.0122 80.7026 81.708 81.062 81.708C81.4215 81.6804 81.7256 81.9845 81.7256 82.3716Z" fill="white"/>
<path d="M70.4435 90.8602C70.4435 91.3026 70.0841 91.662 69.6417 91.662C69.1993 91.662 68.8398 91.3026 68.8398 90.8602C68.8398 90.4178 69.1993 90.0583 69.6417 90.0583C70.0841 90.0583 70.4435 90.4178 70.4435 90.8602Z" fill="white"/>
<path d="M70.0016 81.0998C70.5666 81.0998 71.0246 80.6418 71.0246 80.0768C71.0246 79.5117 70.5666 79.0537 70.0016 79.0537C69.4366 79.0537 68.9785 79.5117 68.9785 80.0768C68.9785 80.6418 69.4366 81.0998 70.0016 81.0998Z" fill="white"/>
<path d="M59.2178 94.9246C59.2178 95.284 58.9137 95.5882 58.5542 95.5882C58.1948 95.5882 57.8906 95.284 57.8906 94.9246C57.8906 94.5651 58.1948 94.261 58.5542 94.261C58.9413 94.261 59.2178 94.5651 59.2178 94.9246Z" fill="white"/>
<path d="M81.7256 82.3716C81.7256 82.7311 81.4215 83.0352 81.062 83.0352C80.7026 83.0352 80.3984 82.7311 80.3984 82.3716C80.3984 82.0122 80.7026 81.708 81.062 81.708C81.4215 81.6804 81.7256 81.9845 81.7256 82.3716Z" fill="white"/>
<path d="M36.8487 88.344C36.8487 88.7035 36.5445 89.0076 36.1851 89.0076C35.8256 89.0076 35.5215 88.7035 35.5215 88.344C35.5215 87.9846 35.8256 87.6804 36.1851 87.6804C36.5445 87.6804 36.8487 87.9846 36.8487 88.344Z" fill="white"/>
<path d="M53.3838 71.5882C53.3838 71.9476 53.0797 72.2518 52.7202 72.2518C52.3608 72.2518 52.0566 71.9476 52.0566 71.5882C52.0566 71.2287 52.3608 70.9246 52.7202 70.9246C53.0797 70.9246 53.3838 71.2287 53.3838 71.5882Z" fill="white"/>
<path d="M59.2178 94.9246C59.2178 95.284 58.9137 95.5882 58.5542 95.5882C58.1948 95.5882 57.8906 95.284 57.8906 94.9246C57.8906 94.5651 58.1948 94.261 58.5542 94.261C58.9413 94.261 59.2178 94.5651 59.2178 94.9246Z" fill="white"/>
<path d="M37.32 88.3438C37.32 88.9798 36.8223 89.4775 36.1864 89.4775C35.5504 89.4775 35.0527 88.9798 35.0527 88.3438C35.0527 87.7079 35.5504 87.2102 36.1864 87.2102C36.7947 87.2379 37.32 87.7356 37.32 88.3438Z" fill="white"/>
<path d="M44.9229 95.8648C44.9229 96.2242 44.6187 96.5284 44.2593 96.5284C43.8998 96.5284 43.5957 96.2242 43.5957 95.8648C43.5957 95.5053 43.8998 95.2012 44.2593 95.2012C44.6187 95.2012 44.9229 95.5053 44.9229 95.8648Z" fill="white"/>
<path d="M33.753 93.4315C33.753 93.7909 33.4488 94.0951 33.0894 94.0951C32.7299 94.0951 32.4258 93.7909 32.4258 93.4315C32.4258 93.072 32.7299 92.7679 33.0894 92.7679C33.4488 92.7402 33.753 93.0444 33.753 93.4315Z" fill="white"/>
<path d="M35.1905 70.2334C35.1905 70.5929 34.8863 70.897 34.5269 70.897C34.1674 70.897 33.8633 70.5929 33.8633 70.2334C33.8633 69.874 34.1674 69.5698 34.5269 69.5698C34.8863 69.5698 35.1905 69.874 35.1905 70.2334Z" fill="white"/>
<path d="M53.3838 71.5882C53.3838 71.9476 53.0797 72.2518 52.7202 72.2518C52.3608 72.2518 52.0566 71.9476 52.0566 71.5882C52.0566 71.2287 52.3608 70.9246 52.7202 70.9246C53.0797 70.9246 53.3838 71.2287 53.3838 71.5882Z" fill="white"/>
<path d="M68.1221 54.1412C68.1221 54.5006 67.818 54.8048 67.4585 54.8048C67.0991 54.8048 66.7949 54.5006 66.7949 54.1412C66.7949 53.7817 67.0991 53.4776 67.4585 53.4776C67.818 53.4499 68.1221 53.7541 68.1221 54.1412Z" fill="white"/>
<path d="M85.1807 43.3855C85.1807 43.745 84.8766 44.0491 84.5171 44.0491C84.1577 44.0491 83.8535 43.745 83.8535 43.3855C83.8535 43.0261 84.1577 42.7219 84.5171 42.7219C84.8766 42.7219 85.1807 43.0261 85.1807 43.3855Z" fill="white"/>
<path d="M80.9518 56.7679C80.9518 57.2656 80.5371 57.6804 80.0394 57.6804C79.5417 57.6804 79.127 57.2656 79.127 56.7679C79.127 56.2702 79.5417 55.8555 80.0394 55.8555C80.5371 55.8831 80.9518 56.2702 80.9518 56.7679Z" fill="white"/>
<path d="M72.1299 37.4961C72.1299 37.8556 71.8258 38.1597 71.4663 38.1597C71.1069 38.1597 70.8027 37.8556 70.8027 37.4961C70.8027 37.1367 71.1069 36.8325 71.4663 36.8325C71.8258 36.8325 72.1299 37.1367 72.1299 37.4961Z" fill="white"/>
<path d="M68.5083 54.1411C68.5083 54.7217 68.0382 55.2194 67.4299 55.2194C66.8493 55.2194 66.3516 54.7494 66.3516 54.1411C66.3516 53.5604 66.8216 53.0627 67.4299 53.0627C68.0382 53.0627 68.5083 53.5328 68.5083 54.1411Z" fill="white"/>
<path d="M49.1534 45.0999C49.1534 45.4593 48.8492 45.7635 48.4898 45.7635C48.1303 45.7635 47.8262 45.4593 47.8262 45.0999C47.8262 44.7404 48.1303 44.4363 48.4898 44.4363C48.8492 44.4363 49.1534 44.7404 49.1534 45.0999Z" fill="white"/>
<path d="M53.7713 71.5883C53.7713 72.1689 53.3013 72.639 52.7206 72.639C52.14 72.639 51.6699 72.1689 51.6699 71.5883C51.6699 71.0076 52.14 70.5376 52.7206 70.5376C53.3013 70.5376 53.7713 71.0076 53.7713 71.5883Z" fill="white"/>
<path d="M32.0659 49.3301C32.4324 49.3301 32.7295 49.033 32.7295 48.6665C32.7295 48.3 32.4324 48.0029 32.0659 48.0029C31.6994 48.0029 31.4023 48.3 31.4023 48.6665C31.4023 49.033 31.6994 49.3301 32.0659 49.3301Z" fill="white"/>
<path d="M35.1905 70.2334C35.1905 70.5929 34.8863 70.897 34.5269 70.897C34.1674 70.897 33.8633 70.5929 33.8633 70.2334C33.8633 69.874 34.1674 69.5698 34.5269 69.5698C34.8863 69.5698 35.1905 69.874 35.1905 70.2334Z" fill="white"/>
<path d="M24.2417 82.261C24.6082 82.261 24.9053 81.9639 24.9053 81.5974C24.9053 81.2309 24.6082 80.9338 24.2417 80.9338C23.8752 80.9338 23.5781 81.2309 23.5781 81.5974C23.5781 81.9639 23.8752 82.261 24.2417 82.261Z" fill="white"/>
<path d="M33.9188 93.4315C33.9188 93.8739 33.5593 94.261 33.0893 94.261C32.6469 94.261 32.2598 93.9016 32.2598 93.4315C32.2598 92.9891 32.6192 92.6021 33.0893 92.6021C33.5317 92.6021 33.9188 92.9615 33.9188 93.4315Z" fill="white"/>
<path d="M16.417 82.6758C16.417 83.0352 16.1129 83.3394 15.7534 83.3394C15.394 83.3394 15.0898 83.0352 15.0898 82.6758C15.0898 82.3164 15.394 82.0122 15.7534 82.0122C16.1129 82.0122 16.417 82.3164 16.417 82.6758Z" fill="white"/>
<path d="M24.2417 82.261C24.6082 82.261 24.9053 81.9639 24.9053 81.5974C24.9053 81.2309 24.6082 80.9338 24.2417 80.9338C23.8752 80.9338 23.5781 81.2309 23.5781 81.5974C23.5781 81.9639 23.8752 82.261 24.2417 82.261Z" fill="white"/>
<path d="M23.3018 62.0213C23.3018 62.3808 22.9976 62.6849 22.6382 62.6849C22.2788 62.6849 21.9746 62.3808 21.9746 62.0213C21.9746 61.6619 22.2788 61.3577 22.6382 61.3577C22.9976 61.3301 23.3018 61.6342 23.3018 62.0213Z" fill="white"/>
<path d="M35.1905 70.2334C35.1905 70.5929 34.8863 70.897 34.5269 70.897C34.1674 70.897 33.8633 70.5929 33.8633 70.2334C33.8633 69.874 34.1674 69.5698 34.5269 69.5698C34.8863 69.5698 35.1905 69.874 35.1905 70.2334Z" fill="white"/>
<path d="M14.4248 71.3948C14.4248 71.7542 14.1207 72.0584 13.7613 72.0584C13.4018 72.0584 13.0977 71.7542 13.0977 71.3948C13.0977 71.0353 13.4018 70.7312 13.7613 70.7312C14.1207 70.7312 14.4248 71.0353 14.4248 71.3948Z" fill="white"/>
<path d="M24.2417 82.261C24.6082 82.261 24.9053 81.9639 24.9053 81.5974C24.9053 81.2309 24.6082 80.9338 24.2417 80.9338C23.8752 80.9338 23.5781 81.2309 23.5781 81.5974C23.5781 81.9639 23.8752 82.261 24.2417 82.261Z" fill="white"/>
<path d="M8.70219 71.7263C8.70219 72.0858 8.39804 72.3899 8.0386 72.3899C7.67915 72.3899 7.375 72.0858 7.375 71.7263C7.375 71.3669 7.67915 71.0627 8.0386 71.0627C8.39804 71.0627 8.70219 71.3669 8.70219 71.7263Z" fill="white"/>
<path d="M16.417 82.6758C16.417 83.0352 16.1129 83.3394 15.7534 83.3394C15.394 83.3394 15.0898 83.0352 15.0898 82.6758C15.0898 82.3164 15.394 82.0122 15.7534 82.0122C16.1129 82.0122 16.417 82.3164 16.417 82.6758Z" fill="white"/>
<path d="M14.4248 71.3948C14.4248 71.7542 14.1207 72.0584 13.7613 72.0584C13.4018 72.0584 13.0977 71.7542 13.0977 71.3948C13.0977 71.0353 13.4018 70.7312 13.7613 70.7312C14.1207 70.7312 14.4248 71.0353 14.4248 71.3948Z" fill="white"/>
<path d="M8.70219 71.7263C8.70219 72.0858 8.39804 72.3899 8.0386 72.3899C7.67915 72.3899 7.375 72.0858 7.375 71.7263C7.375 71.3669 7.67915 71.0627 8.0386 71.0627C8.39804 71.0627 8.70219 71.3669 8.70219 71.7263Z" fill="white"/>
<path d="M4.16703 59.1734C4.16703 59.5328 3.86289 59.837 3.50344 59.837C3.14399 59.837 2.83984 59.5328 2.83984 59.1734C2.83984 58.8139 3.14399 58.5098 3.50344 58.5098C3.86289 58.5098 4.16703 58.7863 4.16703 59.1734Z" fill="white"/>
<path d="M14.6192 71.3946C14.6192 71.8646 14.2321 72.2793 13.7344 72.2793C13.2644 72.2793 12.8496 71.8923 12.8496 71.3946C12.8496 70.9245 13.2367 70.5098 13.7344 70.5098C14.2321 70.5098 14.6192 70.9245 14.6192 71.3946Z" fill="white"/>
<path d="M23.3018 62.0213C23.3018 62.3808 22.9976 62.6849 22.6382 62.6849C22.2788 62.6849 21.9746 62.3808 21.9746 62.0213C21.9746 61.6619 22.2788 61.3577 22.6382 61.3577C22.9976 61.3301 23.3018 61.6342 23.3018 62.0213Z" fill="white"/>
<path d="M49.1534 45.0999C49.1534 45.4593 48.8492 45.7635 48.4898 45.7635C48.1303 45.7635 47.8262 45.4593 47.8262 45.0999C47.8262 44.7404 48.1303 44.4363 48.4898 44.4363C48.8492 44.4363 49.1534 44.7404 49.1534 45.0999Z" fill="white"/>
<path d="M72.1299 37.4961C72.1299 37.8556 71.8258 38.1597 71.4663 38.1597C71.1069 38.1597 70.8027 37.8556 70.8027 37.4961C70.8027 37.1367 71.1069 36.8325 71.4663 36.8325C71.8258 36.8325 72.1299 37.1367 72.1299 37.4961Z" fill="white"/>
<path d="M94.1947 44.6574C94.1947 44.8786 94.0012 45.0722 93.78 45.0722C93.5588 45.0722 93.3652 44.8786 93.3652 44.6574C93.3652 44.4362 93.5588 44.2427 93.78 44.2427C94.0012 44.2427 94.1947 44.4086 94.1947 44.6574Z" fill="white"/>
<path d="M93.9195 55.3301C94.2859 55.3301 94.583 55.033 94.583 54.6665C94.583 54.3 94.2859 54.0029 93.9195 54.0029C93.553 54.0029 93.2559 54.3 93.2559 54.6665C93.2559 55.033 93.553 55.3301 93.9195 55.3301Z" fill="white"/>
<path d="M89.1905 28.3716C89.1905 28.731 88.8863 29.0352 88.5269 29.0352C88.1674 29.0352 87.8633 28.731 87.8633 28.3716C87.8633 28.0122 88.1674 27.708 88.5269 27.708C88.8863 27.708 89.1905 28.0122 89.1905 28.3716Z" fill="white"/>
<path d="M72.1299 37.4961C72.1299 37.8556 71.8258 38.1597 71.4663 38.1597C71.1069 38.1597 70.8027 37.8556 70.8027 37.4961C70.8027 37.1367 71.1069 36.8325 71.4663 36.8325C71.8258 36.8325 72.1299 37.1367 72.1299 37.4961Z" fill="white"/>
<path d="M85.1807 43.3855C85.1807 43.745 84.8766 44.0491 84.5171 44.0491C84.1577 44.0491 83.8535 43.745 83.8535 43.3855C83.8535 43.0261 84.1577 42.7219 84.5171 42.7219C84.8766 42.7219 85.1807 43.0261 85.1807 43.3855Z" fill="white"/>
<path d="M93.3936 38.989C93.3936 39.3485 93.0895 39.6526 92.73 39.6526C92.3706 39.6526 92.0664 39.3485 92.0664 38.989C92.0664 38.6296 92.3706 38.3254 92.73 38.3254C93.0895 38.3254 93.3936 38.6019 93.3936 38.989Z" fill="white"/>
<path d="M89.1905 28.3716C89.1905 28.731 88.8863 29.0352 88.5269 29.0352C88.1674 29.0352 87.8633 28.731 87.8633 28.3716C87.8633 28.0122 88.1674 27.708 88.5269 27.708C88.8863 27.708 89.1905 28.0122 89.1905 28.3716Z" fill="white"/>
<path d="M85.1807 43.3855C85.1807 43.745 84.8766 44.0491 84.5171 44.0491C84.1577 44.0491 83.8535 43.745 83.8535 43.3855C83.8535 43.0261 84.1577 42.7219 84.5171 42.7219C84.8766 42.7219 85.1807 43.0261 85.1807 43.3855Z" fill="white"/>
<path d="M53.6338 20.0767C53.6338 20.4362 53.3297 20.7403 52.9702 20.7403C52.6108 20.7403 52.3066 20.4362 52.3066 20.0767C52.3066 19.7173 52.6108 19.4131 52.9702 19.4131C53.3297 19.3855 53.6338 19.6896 53.6338 20.0767Z" fill="white"/>
<path d="M89.1905 28.3716C89.1905 28.731 88.8863 29.0352 88.5269 29.0352C88.1674 29.0352 87.8633 28.731 87.8633 28.3716C87.8633 28.0122 88.1674 27.708 88.5269 27.708C88.8863 27.708 89.1905 28.0122 89.1905 28.3716Z" fill="white"/>
<path d="M72.1299 37.4961C72.1299 37.8556 71.8258 38.1597 71.4663 38.1597C71.1069 38.1597 70.8027 37.8556 70.8027 37.4961C70.8027 37.1367 71.1069 36.8325 71.4663 36.8325C71.8258 36.8325 72.1299 37.1367 72.1299 37.4961Z" fill="white"/>
<path d="M71.5772 10.5652C71.5772 10.9247 71.273 11.2288 70.9136 11.2288C70.5541 11.2288 70.25 10.9247 70.25 10.5652C70.25 10.2058 70.5541 9.90161 70.9136 9.90161C71.273 9.90161 71.5772 10.1781 71.5772 10.5652Z" fill="white"/>
<path d="M82.0566 18.6943C82.0566 18.9984 81.8077 19.2196 81.5312 19.2196C81.2271 19.2196 81.0059 18.9708 81.0059 18.6943C81.0059 18.4178 81.2547 18.1689 81.5312 18.1689C81.8077 18.1689 82.0566 18.4178 82.0566 18.6943Z" fill="white"/>
<path d="M57.2554 10.3716C57.6219 10.3716 57.919 10.0745 57.919 9.70803C57.919 9.34154 57.6219 9.04443 57.2554 9.04443C56.8889 9.04443 56.5918 9.34154 56.5918 9.70803C56.5918 10.0745 56.8889 10.3716 57.2554 10.3716Z" fill="white"/>
<path d="M59.9639 5.94757C59.9639 6.30702 59.6598 6.61116 59.3003 6.61116C58.9409 6.61116 58.6367 6.30702 58.6367 5.94757C58.6367 5.58812 58.9409 5.28397 59.3003 5.28397C59.6598 5.25632 59.9639 5.56047 59.9639 5.94757Z" fill="white"/>
<path d="M66.2409 13.4408C66.47 13.4408 66.6557 13.2551 66.6557 13.0261C66.6557 12.797 66.47 12.6113 66.2409 12.6113C66.0119 12.6113 65.8262 12.797 65.8262 13.0261C65.8262 13.2551 66.0119 13.4408 66.2409 13.4408Z" fill="white"/>
<path d="M71.3836 14.7955C71.3836 15.0167 71.2177 15.1826 70.9965 15.1826C70.7753 15.1826 70.6094 15.0167 70.6094 14.7955C70.6094 14.5743 70.7753 14.4084 70.9965 14.4084C71.2177 14.4084 71.3836 14.602 71.3836 14.7955Z" fill="white"/>
<path d="M71.1351 24.6941C71.3489 24.6941 71.5222 24.5208 71.5222 24.307C71.5222 24.0932 71.3489 23.9199 71.1351 23.9199C70.9214 23.9199 70.748 24.0932 70.748 24.307C70.748 24.5208 70.9214 24.6941 71.1351 24.6941Z" fill="white"/>
<path d="M71.0805 19.5513C71.2942 19.5513 71.4675 19.378 71.4675 19.1642C71.4675 18.9504 71.2942 18.7771 71.0805 18.7771C70.8667 18.7771 70.6934 18.9504 70.6934 19.1642C70.6934 19.378 70.8667 19.5513 71.0805 19.5513Z" fill="white"/>
<path d="M77.6605 26.2427C77.8743 26.2427 78.0476 26.0694 78.0476 25.8556C78.0476 25.6418 77.8743 25.4685 77.6605 25.4685C77.4468 25.4685 77.2734 25.6418 77.2734 25.8556C77.2734 26.0694 77.4468 26.2427 77.6605 26.2427Z" fill="white"/>
<path d="M82.4984 27.3487C82.7122 27.3487 82.8855 27.1753 82.8855 26.9616C82.8855 26.7478 82.7122 26.5745 82.4984 26.5745C82.2846 26.5745 82.1113 26.7478 82.1113 26.9616C82.1113 27.1753 82.2846 27.3487 82.4984 27.3487Z" fill="white"/>
<path d="M83.4676 31.3026C83.4676 31.5238 83.3017 31.6897 83.0805 31.6897C82.8593 31.6897 82.6934 31.5238 82.6934 31.3026C82.6934 31.0814 82.8593 30.9155 83.0805 30.9155C83.3017 30.9155 83.4676 31.0814 83.4676 31.3026Z" fill="white"/>
<path d="M84.2973 41.9475C84.511 41.9475 84.6844 41.7742 84.6844 41.5604C84.6844 41.3466 84.511 41.1733 84.2973 41.1733C84.0835 41.1733 83.9102 41.3466 83.9102 41.5604C83.9102 41.7742 84.0835 41.9475 84.2973 41.9475Z" fill="white"/>
<path d="M86.9226 42.3348C86.9226 42.556 86.7567 42.7219 86.5355 42.7219C86.3143 42.7219 86.1484 42.556 86.1484 42.3348C86.1484 42.1137 86.3143 41.9478 86.5355 41.9478C86.7567 41.9478 86.9226 42.1137 86.9226 42.3348Z" fill="white"/>
<path d="M76.4164 48.8601C76.6302 48.8601 76.8035 48.6868 76.8035 48.473C76.8035 48.2592 76.6302 48.0859 76.4164 48.0859C76.2026 48.0859 76.0293 48.2592 76.0293 48.473C76.0293 48.6868 76.2026 48.8601 76.4164 48.8601Z" fill="white"/>
<path d="M86.3148 56.2149C86.5286 56.2149 86.7019 56.0416 86.7019 55.8278C86.7019 55.614 86.5286 55.4407 86.3148 55.4407C86.101 55.4407 85.9277 55.614 85.9277 55.8278C85.9277 56.0416 86.101 56.2149 86.3148 56.2149Z" fill="white"/>
<path d="M87.448 60.9984C87.448 61.2196 87.2821 61.3855 87.0609 61.3855C86.8397 61.3855 86.6738 61.2196 86.6738 60.9984C86.6738 60.7772 86.8397 60.6113 87.0609 60.6113C87.2821 60.6113 87.448 60.7772 87.448 60.9984Z" fill="white"/>
<path d="M75.6703 67.4131C75.8841 67.4131 76.0574 67.2398 76.0574 67.026C76.0574 66.8122 75.8841 66.6389 75.6703 66.6389C75.4565 66.6389 75.2832 66.8122 75.2832 67.026C75.2832 67.2398 75.4565 67.4131 75.6703 67.4131Z" fill="white"/>
<path d="M68.8949 68.906C69.1087 68.906 69.282 68.7327 69.282 68.5189C69.282 68.3052 69.1087 68.1318 68.8949 68.1318C68.6811 68.1318 68.5078 68.3052 68.5078 68.5189C68.5078 68.7327 68.6811 68.906 68.8949 68.906Z" fill="white"/>
<path d="M56.2601 86.1321C56.4739 86.1321 56.6472 85.9588 56.6472 85.745C56.6472 85.5312 56.4739 85.3579 56.2601 85.3579C56.0464 85.3579 55.873 85.5312 55.873 85.745C55.873 85.9588 56.0464 86.1321 56.2601 86.1321Z" fill="white"/>
<path d="M54.932 80.9615C55.1458 80.9615 55.3191 80.7881 55.3191 80.5744C55.3191 80.3606 55.1458 80.1873 54.932 80.1873C54.7182 80.1873 54.5449 80.3606 54.5449 80.5744C54.5449 80.7881 54.7182 80.9615 54.932 80.9615Z" fill="white"/>
<path d="M43.4574 81.3762C43.6712 81.3762 43.8445 81.2029 43.8445 80.9891C43.8445 80.7754 43.6712 80.6021 43.4574 80.6021C43.2436 80.6021 43.0703 80.7754 43.0703 80.9891C43.0703 81.2029 43.2436 81.3762 43.4574 81.3762Z" fill="white"/>
<path d="M33.8074 87.6251C33.8074 87.8463 33.6415 88.0122 33.4203 88.0122C33.1991 88.0122 33.0332 87.8463 33.0332 87.6251C33.0332 87.4039 33.1991 87.238 33.4203 87.238C33.6415 87.238 33.8074 87.4316 33.8074 87.6251Z" fill="white"/>
<path d="M27.5043 86.3533C27.7181 86.3533 27.8914 86.18 27.8914 85.9662C27.8914 85.7524 27.7181 85.5791 27.5043 85.5791C27.2905 85.5791 27.1172 85.7524 27.1172 85.9662C27.1172 86.18 27.2905 86.3533 27.5043 86.3533Z" fill="white"/>
<path d="M33.8637 81.708C34.0774 81.708 34.2508 81.5347 34.2508 81.3209C34.2508 81.1071 34.0774 80.9338 33.8637 80.9338C33.6499 80.9338 33.4766 81.1071 33.4766 81.3209C33.4766 81.5347 33.6499 81.708 33.8637 81.708Z" fill="white"/>
<path d="M14.6469 75.9846C14.8607 75.9846 15.034 75.8113 15.034 75.5975C15.034 75.3838 14.8607 75.2104 14.6469 75.2104C14.4331 75.2104 14.2598 75.3838 14.2598 75.5975C14.2598 75.8113 14.4331 75.9846 14.6469 75.9846Z" fill="white"/>
<path d="M13.1254 75.2657C13.3392 75.2657 13.5125 75.0923 13.5125 74.8786C13.5125 74.6648 13.3392 74.4915 13.1254 74.4915C12.9116 74.4915 12.7383 74.6648 12.7383 74.8786C12.7383 75.0923 12.9116 75.2657 13.1254 75.2657Z" fill="white"/>
<path d="M12.0199 71.8924C12.2337 71.8924 12.407 71.719 12.407 71.5053C12.407 71.2915 12.2337 71.1182 12.0199 71.1182C11.8061 71.1182 11.6328 71.2915 11.6328 71.5053C11.6328 71.719 11.8061 71.8924 12.0199 71.8924Z" fill="white"/>
<path d="M11.2742 68.1044C11.2742 68.3256 11.1083 68.4915 10.8871 68.4915C10.6659 68.4915 10.5 68.3256 10.5 68.1044C10.5 67.8832 10.6659 67.7173 10.8871 67.7173C11.0806 67.7173 11.2742 67.8832 11.2742 68.1044Z" fill="white"/>
<path d="M8.2035 60.2796C8.41729 60.2796 8.5906 60.1063 8.5906 59.8925C8.5906 59.6787 8.41729 59.5054 8.2035 59.5054C7.98972 59.5054 7.81641 59.6787 7.81641 59.8925C7.81641 60.1063 7.98972 60.2796 8.2035 60.2796Z" fill="white"/>
<path d="M7.5121 58.0122C7.72589 58.0122 7.89919 57.8389 7.89919 57.6251C7.89919 57.4113 7.72589 57.238 7.5121 57.238C7.29831 57.238 7.125 57.4113 7.125 57.6251C7.125 57.8389 7.29831 58.0122 7.5121 58.0122Z" fill="white"/>
<path d="M23.7156 70.8693C23.7156 71.0905 23.5497 71.2564 23.3285 71.2564C23.1073 71.2564 22.9414 71.0905 22.9414 70.8693C22.9414 70.6481 23.1073 70.4822 23.3285 70.4822C23.5497 70.4822 23.7156 70.6481 23.7156 70.8693Z" fill="white"/>
<path d="M15.9457 54.9707C16.1595 54.9707 16.3328 54.7974 16.3328 54.5836C16.3328 54.3698 16.1595 54.1965 15.9457 54.1965C15.7319 54.1965 15.5586 54.3698 15.5586 54.5836C15.5586 54.7974 15.7319 54.9707 15.9457 54.9707Z" fill="white"/>
<path d="M6.29568 52.5653C6.29568 52.7865 6.12978 52.9524 5.90858 52.9524C5.68738 52.9524 5.52148 52.7865 5.52148 52.5653C5.52148 52.3441 5.68738 52.1782 5.90858 52.1782C6.10213 52.1782 6.29568 52.3441 6.29568 52.5653Z" fill="white"/>
<path d="M9.33827 34.5652C9.55206 34.5652 9.72537 34.3919 9.72537 34.1781C9.72537 33.9643 9.55206 33.791 9.33827 33.791C9.12448 33.791 8.95117 33.9643 8.95117 34.1781C8.95117 34.3919 9.12448 34.5652 9.33827 34.5652Z" fill="white"/>
<path d="M17.4672 22.814C17.681 22.814 17.8543 22.6407 17.8543 22.4269C17.8543 22.2131 17.681 22.0398 17.4672 22.0398C17.2534 22.0398 17.0801 22.2131 17.0801 22.4269C17.0801 22.6407 17.2534 22.814 17.4672 22.814Z" fill="white"/>
<path d="M10.0574 29.5328C10.0574 29.754 9.8915 29.9199 9.6703 29.9199C9.4491 29.9199 9.2832 29.754 9.2832 29.5328C9.2832 29.3116 9.4491 29.1458 9.6703 29.1458C9.8915 29.1458 10.0574 29.3116 10.0574 29.5328Z" fill="white"/>
<path d="M20.9223 19.6343C21.136 19.6343 21.3094 19.461 21.3094 19.2472C21.3094 19.0334 21.136 18.8601 20.9223 18.8601C20.7085 18.8601 20.5352 19.0334 20.5352 19.2472C20.5352 19.461 20.7085 19.6343 20.9223 19.6343Z" fill="white"/>
<path d="M14.6746 25.3854C14.6746 25.6066 14.5087 25.7725 14.2875 25.7725C14.0663 25.7725 13.9004 25.6066 13.9004 25.3854C13.9004 25.1642 14.0663 24.9983 14.2875 24.9983C14.5087 24.9983 14.6746 25.1642 14.6746 25.3854Z" fill="white"/>
<path d="M35.4949 12.5836C35.4949 12.8048 35.329 12.9707 35.1078 12.9707C34.8866 12.9707 34.7207 12.8048 34.7207 12.5836C34.7207 12.3624 34.8866 12.1965 35.1078 12.1965C35.329 12.1965 35.4949 12.3624 35.4949 12.5836Z" fill="white"/>
<path d="M36.8777 9.56971C36.8777 9.79091 36.7118 9.95681 36.4906 9.95681C36.2694 9.95681 36.1035 9.79091 36.1035 9.56971C36.1035 9.34852 36.2694 9.18262 36.4906 9.18262C36.7118 9.18262 36.8777 9.34852 36.8777 9.56971Z" fill="white"/>
<path d="M30.3793 11.0628C30.5931 11.0628 30.7664 10.8895 30.7664 10.6757C30.7664 10.4619 30.5931 10.2886 30.3793 10.2886C30.1655 10.2886 29.9922 10.4619 29.9922 10.6757C29.9922 10.8895 30.1655 11.0628 30.3793 11.0628Z" fill="white"/>
<path d="M28.2504 12.9983C28.4642 12.9983 28.6375 12.825 28.6375 12.6112C28.6375 12.3974 28.4642 12.2241 28.2504 12.2241C28.0366 12.2241 27.8633 12.3974 27.8633 12.6112C27.8633 12.825 28.0366 12.9983 28.2504 12.9983Z" fill="white"/>
<path d="M31.5687 9.90163C31.7825 9.90163 31.9558 9.72833 31.9558 9.51454C31.9558 9.30075 31.7825 9.12744 31.5687 9.12744C31.3549 9.12744 31.1816 9.30075 31.1816 9.51454C31.1816 9.72833 31.3549 9.90163 31.5687 9.90163Z" fill="white"/>
<path d="M48.7664 9.62489C48.7664 9.84609 48.6005 10.012 48.3793 10.012C48.1581 10.012 47.9922 9.84609 47.9922 9.62489C47.9922 9.40369 48.1581 9.23779 48.3793 9.23779C48.6005 9.23779 48.7664 9.40369 48.7664 9.62489Z" fill="white"/>
<path d="M40.4441 28.1503C40.4441 28.3715 40.2782 28.5374 40.057 28.5374C39.8358 28.5374 39.6699 28.3715 39.6699 28.1503C39.6699 27.9291 39.8358 27.7632 40.057 27.7632C40.2782 27.7632 40.4441 27.9291 40.4441 28.1503Z" fill="white"/>
<path d="M35.3012 31.4683C35.5149 31.4683 35.6883 31.295 35.6883 31.0812C35.6883 30.8674 35.5149 30.6941 35.3012 30.6941C35.0874 30.6941 34.9141 30.8674 34.9141 31.0812C34.9141 31.295 35.0874 31.4683 35.3012 31.4683Z" fill="white"/>
<path d="M51.3093 31.33C51.3093 31.5512 51.1434 31.7171 50.9223 31.7171C50.7011 31.7171 50.5352 31.5512 50.5352 31.33C50.5352 31.1088 50.7011 30.9429 50.9223 30.9429C51.1434 30.9429 51.3093 31.1088 51.3093 31.33Z" fill="white"/>
<path d="M58.389 7.96609C58.6028 7.96609 58.7761 7.79278 58.7761 7.57899C58.7761 7.3652 58.6028 7.19189 58.389 7.19189C58.1753 7.19189 58.002 7.3652 58.002 7.57899C58.002 7.79278 58.1753 7.96609 58.389 7.96609Z" fill="white"/>
<path d="M71.5772 10.5652C71.5772 10.9247 71.273 11.2288 70.9136 11.2288C70.5541 11.2288 70.25 10.9247 70.25 10.5652C70.25 10.2058 70.5541 9.90161 70.9136 9.90161C71.273 9.90161 71.5772 10.1781 71.5772 10.5652Z" fill="white"/>
<path d="M46.8858 4.70339C46.8858 5.06284 46.5816 5.36698 46.2222 5.36698C45.8627 5.36698 45.5586 5.06284 45.5586 4.70339C45.5586 4.34394 45.8627 4.03979 46.2222 4.03979C46.5816 4.03979 46.8858 4.34394 46.8858 4.70339Z" fill="white"/>
<path d="M57.2554 10.3716C57.6219 10.3716 57.919 10.0745 57.919 9.70803C57.919 9.34154 57.6219 9.04443 57.2554 9.04443C56.8889 9.04443 56.5918 9.34154 56.5918 9.70803C56.5918 10.0745 56.8889 10.3716 57.2554 10.3716Z" fill="white"/>
<path d="M71.9094 10.565C71.9094 11.118 71.467 11.5881 70.8863 11.5881C70.3333 11.5881 69.8633 11.1457 69.8633 10.565C69.8633 10.012 70.3057 9.54199 70.8863 9.54199C71.467 9.54199 71.9094 9.98439 71.9094 10.565Z" fill="white"/>
<path d="M53.6338 20.0767C53.6338 20.4362 53.3297 20.7403 52.9702 20.7403C52.6108 20.7403 52.3066 20.4362 52.3066 20.0767C52.3066 19.7173 52.6108 19.4131 52.9702 19.4131C53.3297 19.3855 53.6338 19.6896 53.6338 20.0767Z" fill="white"/>
<path d="M73.0409 39.1963C73.9797 38.3223 74.0322 36.8527 73.1582 35.9138C72.2841 34.975 70.8145 34.9225 69.8757 35.7965C68.9368 36.6706 68.8843 38.1402 69.7584 39.079C70.6324 40.0179 72.1021 40.0704 73.0409 39.1963Z" fill="white"/>
<path d="M29.4937 25.5789C29.8602 25.5789 30.1573 25.2818 30.1573 24.9153C30.1573 24.5488 29.8602 24.2517 29.4937 24.2517C29.1272 24.2517 28.8301 24.5488 28.8301 24.9153C28.8301 25.2818 29.1272 25.5789 29.4937 25.5789Z" fill="white"/>
<path d="M49.1534 45.0999C49.1534 45.4593 48.8492 45.7635 48.4898 45.7635C48.1303 45.7635 47.8262 45.4593 47.8262 45.0999C47.8262 44.7404 48.1303 44.4363 48.4898 44.4363C48.8492 44.4363 49.1534 44.7404 49.1534 45.0999Z" fill="white"/>
<path d="M53.6338 20.0767C53.6338 20.4362 53.3297 20.7403 52.9702 20.7403C52.6108 20.7403 52.3066 20.4362 52.3066 20.0767C52.3066 19.7173 52.6108 19.4131 52.9702 19.4131C53.3297 19.3855 53.6338 19.6896 53.6338 20.0767Z" fill="white"/>
<path d="M25.0987 37.8555C25.0987 38.2149 24.7945 38.5191 24.4351 38.5191C24.0756 38.5191 23.7715 38.2149 23.7715 37.8555C23.7715 37.496 24.0756 37.1919 24.4351 37.1919C24.7945 37.1919 25.0987 37.496 25.0987 37.8555Z" fill="white"/>
<path d="M32.0659 49.3301C32.4324 49.3301 32.7295 49.033 32.7295 48.6665C32.7295 48.3 32.4324 48.0029 32.0659 48.0029C31.6994 48.0029 31.4023 48.3 31.4023 48.6665C31.4023 49.033 31.6994 49.3301 32.0659 49.3301Z" fill="white"/>
<path d="M50.2878 45.0997C50.2878 46.0951 49.486 46.897 48.4906 46.897C47.4952 46.897 46.6934 46.0951 46.6934 45.0997C46.6934 44.1043 47.4952 43.3025 48.4906 43.3025C49.486 43.3025 50.2878 44.1043 50.2878 45.0997Z" fill="white"/>
<path d="M25.0987 37.8555C25.0987 38.2149 24.7945 38.5191 24.4351 38.5191C24.0756 38.5191 23.7715 38.2149 23.7715 37.8555C23.7715 37.496 24.0756 37.1919 24.4351 37.1919C24.7945 37.1919 25.0987 37.496 25.0987 37.8555Z" fill="white"/>
<path d="M23.3018 62.0213C23.3018 62.3808 22.9976 62.6849 22.6382 62.6849C22.2788 62.6849 21.9746 62.3808 21.9746 62.0213C21.9746 61.6619 22.2788 61.3577 22.6382 61.3577C22.9976 61.3301 23.3018 61.6342 23.3018 62.0213Z" fill="white"/>
<path d="M32.0667 49.579C32.5707 49.579 32.9792 49.1705 32.9792 48.6666C32.9792 48.1627 32.5707 47.7542 32.0667 47.7542C31.5628 47.7542 31.1543 48.1627 31.1543 48.6666C31.1543 49.1705 31.5628 49.579 32.0667 49.579Z" fill="white"/>
<path d="M4.16703 59.1734C4.16703 59.5328 3.86289 59.837 3.50344 59.837C3.14399 59.837 2.83984 59.5328 2.83984 59.1734C2.83984 58.8139 3.14399 58.5098 3.50344 58.5098C3.86289 58.5098 4.16703 58.7863 4.16703 59.1734Z" fill="white"/>
<path d="M24.6064 62.4712C24.8634 61.3865 24.1923 60.2988 23.1075 60.0419C22.0228 59.7849 20.9351 60.456 20.6781 61.5407C20.4212 62.6255 21.0923 63.7132 22.177 63.9701C23.2618 64.2271 24.3495 63.556 24.6064 62.4712Z" fill="white"/>
<path d="M8.89555 46.0122C8.89555 46.3717 8.5914 46.6758 8.23195 46.6758C7.87251 46.6758 7.56836 46.3717 7.56836 46.0122C7.56836 45.6528 7.87251 45.3486 8.23195 45.3486C8.5914 45.3486 8.89555 45.6528 8.89555 46.0122Z" fill="white"/>
<path d="M3.78031 44.4085C3.78031 44.7679 3.47617 45.0721 3.11672 45.0721C2.75727 45.0721 2.45312 44.7679 2.45312 44.4085C2.45312 44.049 2.75727 43.7449 3.11672 43.7449C3.47617 43.7449 3.78031 44.0214 3.78031 44.4085Z" fill="white"/>
<path d="M4.16703 59.1734C4.16703 59.5328 3.86289 59.837 3.50344 59.837C3.14399 59.837 2.83984 59.5328 2.83984 59.1734C2.83984 58.8139 3.14399 58.5098 3.50344 58.5098C3.86289 58.5098 4.16703 58.7863 4.16703 59.1734Z" fill="white"/>
<path d="M8.89555 46.0122C8.89555 46.3717 8.5914 46.6758 8.23195 46.6758C7.87251 46.6758 7.56836 46.3717 7.56836 46.0122C7.56836 45.6528 7.87251 45.3486 8.23195 45.3486C8.5914 45.3486 8.89555 45.6528 8.89555 46.0122Z" fill="white"/>
<path d="M25.0987 37.8555C25.0987 38.2149 24.7945 38.5191 24.4351 38.5191C24.0756 38.5191 23.7715 38.2149 23.7715 37.8555C23.7715 37.496 24.0756 37.1919 24.4351 37.1919C24.7945 37.1919 25.0987 37.496 25.0987 37.8555Z" fill="white"/>
<path d="M6.32328 33.2381C6.32328 33.5975 6.01914 33.9017 5.65969 33.9017C5.30024 33.9017 4.99609 33.5975 4.99609 33.2381C4.99609 32.8786 5.30024 32.5745 5.65969 32.5745C6.01914 32.5745 6.32328 32.851 6.32328 33.2381Z" fill="white"/>
<path d="M8.89555 46.0122C8.89555 46.3717 8.5914 46.6758 8.23195 46.6758C7.87251 46.6758 7.56836 46.3717 7.56836 46.0122C7.56836 45.6528 7.87251 45.3486 8.23195 45.3486C8.5914 45.3486 8.89555 45.6528 8.89555 46.0122Z" fill="white"/>
<path d="M6.32328 33.2381C6.32328 33.5975 6.01914 33.9017 5.65969 33.9017C5.30024 33.9017 4.99609 33.5975 4.99609 33.2381C4.99609 32.8786 5.30024 32.5745 5.65969 32.5745C6.01914 32.5745 6.32328 32.851 6.32328 33.2381Z" fill="white"/>
<path d="M13.6245 27.7632C13.991 27.7632 14.2881 27.4661 14.2881 27.0996C14.2881 26.7331 13.991 26.436 13.6245 26.436C13.258 26.436 12.9609 26.7331 12.9609 27.0996C12.9609 27.4661 13.258 27.7632 13.6245 27.7632Z" fill="white"/>
<path d="M10.0566 26.049C10.3467 26.049 10.5819 25.8138 10.5819 25.5236C10.5819 25.2335 10.3467 24.9983 10.0566 24.9983C9.76645 24.9983 9.53125 25.2335 9.53125 25.5236C9.53125 25.8138 9.76645 26.049 10.0566 26.049Z" fill="white"/>
<path d="M25.9555 37.8555C25.9555 38.6849 25.2643 39.3762 24.4348 39.3762C23.6053 39.3762 22.9141 38.6849 22.9141 37.8555C22.9141 37.026 23.6053 36.3347 24.4348 36.3347C25.2643 36.3347 25.9555 37.026 25.9555 37.8555Z" fill="white"/>
<path d="M29.4937 25.5789C29.8602 25.5789 30.1573 25.2818 30.1573 24.9153C30.1573 24.5488 29.8602 24.2517 29.4937 24.2517C29.1272 24.2517 28.8301 24.5488 28.8301 24.9153C28.8301 25.2818 29.1272 25.5789 29.4937 25.5789Z" fill="white"/>
<path d="M53.6338 20.0767C53.6338 20.4362 53.3297 20.7403 52.9702 20.7403C52.6108 20.7403 52.3066 20.4362 52.3066 20.0767C52.3066 19.7173 52.6108 19.4131 52.9702 19.4131C53.3297 19.3855 53.6338 19.6896 53.6338 20.0767Z" fill="white"/>
<path d="M57.2542 10.6205C57.7582 10.6205 58.1667 10.212 58.1667 9.7081C58.1667 9.20417 57.7582 8.79565 57.2542 8.79565C56.7503 8.79565 56.3418 9.20417 56.3418 9.7081C56.3418 10.212 56.7503 10.6205 57.2542 10.6205Z" fill="white"/>
<path d="M27.8902 10.2056C28.2566 10.2056 28.5538 9.90851 28.5538 9.54201C28.5538 9.17552 28.2566 8.87842 27.8902 8.87842C27.5237 8.87842 27.2266 9.17552 27.2266 9.54201C27.2266 9.90851 27.5237 10.2056 27.8902 10.2056Z" fill="white"/>
<path d="M29.4937 25.5789C29.8602 25.5789 30.1573 25.2818 30.1573 24.9153C30.1573 24.5488 29.8602 24.2517 29.4937 24.2517C29.1272 24.2517 28.8301 24.5488 28.8301 24.9153C28.8301 25.2818 29.1272 25.5789 29.4937 25.5789Z" fill="white"/>
<path d="M17.3841 17.2841C17.6437 17.2841 17.8542 17.0736 17.8542 16.814C17.8542 16.5544 17.6437 16.344 17.3841 16.344C17.1245 16.344 16.9141 16.5544 16.9141 16.814C16.9141 17.0736 17.1245 17.2841 17.3841 17.2841Z" fill="white"/>
<path d="M27.8902 10.2056C28.2566 10.2056 28.5538 9.90851 28.5538 9.54201C28.5538 9.17552 28.2566 8.87842 27.8902 8.87842C27.5237 8.87842 27.2266 9.17552 27.2266 9.54201C27.2266 9.90851 27.5237 10.2056 27.8902 10.2056Z" fill="white"/>
<path d="M29.4937 25.5789C29.8602 25.5789 30.1573 25.2818 30.1573 24.9153C30.1573 24.5488 29.8602 24.2517 29.4937 24.2517C29.1272 24.2517 28.8301 24.5488 28.8301 24.9153C28.8301 25.2818 29.1272 25.5789 29.4937 25.5789Z" fill="white"/>
<path d="M38.8955 5.78176C38.8955 6.14121 38.5914 6.44535 38.232 6.44535C37.8725 6.44535 37.5684 6.14121 37.5684 5.78176C37.5684 5.42231 37.8725 5.11816 38.232 5.11816C38.5914 5.11816 38.8955 5.42231 38.8955 5.78176Z" fill="white"/>
<path d="M54.1578 20.0767C54.1578 20.7403 53.6048 21.2933 52.9412 21.2933C52.2776 21.2933 51.7246 20.7403 51.7246 20.0767C51.7246 19.4131 52.2776 18.8601 52.9412 18.8601C53.6324 18.8601 54.1578 19.3855 54.1578 20.0767Z" fill="white"/>
<path d="M46.8858 4.70339C46.8858 5.06284 46.5816 5.36698 46.2222 5.36698C45.8627 5.36698 45.5586 5.06284 45.5586 4.70339C45.5586 4.34394 45.8627 4.03979 46.2222 4.03979C46.5816 4.03979 46.8858 4.34394 46.8858 4.70339Z" fill="white"/>
<path d="M27.8916 10.5099C28.426 10.5099 28.8593 10.0767 28.8593 9.54221C28.8593 9.00774 28.426 8.57446 27.8916 8.57446C27.3571 8.57446 26.9238 9.00774 26.9238 9.54221C26.9238 10.0767 27.3571 10.5099 27.8916 10.5099Z" fill="white"/>
</g>
<path d="M42.7023 42.294V62.6705H37.0916V42.294H42.7023ZM36.7422 36.9833C36.7422 36.1923 37.027 35.5395 37.5964 35.0247C38.1659 34.5101 38.9295 34.2527 39.8873 34.2527C40.8321 34.2527 41.5892 34.5101 42.1587 35.0247C42.7412 35.5395 43.0323 36.1923 43.0323 36.9833C43.0323 37.7742 42.7412 38.4272 42.1587 38.9419C41.5892 39.4566 40.8321 39.714 39.8873 39.714C38.9295 39.714 38.1659 39.4566 37.5964 38.9419C37.027 38.4272 36.7422 37.7742 36.7422 36.9833ZM61.4484 35.2508V62.6705H55.6242V35.2508H61.4484ZM72.7086 46.9644V51.3712H59.8565V46.9644H72.7086ZM74.0672 35.2508V39.6764H59.8565V35.2508H74.0672ZM119.636 42.294V62.6705H114.026V42.294H119.636ZM113.676 36.9833C113.676 36.1923 113.96 35.5395 114.53 35.0247C115.099 34.5101 115.864 34.2527 116.821 34.2527C117.766 34.2527 118.523 34.5101 119.092 35.0247C119.675 35.5395 119.966 36.1923 119.966 36.9833C119.966 37.7742 119.675 38.4272 119.092 38.9419C118.523 39.4566 117.766 39.714 116.821 39.714C115.864 39.714 115.099 39.4566 114.53 38.9419C113.96 38.4272 113.676 37.7742 113.676 36.9833Z" fill="#1C1C1C"/>
<mask id="path-164-inside-1_140_31" fill="white">
<path fill-rule="evenodd" clip-rule="evenodd" d="M59.7824 87.8575C38.5942 87.8575 21.4126 71.106 21.4126 50.448C21.4126 29.79 38.5942 13.0383 59.7824 13.0383C72.1118 13.0383 83.0143 18.7096 90.0381 27.4666C81.8258 13.456 66.3678 4 48.64 4C22.3587 4 1 24.8243 1 50.448C1 72.7399 17.1654 91.3994 38.6739 95.875L25.5006 111L59.6961 95.6367C72.6789 92.6237 83.6008 84.4229 90.0483 73.4117C83.0106 82.1788 72.054 87.8575 59.7824 87.8575Z"/>
</mask>
<path fill-rule="evenodd" clip-rule="evenodd" d="M59.7824 87.8575C38.5942 87.8575 21.4126 71.106 21.4126 50.448C21.4126 29.79 38.5942 13.0383 59.7824 13.0383C72.1118 13.0383 83.0143 18.7096 90.0381 27.4666C81.8258 13.456 66.3678 4 48.64 4C22.3587 4 1 24.8243 1 50.448C1 72.7399 17.1654 91.3994 38.6739 95.875L25.5006 111L59.6961 95.6367C72.6789 92.6237 83.6008 84.4229 90.0483 73.4117C83.0106 82.1788 72.054 87.8575 59.7824 87.8575Z" fill="white"/>
<path d="M90.0381 27.4666L88.4779 28.718L91.7635 26.4552L90.0381 27.4666ZM38.6739 95.875L40.182 97.1886L42.4254 94.6128L39.0813 93.917L38.6739 95.875ZM25.5006 111L23.9924 109.686L26.3202 112.824L25.5006 111ZM59.6961 95.6367L59.244 93.6885L59.0542 93.7325L58.8765 93.8124L59.6961 95.6367ZM90.0483 73.4117L91.7742 74.4223L88.4886 72.1597L90.0483 73.4117ZM19.4126 50.448C19.4126 72.2581 37.5378 89.8575 59.7824 89.8575V85.8575C39.6507 85.8575 23.4126 69.954 23.4126 50.448H19.4126ZM59.7824 11.0383C37.5377 11.0383 19.4126 28.638 19.4126 50.448H23.4126C23.4126 30.942 39.6507 15.0383 59.7824 15.0383V11.0383ZM91.5982 26.2152C84.2077 17.001 72.7387 11.0383 59.7824 11.0383V15.0383C71.4849 15.0383 81.8209 20.4182 88.4779 28.718L91.5982 26.2152ZM48.64 6C65.644 6 80.4522 15.0676 88.3126 28.478L91.7635 26.4552C83.1994 11.8444 67.0916 2 48.64 2V6ZM3 50.448C3 25.9764 23.4152 6 48.64 6V2C21.3022 2 -1 23.6723 -1 50.448H3ZM39.0813 93.917C18.4464 89.6231 3 71.7383 3 50.448H-1C-1 73.7416 15.8843 93.1757 38.2664 97.8331L39.0813 93.917ZM27.0087 112.313L40.182 97.1886L37.1657 94.5615L23.9924 109.686L27.0087 112.313ZM58.8765 93.8124L24.6809 109.176L26.3202 112.824L60.5157 97.4611L58.8765 93.8124ZM88.3224 72.4011C82.1517 82.9397 71.6894 90.8002 59.244 93.6885L60.1483 97.5849C73.6683 94.4473 85.05 85.9061 91.7742 74.4223L88.3224 72.4011ZM59.7824 89.8575C72.6809 89.8575 84.2037 83.8875 91.6079 74.6637L88.4886 72.1597C81.8176 80.4701 71.4272 85.8575 59.7824 85.8575V89.8575Z" fill="black" mask="url(#path-164-inside-1_140_31)"/>
<path d="M90.0381 27.4666L88.4779 28.718L91.7635 26.4552L90.0381 27.4666ZM38.6739 95.875L40.182 97.1886L42.4254 94.6128L39.0813 93.917L38.6739 95.875ZM25.5006 111L23.9924 109.686L26.3202 112.824L25.5006 111ZM59.6961 95.6367L59.244 93.6885L59.0542 93.7325L58.8765 93.8124L59.6961 95.6367ZM90.0483 73.4117L91.7742 74.4223L88.4886 72.1597L90.0483 73.4117ZM19.4126 50.448C19.4126 72.2581 37.5378 89.8575 59.7824 89.8575V85.8575C39.6507 85.8575 23.4126 69.954 23.4126 50.448H19.4126ZM59.7824 11.0383C37.5377 11.0383 19.4126 28.638 19.4126 50.448H23.4126C23.4126 30.942 39.6507 15.0383 59.7824 15.0383V11.0383ZM91.5982 26.2152C84.2077 17.001 72.7387 11.0383 59.7824 11.0383V15.0383C71.4849 15.0383 81.8209 20.4182 88.4779 28.718L91.5982 26.2152ZM48.64 6C65.644 6 80.4522 15.0676 88.3126 28.478L91.7635 26.4552C83.1994 11.8444 67.0916 2 48.64 2V6ZM3 50.448C3 25.9764 23.4152 6 48.64 6V2C21.3022 2 -1 23.6723 -1 50.448H3ZM39.0813 93.917C18.4464 89.6231 3 71.7383 3 50.448H-1C-1 73.7416 15.8843 93.1757 38.2664 97.8331L39.0813 93.917ZM27.0087 112.313L40.182 97.1886L37.1657 94.5615L23.9924 109.686L27.0087 112.313ZM58.8765 93.8124L24.6809 109.176L26.3202 112.824L60.5157 97.4611L58.8765 93.8124ZM88.3224 72.4011C82.1517 82.9397 71.6894 90.8002 59.244 93.6885L60.1483 97.5849C73.6683 94.4473 85.05 85.9061 91.7742 74.4223L88.3224 72.4011ZM59.7824 89.8575C72.6809 89.8575 84.2037 83.8875 91.6079 74.6637L88.4886 72.1597C81.8176 80.4701 71.4272 85.8575 59.7824 85.8575V89.8575Z" fill="#DD3927" mask="url(#path-164-inside-1_140_31)"/>
<path d="M93.995 59.8236C94.7519 59.8236 95.424 59.6939 96.0093 59.4345C96.5956 59.1621 97.0531 58.7859 97.3818 58.306C97.7242 57.8132 97.9027 57.236 97.9173 56.5746H103.726C103.712 58.0532 103.276 59.3696 102.418 60.524C101.561 61.6654 100.411 62.5669 98.9679 63.2283C97.5242 63.8768 95.9098 64.2011 94.1237 64.2011C92.323 64.2011 90.7515 63.9287 89.4083 63.3839C88.0788 62.8392 86.9716 62.0869 86.0859 61.1271C85.2002 60.1543 84.5359 59.0259 84.093 57.7418C83.6492 56.4449 83.4277 55.057 83.4277 53.5784V53.0142C83.4277 51.5226 83.6492 50.1348 84.093 48.8507C84.5359 47.5537 85.2002 46.4253 86.0859 45.4655C86.9716 44.4928 88.0788 43.734 89.4083 43.1892C90.7369 42.6445 92.2947 42.3721 94.0808 42.3721C95.981 42.3721 97.6461 42.7029 99.0742 43.3643C100.518 44.0258 101.647 44.9726 102.461 46.2048C103.29 47.424 103.712 48.8702 103.726 50.5433H97.9173C97.9027 49.8429 97.7388 49.2075 97.4247 48.6367C97.1243 48.066 96.6814 47.6121 96.0951 47.2748C95.5235 46.9246 94.8163 46.7496 93.9735 46.7496C93.0731 46.7496 92.3376 46.9246 91.766 47.2748C91.1944 47.6121 90.7515 48.079 90.4365 48.6757C90.1224 49.2594 89.9009 49.9272 89.7722 50.6796C89.658 51.4189 89.6015 52.1971 89.6015 53.0142V53.5784C89.6015 54.3955 89.658 55.1803 89.7722 55.9325C89.8873 56.6848 90.1009 57.3528 90.416 57.9365C90.7437 58.5201 91.1944 58.9806 91.766 59.3177C92.3376 59.655 93.08 59.8236 93.995 59.8236ZM91.6802 63.7341H96.3312L96.0951 64.882C96.9097 65.0117 97.653 65.323 98.3241 65.8159C98.9962 66.3087 99.3317 67.1194 99.3317 68.2478C99.3317 68.9352 99.1679 69.5578 98.8391 70.1155C98.525 70.6732 98.0529 71.1531 97.4247 71.5552C96.7955 71.9703 96.0093 72.2815 95.067 72.4891C94.1237 72.7095 93.038 72.8198 91.8089 72.8198L91.6587 69.7069C92.1162 69.7069 92.5298 69.6486 92.9015 69.5319C93.2731 69.4151 93.5658 69.2335 93.7804 68.9871C93.995 68.7537 94.1023 68.4424 94.1023 68.0532C94.1023 67.6901 93.995 67.4047 93.7804 67.1972C93.5658 66.9897 93.2302 66.834 92.7737 66.7303C92.3298 66.6265 91.7446 66.5551 91.0159 66.5163L91.6802 63.7341Z" fill="#DD3927"/>
</svg>
