<?xml version="1.0" encoding="utf-8"?><svg viewBox="0 0 30 30" xmlns="http://www.w3.org/2000/svg" xmlns:xlink="http://www.w3.org/1999/xlink"><style>:root>svg{display:none}:root>svg:target{display:block}</style><svg fill="none" viewBox="0 0 8 7" id="icon-caret" xmlns="http://www.w3.org/2000/svg"><path d="M3.134 6.5a1 1 0 001.732 0L7.464 2A1 1 0 006.598.5H1.402A1 1 0 00.536 2l2.598 4.5z" fill="#fff"/></svg><svg fill="none" viewBox="0 0 8 7" id="icon-caret-red" xmlns="http://www.w3.org/2000/svg"><path d="M3.134 6.5a1 1 0 001.732 0L7.464 2A1 1 0 006.598.5H1.402A1 1 0 00.536 2l2.598 4.5z" fill="#DD3927"/></svg><svg fill="none" viewBox="0 0 30 30" id="icon-dropdown-01" xmlns="http://www.w3.org/2000/svg"><path d="M4.314 18.544c-.255-.2-.292-.473-.242-.764.04-.222-.156-.238-.314-.404.194.385.283.712.223 1.063a1.396 1.396 0 01-.505.885 1.2 1.2 0 01-1.418.092c-.347-.216-.547-.534-.632-.927-.083-.39.028-.753.19-1.108-.11.107-.25.177-.269.344-.013.127-.118.096-.197.097-.106.003-.116-.073-.116-.153 0-.282-.086-.601.016-.838.303-.696.072-1.407.15-2.104.016-.144.087-.284.141-.423.128-.33.262-.656.392-.98-.104-.08-.201.033-.295-.041.115-.216.327-.316.538-.355.25-.046.31-.176.328-.4a.902.902 0 01.294-.621c.058-.051.127-.099.203-.08.103.027.06.124.062.193.006.179 0 .356.002.535.003.292.047.32.384.2-.12-.057-.328.006-.271-.22.02-.087.027-.119.137-.108.355.031.711.04 1.068.054.08.003.16.022.234-.054.112-.118.183.025.255.07.067.043.064.168 0 .194-.069.028-.169.092-.25.015-.054-.053-.108-.078-.17-.036-.02.013-.03.076-.016.098.042.067.118.038.18.038.356 0 .712-.008 1.07-.005.475.005.688.213.694.69.008.555-.004 1.108.008 1.663.001.108-.099.307.098.317.188.01.43-.127.407-.305-.073-.571.252-1.092.17-1.652-.024-.158.127-.385-.156-.464-.01-.003-.01-.164.018-.174.205-.085.134-.257.146-.403.007-.086-.029-.177.104-.225.125-.045-.064-.083-.002-.152.112.045.187.12.18.276-.008.19-.044.387.116.545.027.027.037.097.022.135-.185.457-.197.848-.033 1.249.01.025.017.055.014.082-.063.516.111 1.015.095 1.53-.013.402-.283.678-.696.687-.161.003-.327-.023-.506.033.105.138.217.092.312.094.573.004 1.147.003 1.719.001.154 0 .306.006.414.133.074.086.166.077.258.074.598-.02 1.199.061 1.792-.095.291-.078.565.139.858.094.104-.017.257.09.304-.099.046-.19-.093-.238-.233-.281-.416-.13-.793-.391-1.26-.354-.164.014-.125-.134-.122-.228.005-.155.002-.285-.215-.255-.111.015-.143-.06-.14-.16.003-.14.008-.281 0-.421-.007-.134.045-.191.18-.18.253.022.153-.17.17-.29.026-.167-.081-.182-.207-.173-.019.002-.037 0-.056 0-.69-.007-.69-.007-.69-.686 0-.629.008-1.258-.005-1.887-.004-.216.069-.286.274-.265.13.013.263-.002.394.003.165.006.328.02.297-.233-.015-.12.086-.125.174-.125.179 0 .356.004.535.004 5.909 0 11.817.003 17.723-.007.29 0 .358.077.355.36-.015 1.4-.004 2.797-.009 4.197 0 .146.088.355-.198.369-.075.003-.046.108-.054.171-.071.644-.046 1.291-.053 1.937-.002.098.037.205-.051.304-.118-.05-.078-.155-.078-.236-.004-.45-.013-.902.003-1.352.008-.22-.073-.265-.275-.264-2.423.006-4.846 0-7.268.01-.263 0-.39-.053-.34-.336.034-.194-.046-.26-.246-.255a30.23 30.23 0 01-1.52 0c-.174-.005-.263.082-.333.208-.114.208-.035.336.198.339.245.003.489.007.732-.002.182-.007.26.08.265.248.005.103.006.207 0 .31-.009.165-.088.255-.266.253-.686-.004-1.372-.004-2.058-.001-.185.001-.24-.091-.247-.262-.026-.546-.03-.546.512-.546.103 0 .21.01.31-.003.117-.016.315.09.297-.164-.015-.206-.11-.362-.332-.371-.31-.014-.62-.003-.93-.005-.527 0-1.053.006-1.578-.003-.168-.003-.237.046-.226.222.012.215.01.433 0 .647-.006.114.073.264-.146.305-.102.019.002.117.026.172.232.52.224 1.03-.11 1.497-.3.42-.716.632-1.243.531-.568-.109-.898-.48-1.044-1.021-.094-.346-.195-.412-.557-.348-.144.026-.115.121-.129.208-.09.583-.487 1.037-1.01 1.157-.676.153-1.351-.296-1.532-1-.03-.122.038-.342-.141-.347-.248-.006-.525-.125-.749.085-.119.112-.26.14-.414.14-.751 0-1.503.005-2.254-.001-.422-.003-.543-.136-.546-.567l-.001-.196c-.002-.06-.01-.117-.087-.12-.076-.003-.088.055-.09.114-.004.056-.017.117 0 .168.113.341-.157.526-.31.755-.075.111-.463.06-.61-.062.195.002.394.06.602-.032-.234-.236-.42-.182-.592.034zm10.556-1.41c-.332-.185-.375-.469-.335-.788.016-.138-.082-.137-.182-.144-.519-.042-.96.222-1.432.359-.14.04-.074.174-.08.268-.007.117.088.1.16.1.15.002.312.036.449-.007.505-.16.97-.124 1.42.212zM3.746 12.82c.115-.049.343.054.334-.074-.012-.176-.227-.058-.348-.067-.102-.008-.3-.072-.298.073.003.127.203.027.312.068z" fill="currentColor"/><path d="M21.791 18.22c-.006-.75.587-1.393 1.293-1.405.688-.012 1.306.642 1.31 1.39.005.748-.595 1.396-1.295 1.403-.7.008-1.303-.633-1.308-1.387zM27.604 18.222c-.003.753-.608 1.395-1.306 1.386-.705-.009-1.29-.647-1.287-1.404.003-.754.611-1.401 1.306-1.388.705.012 1.288.65 1.287 1.406z" fill="currentColor"/><path d="M23.725 16.871h1.888c-.242.298-.551.506-.632.874-.016.073-.058.143-.058.214.003.164-.024.258-.228.255-.194-.003-.225-.079-.238-.249-.035-.468-.272-.82-.732-1.094zM16.273 16.993c0 .16.005.32-.001.477-.005.118.02.202.124.285.197.158.2.347.04.507a.366.366 0 01-.528.003c-.158-.155-.158-.357.037-.509.117-.09.135-.184.133-.311a58.72 58.72 0 010-1.01c.002-.077-.028-.195.096-.196.128-.002.095.115.096.192.006.186.003.374.003.562zM27.686 17.995c-.1-.47-.269-.848-.656-1.133.358 0 .715-.007 1.072.005.122.004.183.375.071.536-.137.197-.304.373-.487.592z" fill="currentColor"/></svg><svg fill="none" viewBox="0 0 30 30" id="icon-dropdown-02" xmlns="http://www.w3.org/2000/svg"><path d="M28.994 20.933c-.322-.114-.65-.222-.967-.353-1.116-.44-2.226-.886-3.341-1.331-.093-.039-.186-.071-.3-.115-.055.25-.11.479-.165.712-.027.006-.054.006-.082.011-.038-.163-.104-.331-.11-.494-.005-.305-.158-.462-.436-.538-.22-.06-.433-.131-.673-.207l-.18.712c-.028 0-.055 0-.082.005-.039-.195-.099-.386-.115-.587-.017-.223-.11-.348-.323-.413-.251-.076-.497-.168-.776-.26-.06.25-.126.489-.186.733h-.082c-.038-.206-.093-.413-.115-.62-.017-.195-.104-.315-.295-.37-.268-.08-.53-.178-.804-.27-.071.173-.131.33-.213.52-.159-.27-.066-.64-.421-.738-.268-.076-.547-.125-.842-.196-.066.174-.132.337-.192.5-.038-.022-.065-.027-.065-.038-.05-.446-.328-.62-.75-.669-.295-.032-.584-.108-.923-.174-.072.604-.159 1.196-.197 1.789-.071 1.054-.099 2.114-.175 3.174-.039.56-.137 1.115-.224 1.67-.033.216.038.358.207.488 1.214.924 2.412 1.87 3.63 2.783.455.337.586.778.564 1.343-1.668-.598-3.313-1.185-4.976-1.777-.125.56-.24 1.087-.36 1.614-.022.005-.039.005-.06.01-.126-.532-.247-1.07-.378-1.62-1.662.593-3.302 1.18-4.959 1.768-.038-.56.098-.984.558-1.327 1.213-.907 2.4-1.853 3.603-2.783.186-.141.262-.288.213-.533-.284-1.407-.246-2.848-.333-4.272-.044-.766-.148-1.527-.225-2.316-.475.098-.924.174-1.361.283-.082.022-.164.125-.213.212-.06.114-.082.25-.148.457-.087-.24-.147-.403-.213-.571-.077.016-.137.027-.197.043-.497.098-1.072.104-1.006.897a.603.603 0 00-.082-.043c-.06-.152-.12-.305-.191-.5-.323.12-.651.223-.957.364-.077.038-.12.185-.148.288-.05.207-.07.413-.104.62h-.082a58.31 58.31 0 01-.202-.74c-.323.12-.634.218-.924.36-.082.037-.131.178-.159.282-.049.206-.07.413-.104.625-.027 0-.054.005-.082.005-.065-.233-.125-.467-.202-.728-.312.114-.618.201-.897.342-.103.05-.158.223-.196.354-.055.184-.066.375-.093.565-.033 0-.06 0-.093.005-.055-.233-.115-.467-.18-.728-1.51.582-3.008 1.18-4.517 1.783-.033-.06-.066-.114-.093-.169v-.598c.153-.608.58-.983 1.077-1.331 1.06-.74 2.094-1.506 3.139-2.262.185-.135.339-.26.12-.494-.044-.044-.038-.136-.044-.207-.01-.478-.01-.962-.022-1.44-.005-.212.099-.294.301-.283.164.006.328.006.492-.005.235-.017.34.098.34.32v1.213c.141-.093.24-.147.327-.207.716-.51 1.433-1.027 2.149-1.538.164-.12.284-.234.093-.435-.05-.049-.06-.147-.06-.228-.011-.473-.006-.94-.017-1.414-.005-.228.077-.331.317-.32.853.043.788-.185.82.766.006.212.033.43.05.685.104-.07.18-.114.246-.169.891-.706 1.777-1.413 2.674-2.114.497-.386.716-.886.721-1.506.011-1.196.022-2.392.071-3.582.033-.777.29-1.506.667-2.19.039-.071.088-.142.137-.202.284-.326.618-.304.848.066.486.804.77 1.685.803 2.62.039 1.103.05 2.206.044 3.31 0 .63.235 1.114.733 1.5.875.68 1.739 1.37 2.608 2.06.093.071.186.142.339.25v-.87c0-.097.005-.2.01-.298.012-.245.121-.37.383-.326.039.005.072 0 .11 0 .678 0 .678 0 .672.668-.005.343-.016.69-.032 1.033-.006.087-.017.196-.072.25-.158.168-.098.288.06.402.772.56 1.548 1.12 2.319 1.675.033.027.077.037.137.065.016-.386.038-.75.054-1.12.011-.266.153-.364.405-.364.793.005.716-.098.716.68 0 .336 0 .668-.005 1.005 0 .081.01.18-.028.239-.18.26-.043.397.164.544 1.11.788 2.21 1.598 3.32 2.38.497.354.836.778.77 1.425-.005.06.028.12.044.179-.006.114-.006.223-.006.331z" fill="currentColor"/></svg><svg fill="none" viewBox="0 0 30 30" id="icon-dropdown-03" xmlns="http://www.w3.org/2000/svg"><path d="M9.844 21.863c-.18-.039-.36-.047-.54 0-.117.032-.25.04-.367.032-.993-.047-1.986-.094-2.98-.079-.367.008-.734-.03-1.094.055-.328.078-.618-.078-.93-.11-.462-.046-.923-.023-1.376-.085-.352-.047-.462-.157-.43-.516.054-.65.093-1.298.125-1.955.015-.415.07-.821.093-1.236.016-.203.047-.367.298-.375.164-.008.187-.117.156-.242-.07-.305.047-.462.313-.657.367-.274.727-.336 1.141-.344.055 0 .125-.024.164.023.266.313.54.196.782 0 .22-.172.477-.25.704-.383 1.165-.657 2.322-1.313 3.495-1.955.75-.414 1.502-.813 2.213-1.282.274-.18.29-.227.117-.5a1.882 1.882 0 01-.172-.329c-.031-.062-.086-.156.016-.203.086-.04.133.055.18.11.062.085.11.18.156.273.063.125.18.18.297.211.22.055.094-.336.352-.274.297.07.204-.164.164-.398.258.32.415.148.61.023 1.392-.891 2.792-1.76 4.191-2.643.383-.242.759-.492 1.142-.727.148-.094.133-.281.219-.367.07-.07.234.11.399-.008.406-.297.867-.524 1.274-.829.235-.18.532-.29.79-.454 1.009-.64 2.064-1.204 3.041-1.9a.938.938 0 00.337-.383c.039-.086.062-.164 0-.266-.204-.328-.157-.781.093-.97.204-.155.767-.023.947.259.11.172.172.203.398.148.321-.086.595-.18.79-.453.04-.055.11-.102.172-.055.07.047.125.141.11.227-.024.133-.016.219.133.258.078.023.086.094.078.164-.008.063.008.141.055.157.258.07.273.305.375.492.055.102.117.211.234.243.133.03.29.062.305.21.024.188-.195.18-.305.282.118.164.243.32.438.399.102.04.149.094.094.195-.125.235-.07.493-.063.735.032.79.102 1.572.102 2.362 0 1.055.086 2.111.07 3.167 0 .109 0 .21.063.304.43.626-.015 1.244-.023 1.861 0 .07-.032.07-.243.18.329.4.376.618.18.892-.164.234-.492.313-.711.164-.22-.149-.29-.516-.126-.743.11-.156.305-.313-.023-.453-.04-.016-.055-.094-.07-.149-.11-.375-.165-.774-.305-1.142-.055-.133.031-.265.086-.383.101-.203.172-.43.094-.64-.133-.345-.087-.689-.094-1.033-.024-.649-.141-1.29-.188-1.947-.047-.641-.078-1.282-.219-1.916-.047-.203-.156-.39-.117-.617-.258.14-.477.297-.657.516a.139.139 0 01-.063.054c-.305.094-.563.204-.664.563-.04.133-.227.126-.36.094-.43-.101-.743.125-1.016.399a1.031 1.031 0 01-.43.281c-.391.118-.712.376-1.056.58-.156.093-.227.25-.32.398-.133.211-.43.32-.657.477-.462-.297-.626.11-.845.36-.344.39-.758.703-1.157 1.032-1.095.907-2.15 1.86-3.065 2.94-.641.758-1.337 1.446-2.01 2.166-.039.039-.086.078-.117.125-.063.078-.203.164-.164.25.047.125.203.062.313.055 1.102-.032 2.205-.079 3.307-.118.094 0 .188-.031.282-.062a.897.897 0 011.07.414c.095.18.11.391.087.555-.04.282-.211.047-.313.016.281.805.641 1.587.594 2.47-.023.376-.039.751-.273 1.072-.086.117-.055.258-.063.391-.008.14-.07.172-.211.211-1.423.36-2.877.203-4.316.258-.04 0-.07.016-.149.031.117.094.227.063.313.063.93 0 1.861-.04 2.791 0 .657.031 1.33.11 1.963.266.633.164 1.087.664.891 1.524-.093.415-.023.845-.14 1.252-.04.125.078.133.164.133.352.023.711.054 1.063.054 1.384 0 2.76.125 4.144.18a.44.44 0 01.141.024c.086.03.203.062.188.18-.008.101-.117.109-.203.132-.446.102-.9.07-1.345.11-1.298.094-2.604.203-3.902.336-.657.07-1.322.125-1.978.125-2.44.016-4.88.04-7.327-.008-1.681-.031-3.362.008-5.043-.054-1.658-.063-3.323-.04-4.965-.337a3.156 3.156 0 01-.391-.093c-.07-.024-.165-.04-.165-.133-.007-.102.079-.157.165-.18.242-.063.484-.11.735-.157.054-.008.117-.008.172-.015.156-.04.36 0 .461-.125.133-.165-.102-.258-.149-.391-.351-.947.188-2.01 1.197-2.135 1.321-.164 2.643-.328 3.98-.407.774-.054 1.532-.203 2.283-.297zm8.132-10.11l-.024-.047c-2.877 1.799-5.755 3.597-8.632 5.388.008.023.024.047.031.062.337-.117.68-.078 1.025-.086.664-.023 1.321-.015 1.986-.039.39-.015.633-.172.875-.446.454-.508.923-1 1.408-1.477.57-.556 1.079-1.158 1.697-1.666.61-.485 1.094-1.118 1.634-1.689zM28.46 6.264c-.054.102-.078.196-.133.227-.398.242-.367.633-.367 1.024 0 .54-.008 1.08-.024 1.611-.015.657-.117 1.314.016 1.97a.647.647 0 01-.016.344c-.125.337-.125.337.211.384a.473.473 0 01.141.039c.227.086.305.015.297-.235-.03-1.102-.023-2.205-.078-3.307-.031-.673-.015-1.337-.047-2.057zM5.825 16.421c.36-.117.672-.36 1.055-.18.016.008.047-.023.07-.039l.658-.422c.97-.618 1.939-1.243 2.908-1.86.079-.048.235-.071.188-.18-.055-.126-.203-.118-.328-.056-.047.024-.086.04-.125.063-1.361.75-2.722 1.51-4.082 2.26-.133.078-.266.148-.399.234-.039.024-.078.063-.047.118.032.047.07.062.102.062zm6.74.837h-.75c-.626 0-1.252-.008-1.87.055-.093.007-.21-.016-.203.133.008.117-.039.281.133.304.149.024.313.047.477-.047-.086-.062-.211.04-.227-.101-.007-.086.055-.14.118-.188.125-.086.258-.133.406-.086.165.047.07.164.07.258 0 .149.102.188.235.188.243 0 .485-.024.72 0 .43.055.672-.18.891-.516zm15.146-7.123c.047-.978.086-1.955.133-2.933.007-.187-.087-.351-.133-.523a.152.152 0 00-.18-.11c-.07.016-.086.078-.07.133.062.211-.016.422 0 .626.085.946.171 1.876.25 2.807zm-13.598 8.343c-.062-.352-.031-.712-.047-1.064-.015-.219-.148-.313-.29-.195-.163.133-.304.29-.445.445-.054.055-.101.157 0 .188.344.102.391.383.462.665.03.125.109.187.219.18.156 0 .078-.133.101-.22zm3.769-.782v1.165c0 .086-.008.18.102.21.11.024.148-.054.195-.124.157-.235.258-.235.438-.016.04.047.047.133.164.117.024-.164-.039-.304-.078-.46-.07-.251-.156-.454-.477-.4-.11.016-.172-.062-.195-.172a.652.652 0 00-.149-.32zm-.759 1.337c.329.101.509.023.54-.211.063-.462.031-.939.008-1.408 0-.086-.063-.133-.156-.148-.079-.008-.118.031-.157.101-.149.282-.258.555-.047.868.055.086.063.204.094.297.086.235.078.423-.282.5zm-1.141.188c.016-.047.055-.102.039-.134-.094-.234-.016-.469-.047-.711-.039-.29-.023-.594.024-.884.015-.078.148-.187-.016-.234-.14-.04-.219.031-.25.195-.11.524-.055 1.032.07 1.54.024.095.055.188.18.228zm-1.587.406v-2.572a.401.401 0 00-.055-.188c-.031-.055-.07-.164-.164-.078-.07.062-.172.14-.063.234.204.188.188.43.188.665.008.516.008 1.032.015 1.556 0 .125-.015.25.079.383z" fill="currentColor"/></svg><svg fill="none" viewBox="0 0 30 30" id="icon-dropdown-04" xmlns="http://www.w3.org/2000/svg"><path d="M14.837 13.286c.093-.065.197-.036.297-.036.697-.004 1.39.007 2.087-.007.226-.004.28.068.276.282-.015.733-.008 1.466-.004 2.199 0 .09-.025.186.04.271.085-.092.05-.2.05-.293.003-.715.014-1.43-.004-2.141-.007-.268.082-.322.329-.318.686.014 1.372.014 2.059 0 .225-.004.304.046.296.286-.017.722-.007 1.448-.003 2.17 0 .096-.036.204.093.35 0-.383.01-.711-.004-1.033-.01-.207.036-.293.272-.29.715.018 1.43.018 2.141 0 .236-.007.279.079.268.286-.014.28-.003.558-.003.837 0 .043-.022.104.04.114.038.007.085-.018.12-.043a.295.295 0 00.122-.264c0-.111.004-.222 0-.333-.014-.257.097-.368.361-.364.508.007.508-.004.508-.526 0-.325.007-.65-.004-.972-.007-.197.047-.286.265-.283.407.008.407-.007.407-.425 0-.63 0-.63.63-.693.282-.029.543-.115.775-.283.383-.271.44-.518.204-.933-.04-.068-.068-.16-.029-.21.126-.162.15-.337.165-.533.014-.15.178-.083.282-.093.236-.022.465-.022.4.329-.014.085.044.135.093.189.08.086.086.2.03.286-.258.386-.076.808-.119 1.212-.014.146.122.104.207.107.358.014.358.01.358.379 0 .075.004.15 0 .222-.018.264-.054.525.365.457.15-.021.146.133.146.247 0 .436.007.872-.003 1.308-.004.158.017.247.203.218.24-.035.35.075.383.318.15 1.223.06 2.406-.526 3.518-.028.057-.064.11-.096.168-.225.429-.536.604-1.062.604-7.682-.021-15.364-.014-23.046-.014-.719 0-1.02-.24-1.19-.94-.305-1.237-.902-2.306-1.863-3.157-.104-.093-.186-.182-.14-.332.054-.172.197-.165.34-.165.565 0 1.133-.014 1.698.007.236.008.354-.089.454-.278.386-.723.447-1.502.407-2.299-.003-.046-.007-.082-.046-.121-.225-.222-.222-.476.007-.726a.156.156 0 00.036-.068c.018-.086-.032-.215.09-.236.142-.025.292-.007.443-.007.017 0 .046.014.046.025-.007.214.26.296.254.5-.007.186.107.415-.161.537-.072.032-.036.135-.036.207-.003.743.004 1.483-.003 2.227-.004.179.039.24.228.236a31.384 31.384 0 011.641 0c.208.007.243-.068.236-.254-.014-.418 0-.836-.007-1.251 0-.129.014-.211.175-.211.797.004 1.594.004 2.395.004.032 0 .068.025.1.039v2.684h.065v-2.684c.082-.06.178-.04.268-.04.783.011 1.57-.028 2.356.022v2.713h.103v-2.695c.111-.068.236-.036.35-.04.673-.003 1.348-.003 2.02 0 .09 0 .186-.032.265.04v2.699h.09c.01-.905.01-1.805.01-2.706zm11.725-1.573c-.175.179-.372.257-.554.382.594.093.597.09.554-.382zM3.877 14.515c-.068.136-.133.276-.215.44.44.014.168-.304.215-.44z" fill="currentColor"/></svg><svg fill="none" viewBox="0 0 30 30" id="icon-dropdown-05" xmlns="http://www.w3.org/2000/svg"><path d="M27.91 17.88c.116.856-.521 1.387-1.359 1.127a.35.35 0 00-.239 0c-.32.112-.598.02-.837-.194a.486.486 0 00-.345-.13c-.229.003-.457-.01-.686-.021a.492.492 0 00-.419.148c-.257.253-.57.359-.932.253-.091-.025-.18-.018-.271-.014-.457.024-.83-.24-.936-.68-.035-.147-.077-.224-.229-.122-.175.116-.372.067-.562.074-.43.014-.88.091-1.285-.01-.34-.089-.671.112-.985-.057-.056-.106.029-.211 0-.317.085-.366.025-.447-.334-.447-.506 0-1.013.029-1.516-.01-.447-.035-.605.26-.792.556-.017.014-.017.028-.003.045-.546.39-1.168.218-1.763.25-.028 0-.056 0-.08-.007-.24-.063-.476-.21-.73-.02-.045.034-.157.027-.21-.005-.099-.06-.292-.084-.145-.295a.463.463 0 00.06-.313c-.028-.18-.084-.253-.295-.24-.465.029-.929.008-1.397.008-.426 0-.552.169-.447.584l.014.165-.053.063-.503.01c-.714.11-1.428.026-2.146.036-.274-.134-.274-.134-.306.172a1.657 1.657 0 01-.042.081c-.06.021-.084.067-.088.13-.056.057-.112.113-.165.17-.275.147-.584.095-.87.144-.4.07-.735.02-1.058-.204-.025-.092-.067-.155-.173-.148-.12.003-.242.007-.362.007-.306-.01-.644-.12-.851.236a.105.105 0 00-.04.02c-.263.089-.527.156-.794.008a.16.16 0 00-.159 0c-.376.207-.738.144-1.09-.067a.207.207 0 00-.151-.176 1.347 1.347 0 01-.215-.433.33.33 0 00.01-.232c.007-.032.018-.063.025-.095l.18-.327c.017-.035.066-.074.017-.116-.042-.039-.084-.007-.123.014-.123.07-.25.112-.394.07-.204-.067-.401-.151-.602-.228-.257-.099-.31-.24-.123-.475a.355.355 0 00.327-.081c.095-.085.095-.148-.052-.162l-.18-.06.155-.144c.443-.007.89-.007 1.333-.021.099-.004.219.053.296-.067.053-.018.112-.032.112-.106.141-.172.285-.345.387-.545.04-.007.078-.018.113-.025a.503.503 0 00.26.014c.057.025.106.029.113-.052.035 0 .07 0 .106-.004.042.01.052.078.112.06.085.025.18.095.229-.039.155-.436.257-.88.151-1.347-.007-.035-.028-.081-.056-.092-.257-.102-.155-.316-.155-.496a48.944 48.944 0 010-1.017c0-.13.007-.256-.106-.351-.042-.036-.084-.102-.042-.145.275-.302.102-.661.134-.995.021-.25-.004-.517.225-.7.053.007.074-.043.11-.057.15-.066.193-.306.39-.274.376.063.746-.014 1.118-.014 1.19.003 2.379 0 3.568-.007.105 0 .218.031.317-.039h.168c.37.063.74.06 1.109 0h.858c.106.053.215.028.324.028 4.046-.014 8.092-.028 12.138-.038.133 0 .281-.05.411.056-.088.116-.197.042-.288.063-.07.014-.2-.046-.194.078.007.112.134.063.204.056.173-.01.342-.025.507.039a.277.277 0 01.193.165c.011.155.032.306.088.454v.165c-.052.264-.063.528.004.792.165.147.176.299 0 .45-.078.078-.042.172-.042.26-.007.42-.007.841-.01 1.26-.082.113-.194.211-.173.373-.134.584-.018 1.136.235 1.667.064.117.014.32.243.303.05.039.106.06.166.021l.109-.003c.056.014.112.028.168.038.029.014.057.032.081.046.064.056.141.032.212.032.615.003 1.23 0 1.847.003.133 0 .281-.014.344.151l-.007.004c-.137.035-.144.11-.02.151.15.05.15.152.154.271 0 .099.007.197.014.296l-.074.126c-.05.032-.095.064-.144.092-.127-.014-.253-.021-.373.039-.01-.099-.088-.183-.158-.166-.085.018-.085.141-.057.215.053.148.004.204-.144.207-.039.004-.074.025-.06.085zM5.08 16.123c-.046.007-.12-.039-.127.031-.003.057.063.078.127.064.067.028.13.06.197.08a.327.327 0 00.285-.035c.02-.014.035-.07.024-.095-.049-.112-.154-.102-.253-.109-.095-.003-.183-.007-.253.064zm20.078-.45c.004-.184.021-.433-.084-.665-.029-.067-.043-.134-.148-.124a.412.412 0 00-.38.416c-.004.218.018.44-.004.657-.024.257.046.345.32.338.25-.007.331-.077.296-.313-.01-.08 0-.165 0-.31zm-20.282.098c.049-.085.095-.172.144-.257.067-.12.13-.24.123-.383-.007-.092.01-.183-.12-.208-.154-.032-.13.095-.15.169-.064.222.02.447.003.679zm19.515-.398c-.341.081-.25.387-.387.56-.05.063.169.197.292.225.137.032.088-.106.092-.172.007-.201.003-.398.003-.613zm-20.448.58c-.186-.07-.306-.15-.446-.052-.036.025-.046.095-.011.123.14.11.267.025.457-.07zm10.379-5.597c.172.004.355.088.574-.042-.23-.02-.405-.053-.574.042zm-9.084 4.64c.028.163-.06.279.08.339.036.014.124-.007.124-.018.007-.12-.077-.193-.204-.32zm11.476 2.432h.898c-.3-.07-.598-.084-.898 0zm1.928 0c-.003-.014-.003-.032-.007-.046h-.844v.046h.851z" fill="currentColor"/><path d="M25.323 10.383c-.165-.063-.334-.049-.506-.038-.07.003-.197.056-.204-.056-.007-.124.123-.064.193-.078.092-.021.2.05.289-.063-.13-.106-.278-.056-.412-.056-4.046.01-8.092.024-12.138.038-.109 0-.218.028-.323-.028.063-.098.165-.06.25-.06 4.14-.014 8.281-.017 12.422-.042.32 0 .324.215.43.383zM10.086 10.105c-.098.07-.21.04-.316.04-1.19.003-2.379.01-3.568.006-.373 0-.742.074-1.119.014-.197-.031-.239.208-.39.275-.035.014-.056.067-.11.056.075-.246.205-.415.497-.415 1.629 0 3.254-.007 4.883-.01.042-.004.088-.008.123.034zM3.986 15.619c-.007.08-.057.077-.113.053.018-.525-.144-1.024-.215-1.538-.017-.113.011-.324-.133-.303-.152.022-.155.222-.141.37.007.053.014.109.025.162.066.433.137.862.204 1.295-.039.007-.078.017-.113.024-.074-.496-.13-.996-.236-1.485-.045-.225.088-.334.187-.467.095-.124.21-.05.33 0 .159.066.338.077.483.228-.197.01-.335-.137-.532-.137.07.605.225 1.193.254 1.798zM16.187 18.085c-.014-.018-.014-.032.003-.046.651.007 1.302 0 1.95.028.25.01.481.032.692-.127.028.106-.06.211 0 .317-.594-.095-1.196-.08-1.794-.109-.285-.018-.577.063-.851-.063zM1.84 17.571c.144.042.27 0 .394-.07.038-.021.08-.053.123-.015.049.043.003.081-.018.117-.056.109-.12.218-.18.327-.073-.085.113-.264-.052-.268-.155-.003-.2.166-.176.328.021.15.032.31.039.46.003.074-.01.166-.099.17-.116.006-.074-.096-.08-.163a3.133 3.133 0 01.048-.886zM28.789 16.565c-.063-.166-.211-.152-.345-.152-.616-.003-1.231 0-1.847-.003-.07 0-.148.025-.211-.032.746-.06 1.495-.038 2.241-.007.24.01.246.046.162.194zM27.91 17.88c-.015-.06.02-.084.073-.084.148 0 .197-.06.145-.207-.029-.078-.029-.197.056-.215.07-.014.147.07.158.166-.088.133-.074.235.063.344.127.102.211.247.317.373.032.035.06.078.021.12-.046.053-.105.039-.14-.007a1.32 1.32 0 01-.155-.222c-.123-.207-.285-.327-.539-.267zM2.497 18.87c.352.207.715.274 1.091.066a.159.159 0 01.158 0c.268.145.532.081.795-.007-.158.198-.373.219-.587.155a.759.759 0 00-.549.014c-.341.134-.718.025-.908-.228zM5.963 18.81c.324.225.658.274 1.059.204.288-.05.594.007.869-.145-.127.19-.334.247-.524.23-.222-.022-.433.017-.648.034-.302.025-.577-.046-.756-.323zM11.194 18.211c-.003-.056-.01-.109-.014-.165.626.113 1.267-.007 1.893.07v.092c-.626.003-1.253.003-1.879.003zM25.623 15.97c-.254-.53-.37-1.08-.236-1.667-.025.57.091 1.118.236 1.667zM25.556 13.93c.003-.419.003-.84.01-1.26 0-.088-.035-.182.042-.26.057.461.011.925.021 1.39.004.053-.01.109-.073.13zM11.363 10.102c-.37.06-.739.063-1.108 0 .366-.039.735-.095 1.108 0zM4.204 15.679c-.057.017-.07-.05-.113-.06a3.44 3.44 0 01.151-1c.01.011.025.022.036.029-.004.162-.011.32-.018.482l-.014.01.01-.01c.074.19-.13.355-.052.549zM4.577 18.905c.207-.352.541-.243.851-.236-.032.017-.06.05-.091.046-.275-.011-.535.01-.76.19zM28.93 17.286l-.014-.296c0-.12-.004-.221-.155-.27-.127-.043-.116-.12.021-.152.197.208.292.437.148.718zM25.608 11.96a1.672 1.672 0 01-.003-.792c.06.264.046.528.003.792zM3.04 14.296v.894c0-.3-.156-.599 0-.894zM10.638 18.285l.504-.01c-.166.13-.335.113-.504.01zM1.393 16.625c.144.014.144.074.052.162a.357.357 0 01-.327.08c.039-.14.317-.006.275-.242zM28.715 17.505c.05-.032.095-.064.144-.092-.014.123.085.204.141.345a.554.554 0 01-.285-.253zM25.605 11.003a1.551 1.551 0 01-.088-.454c.099.137.158.285.088.454zM3.11 16.227c0 .074-.06.088-.113.106-.042-.229.025-.45.003-.735.088.242-.024.457.11.63zM8.186 18.493c.028-.306.028-.306.306-.172-.137-.004-.242.045-.306.172zM1.368 16.42l-.155.145c-.067-.014-.067-.064-.038-.102.045-.067.12-.074.193-.043z" fill="currentColor"/><path d="M2.138 18.025a.329.329 0 01-.01.232c-.074-.077-.06-.155.01-.232zM5.79 18.662c.106-.01.152.056.173.148-.088-.015-.134-.078-.173-.148zM2.343 18.693a.207.207 0 01.15.176c-.098-.017-.14-.084-.15-.176zM26.308 16.33c-.056-.015-.112-.029-.168-.04.073-.07.133-.066.168.04zM26.03 16.294c-.06.039-.116.017-.165-.021.064-.056.116-.032.166.02zM4.242 14.616l.022-.236c.073.088.073.176.014.264a.248.248 0 01-.036-.028zM8.06 18.704c.003-.06.028-.11.088-.13.01.074-.018.116-.088.13zM18.836 17.937c-.211.159-.443.137-.693.127-.65-.028-1.298-.021-1.95-.028.184-.296.346-.591.792-.556.503.039 1.014.01 1.517.01.359.004.415.081.334.447zM3.609 15.657c-.067-.433-.137-.862-.204-1.295-.007-.052-.018-.109-.025-.162-.014-.15-.01-.351.141-.369.144-.018.116.19.134.303.07.513.235 1.013.214 1.537a.506.506 0 01-.26-.014zM4.876 15.77c.014-.232-.07-.457-.004-.683.021-.073-.003-.2.151-.168.127.024.113.116.12.207.01.144-.053.264-.123.384-.05.088-.095.172-.144.26zM24.391 15.372c0 .215.004.412-.003.609-.004.067.045.204-.092.172-.127-.028-.345-.162-.292-.225.137-.169.046-.475.387-.556zM5.08 16.122c.07-.07.158-.07.25-.06.098.01.204 0 .253.109.01.024-.004.08-.025.095a.339.339 0 01-.285.035c-.067-.021-.13-.053-.197-.081.004-.032.004-.067.004-.098zM3.943 15.953c-.19.095-.316.18-.457.07-.035-.028-.025-.098.01-.123.145-.098.264-.017.447.053zM14.322 10.355c.169-.095.345-.063.574-.042-.219.13-.402.046-.574.042zM5.238 14.996c.127.127.211.2.204.324 0 .01-.088.031-.123.017-.14-.063-.053-.18-.08-.34zM16.714 17.427c.3-.084.599-.074.898 0h-.898zM18.642 17.427h-.851v-.046h.844c0 .014.004.032.007.046z" fill="currentColor"/><path d="M5.08 16.122v.095c-.064.014-.13-.008-.127-.064.007-.07.08-.024.127-.031zM4.26 15.126l-.01.01.014-.01H4.26z" fill="currentColor"/></svg><svg fill="none" viewBox="0 0 16 12" id="icon-email" xmlns="http://www.w3.org/2000/svg"><path d="M.05 1.555A2 2 0 012 0h12a2 2 0 011.95 1.555L8 6.414.05 1.555zM0 2.697v7.104l5.803-3.558L0 2.697zM6.761 6.83l-6.57 4.027A2 2 0 002 12h12a2 2 0 001.808-1.144l-6.57-4.027L8 7.586l-1.239-.757v.001zm3.436-.586L16 9.801V2.697l-5.803 3.546v.001z" fill="currentColor"/></svg><svg fill="none" viewBox="0 0 16 16" id="icon-language" xmlns="http://www.w3.org/2000/svg"><path d="M13.566 2.252A7.97 7.97 0 008.005 0c-2.09 0-4.18.813-5.748 2.43a8.003 8.003 0 00.177 11.318A7.97 7.97 0 007.995 16a8.003 8.003 0 005.57-13.748zm-5.3 2.813c1.11-.009 2.071-.056 2.883-.13.187.869.29 1.813.308 2.785H8.266V5.065zm0-.532V.55c.299.056.588.197.877.421.43.336.821.85 1.166 1.523.29.57.532 1.215.719 1.926-.784.065-1.698.112-2.762.112zM7.734.55v3.982a36.587 36.587 0 01-2.753-.122c.168-.635.383-1.224.635-1.757C6.204 1.45 6.96.692 7.734.551zm0 4.514V7.73H4.543a14.71 14.71 0 01.308-2.785c.812.065 1.773.121 2.883.121zM4.011 7.73H.54a7.393 7.393 0 01.933-3.365c.457.14 1.381.365 2.855.524a15.053 15.053 0 00-.317 2.841zm0 .533c.019.972.121 1.934.308 2.84-1.474.16-2.398.384-2.855.524A7.478 7.478 0 01.53 8.262h3.48zm.532 0h3.191v2.663c-1.11.01-2.071.056-2.883.131a14.81 14.81 0 01-.308-2.794zm3.191 3.196v3.981c-.299-.056-.588-.196-.877-.42-.43-.337-.821-.85-1.166-1.514a9.712 9.712 0 01-.719-1.926 37.37 37.37 0 012.762-.121zm.532 3.981v-3.981c1.064.01 1.978.056 2.753.121a10.23 10.23 0 01-.635 1.757C9.806 14.551 9.04 15.3 8.266 15.44zm0-4.514V8.262h3.191a14.705 14.705 0 01-.308 2.785 40.041 40.041 0 00-2.883-.122zm3.723-2.663h3.471a7.393 7.393 0 01-.933 3.364c-.457-.14-1.381-.364-2.855-.523.196-.907.308-1.87.317-2.841zm0-.533a15.678 15.678 0 00-.308-2.841c1.474-.159 2.398-.383 2.855-.524a7.477 7.477 0 01.933 3.365h-3.48zm1.213-5.093c.401.383.746.813 1.045 1.261-.476.131-1.353.327-2.687.467a10.431 10.431 0 00-.775-2.112c-.336-.654-.718-1.168-1.12-1.542 1.316.3 2.539.954 3.537 1.926zm-10.563.168A7.48 7.48 0 015.14 1.103 7.63 7.63 0 016.353.72c-.438.401-.858.972-1.213 1.72-.28.588-.513 1.242-.69 1.934-1.335-.14-2.212-.337-2.688-.467.252-.402.55-.767.877-1.103zm.168 10.56a7.431 7.431 0 01-1.045-1.261c.476-.131 1.353-.327 2.688-.467.196.766.457 1.486.783 2.112.336.654.719 1.168 1.12 1.542a7.475 7.475 0 01-3.546-1.925zm10.554-.168a7.478 7.478 0 01-2.501 1.701c-.392.16-.793.29-1.213.383.438-.401.858-.972 1.213-1.72.28-.588.513-1.242.69-1.934 1.335.14 2.212.337 2.688.468a6.998 6.998 0 01-.877 1.102z" fill="currentColor"/></svg><svg fill="none" viewBox="0 0 12 16" id="icon-location" xmlns="http://www.w3.org/2000/svg"><path d="M6 16s6-5.686 6-10A6 6 0 100 6c0 4.314 6 10 6 10zm0-7a3 3 0 110-6 3 3 0 010 6z" fill="currentColor"/></svg><svg fill="none" viewBox="0 0 16 16" id="icon-phone" xmlns="http://www.w3.org/2000/svg"><path fill-rule="evenodd" clip-rule="evenodd" d="M1.885.51a1.745 1.745 0 012.61.164L6.29 2.98c.33.423.445.974.315 1.494l-.547 2.19a.678.678 0 00.178.643l2.457 2.457a.678.678 0 00.644.178l2.19-.547a1.745 1.745 0 011.494.315l2.305 1.794c.83.645.905 1.87.163 2.61l-1.034 1.035c-.74.74-1.845 1.065-2.877.702a18.635 18.635 0 01-7.01-4.42 18.634 18.634 0 01-4.42-7.01c-.362-1.03-.037-2.136.703-2.876L1.885.51z" fill="currentColor"/></svg></svg>