<?xml version="1.0" encoding="utf-8"?><svg viewBox="0 0 16 16" xmlns="http://www.w3.org/2000/svg" xmlns:xlink="http://www.w3.org/1999/xlink"><style>:root>svg{display:none}:root>svg:target{display:block}</style><svg fill="none" viewBox="0 0 8 7" id="icon-caret" xmlns="http://www.w3.org/2000/svg"><path d="M3.134 6.5a1 1 0 001.732 0L7.464 2A1 1 0 006.598.5H1.402A1 1 0 00.536 2l2.598 4.5z" fill="#fff"/></svg><svg fill="none" viewBox="0 0 8 7" id="icon-caret-red" xmlns="http://www.w3.org/2000/svg"><path d="M3.134 6.5a1 1 0 001.732 0L7.464 2A1 1 0 006.598.5H1.402A1 1 0 00.536 2l2.598 4.5z" fill="#DD3927"/></svg><svg fill="none" viewBox="0 0 16 12" id="icon-email" xmlns="http://www.w3.org/2000/svg"><path d="M.05 1.555A2 2 0 012 0h12a2 2 0 011.95 1.555L8 6.414.05 1.555zM0 2.697v7.104l5.803-3.558L0 2.697zM6.761 6.83l-6.57 4.027A2 2 0 002 12h12a2 2 0 001.808-1.144l-6.57-4.027L8 7.586l-1.239-.757v.001zm3.436-.586L16 9.801V2.697l-5.803 3.546v.001z" fill="currentColor"/></svg><svg fill="none" viewBox="0 0 16 16" id="icon-language" xmlns="http://www.w3.org/2000/svg"><path d="M13.566 2.252A7.97 7.97 0 008.005 0c-2.09 0-4.18.813-5.748 2.43a8.003 8.003 0 00.177 11.318A7.97 7.97 0 007.995 16a8.003 8.003 0 005.57-13.748zm-5.3 2.813c1.11-.009 2.071-.056 2.883-.13.187.869.29 1.813.308 2.785H8.266V5.065zm0-.532V.55c.299.056.588.197.877.421.43.336.821.85 1.166 1.523.29.57.532 1.215.719 1.926-.784.065-1.698.112-2.762.112zM7.734.55v3.982a36.587 36.587 0 01-2.753-.122c.168-.635.383-1.224.635-1.757C6.204 1.45 6.96.692 7.734.551zm0 4.514V7.73H4.543a14.71 14.71 0 01.308-2.785c.812.065 1.773.121 2.883.121zM4.011 7.73H.54a7.393 7.393 0 01.933-3.365c.457.14 1.381.365 2.855.524a15.053 15.053 0 00-.317 2.841zm0 .533c.019.972.121 1.934.308 2.84-1.474.16-2.398.384-2.855.524A7.478 7.478 0 01.53 8.262h3.48zm.532 0h3.191v2.663c-1.11.01-2.071.056-2.883.131a14.81 14.81 0 01-.308-2.794zm3.191 3.196v3.981c-.299-.056-.588-.196-.877-.42-.43-.337-.821-.85-1.166-1.514a9.712 9.712 0 01-.719-1.926 37.37 37.37 0 012.762-.121zm.532 3.981v-3.981c1.064.01 1.978.056 2.753.121a10.23 10.23 0 01-.635 1.757C9.806 14.551 9.04 15.3 8.266 15.44zm0-4.514V8.262h3.191a14.705 14.705 0 01-.308 2.785 40.041 40.041 0 00-2.883-.122zm3.723-2.663h3.471a7.393 7.393 0 01-.933 3.364c-.457-.14-1.381-.364-2.855-.523.196-.907.308-1.87.317-2.841zm0-.533a15.678 15.678 0 00-.308-2.841c1.474-.159 2.398-.383 2.855-.524a7.477 7.477 0 01.933 3.365h-3.48zm1.213-5.093c.401.383.746.813 1.045 1.261-.476.131-1.353.327-2.687.467a10.431 10.431 0 00-.775-2.112c-.336-.654-.718-1.168-1.12-1.542 1.316.3 2.539.954 3.537 1.926zm-10.563.168A7.48 7.48 0 015.14 1.103 7.63 7.63 0 016.353.72c-.438.401-.858.972-1.213 1.72-.28.588-.513 1.242-.69 1.934-1.335-.14-2.212-.337-2.688-.467.252-.402.55-.767.877-1.103zm.168 10.56a7.431 7.431 0 01-1.045-1.261c.476-.131 1.353-.327 2.688-.467.196.766.457 1.486.783 2.112.336.654.719 1.168 1.12 1.542a7.475 7.475 0 01-3.546-1.925zm10.554-.168a7.478 7.478 0 01-2.501 1.701c-.392.16-.793.29-1.213.383.438-.401.858-.972 1.213-1.72.28-.588.513-1.242.69-1.934 1.335.14 2.212.337 2.688.468a6.998 6.998 0 01-.877 1.102z" fill="currentColor"/></svg><svg fill="none" viewBox="0 0 12 16" id="icon-location" xmlns="http://www.w3.org/2000/svg"><path d="M6 16s6-5.686 6-10A6 6 0 100 6c0 4.314 6 10 6 10zm0-7a3 3 0 110-6 3 3 0 010 6z" fill="currentColor"/></svg><svg fill="none" viewBox="0 0 16 16" id="icon-phone" xmlns="http://www.w3.org/2000/svg"><path fill-rule="evenodd" clip-rule="evenodd" d="M1.885.51a1.745 1.745 0 012.61.164L6.29 2.98c.33.423.445.974.315 1.494l-.547 2.19a.678.678 0 00.178.643l2.457 2.457a.678.678 0 00.644.178l2.19-.547a1.745 1.745 0 011.494.315l2.305 1.794c.83.645.905 1.87.163 2.61l-1.034 1.035c-.74.74-1.845 1.065-2.877.702a18.635 18.635 0 01-7.01-4.42 18.634 18.634 0 01-4.42-7.01c-.362-1.03-.037-2.136.703-2.876L1.885.51z" fill="currentColor"/></svg></svg>