<?xml version="1.0" encoding="utf-8"?><svg viewBox="0 0 16 16" xmlns="http://www.w3.org/2000/svg" xmlns:xlink="http://www.w3.org/1999/xlink"><style>:root>svg{display:none}:root>svg:target{display:block}</style><svg fill="none" viewBox="0 0 16 12" id="icon-email" xmlns="http://www.w3.org/2000/svg"><path d="M.05 1.555A2 2 0 012 0h12a2 2 0 011.95 1.555L8 6.414.05 1.555zM0 2.697v7.104l5.803-3.558L0 2.697zM6.761 6.83l-6.57 4.027A2 2 0 002 12h12a2 2 0 001.808-1.144l-6.57-4.027L8 7.586l-1.239-.757v.001zm3.436-.586L16 9.801V2.697l-5.803 3.546v.001z" fill="#000"/><path d="M.05 1.555A2 2 0 012 0h12a2 2 0 011.95 1.555L8 6.414.05 1.555zM0 2.697v7.104l5.803-3.558L0 2.697zM6.761 6.83l-6.57 4.027A2 2 0 002 12h12a2 2 0 001.808-1.144l-6.57-4.027L8 7.586l-1.239-.757v.001zm3.436-.586L16 9.801V2.697l-5.803 3.546v.001z" fill="#DD3927"/></svg><svg fill="none" viewBox="0 0 12 16" id="icon-location" xmlns="http://www.w3.org/2000/svg"><path d="M6 16s6-5.686 6-10A6 6 0 100 6c0 4.314 6 10 6 10zm0-7a3 3 0 110-6 3 3 0 010 6z" fill="#DD3927"/><path d="M6 16s6-5.686 6-10A6 6 0 100 6c0 4.314 6 10 6 10zm0-7a3 3 0 110-6 3 3 0 010 6z" fill="#DD3927"/></svg><svg fill="none" viewBox="0 0 16 16" id="icon-phone" xmlns="http://www.w3.org/2000/svg"><path fill-rule="evenodd" clip-rule="evenodd" d="M1.885.51a1.745 1.745 0 012.61.164L6.29 2.98c.33.423.445.974.315 1.494l-.547 2.19a.678.678 0 00.178.643l2.457 2.457a.678.678 0 00.644.178l2.19-.547a1.745 1.745 0 011.494.315l2.305 1.794c.83.645.905 1.87.163 2.61l-1.034 1.035c-.74.74-1.845 1.065-2.877.702a18.635 18.635 0 01-7.01-4.42 18.634 18.634 0 01-4.42-7.01c-.362-1.03-.037-2.136.703-2.876L1.885.51z" fill="#000"/><path fill-rule="evenodd" clip-rule="evenodd" d="M1.885.51a1.745 1.745 0 012.61.164L6.29 2.98c.33.423.445.974.315 1.494l-.547 2.19a.678.678 0 00.178.643l2.457 2.457a.678.678 0 00.644.178l2.19-.547a1.745 1.745 0 011.494.315l2.305 1.794c.83.645.905 1.87.163 2.61l-1.034 1.035c-.74.74-1.845 1.065-2.877.702a18.635 18.635 0 01-7.01-4.42 18.634 18.634 0 01-4.42-7.01c-.362-1.03-.037-2.136.703-2.876L1.885.51z" fill="#DD3927"/></svg></svg>